<svg width="107" height="143" viewBox="0 0 107 143" fill="none" xmlns="http://www.w3.org/2000/svg">
<path d="M95.529 69.1812C100.121 63.2881 102.61 56.0289 102.601 48.5581V46.7628C102.585 38.195 99.306 29.9552 93.4302 23.7197C87.5544 17.4843 79.5236 13.7217 70.9719 13.1976V0.474121H48.5223V13.104H39.327V0.474121H16.8774V13.104H0.500732V35.538H11.6319V109.256H0.500732V131.69H16.8774V142.01H39.327V131.69H48.5223V142.01H70.9719V131.69H71.8305C81.0972 131.678 89.9809 127.991 96.5334 121.439C103.086 114.886 106.773 106.003 106.785 96.7358V94.7999C106.783 89.9833 105.782 85.2196 103.844 80.8099C101.907 76.4002 99.0754 72.4404 95.529 69.1812ZM34.0815 35.538H68.9268C71.9025 35.5421 74.7552 36.726 76.8593 38.8302C78.9635 40.9344 80.1474 43.787 80.1516 46.7628V48.5581C80.1516 51.5351 78.9689 54.3902 76.8639 56.4953C74.7588 58.6003 71.9038 59.7829 68.9268 59.7829H34.0815V35.538ZM84.3355 96.7358C84.3355 100.048 83.0196 103.225 80.6774 105.567C78.3352 107.909 75.1585 109.225 71.8461 109.225H34.0815V82.2794H71.8305C75.1429 82.2794 78.3196 83.5952 80.6618 85.9374C83.004 88.2796 84.3199 91.4563 84.3199 94.7687L84.3355 96.7358Z" fill="url(#paint0_radial_0_4108)" style="mix-blend-mode:screen"/>
<defs>
<radialGradient id="paint0_radial_0_4108" cx="0" cy="0" r="1" gradientUnits="userSpaceOnUse" gradientTransform="translate(18.0001 134.502) rotate(-65.3231) scale(142.515)">
<stop stop-color="#2C66B8"/>
<stop offset="1" stop-color="#082EB4"/>
</radialGradient>
</defs>
</svg>
