<svg width="788" height="738" viewBox="0 0 788 738" fill="none" xmlns="http://www.w3.org/2000/svg">
<g opacity="0.1" clip-path="url(#clip0_0_3477)">
<path d="M383.482 112.57C383.374 112.57 383.267 112.609 383.159 112.609C383.446 112.57 383.697 112.57 383.984 112.532C384.091 112.532 384.199 112.494 384.306 112.494C383.984 112.532 383.733 112.532 383.482 112.57Z" fill="white"/>
<path d="M383.161 112.609C381.154 112.838 379.254 113.143 377.462 113.487C377.749 113.448 378.036 113.448 378.322 113.41C380.079 113.067 381.942 112.762 383.95 112.533C383.699 112.571 383.412 112.571 383.161 112.609Z" fill="white"/>
<path d="M379.001 113.028C378.679 113.067 378.356 113.105 377.998 113.143C378.285 113.105 378.535 113.067 378.822 113.067C379.324 112.99 379.862 112.952 380.399 112.876L379.001 113.028Z" fill="white"/>
<path d="M376.461 113.334C374.418 113.639 372.519 113.982 370.727 114.402C371.013 114.364 371.336 114.326 371.623 114.287C373.379 113.868 375.279 113.525 377.286 113.22C377.035 113.258 376.748 113.296 376.461 113.334Z" fill="white"/>
<path d="M369.287 114.781C368.821 114.896 368.355 115.048 367.925 115.163C368.247 115.125 368.534 115.086 368.857 115.048C369.287 114.934 369.753 114.781 370.219 114.667C369.86 114.705 369.573 114.743 369.287 114.781Z" fill="white"/>
<path d="M366.853 115.47C365.992 115.737 365.168 116.042 364.415 116.347C364.738 116.309 365.061 116.271 365.383 116.233C366.136 115.927 366.96 115.622 367.82 115.355C367.462 115.394 367.139 115.432 366.853 115.47Z" fill="white"/>
<path d="M371.19 114.095C370.151 114.247 369.183 114.438 368.215 114.628C368.502 114.59 368.789 114.552 369.075 114.476C370.222 114.247 371.405 114.056 372.624 113.866L371.19 114.095Z" fill="white"/>
<path d="M366.278 115.01C364.486 115.429 362.801 115.887 361.26 116.383C361.582 116.345 361.869 116.268 362.192 116.23C363.733 115.734 365.382 115.277 367.174 114.857C366.851 114.934 366.565 114.972 366.278 115.01Z" fill="white"/>
<path d="M357.783 116.803C355.883 117.375 354.163 117.986 352.622 118.672C352.944 118.596 353.267 118.558 353.589 118.481C355.131 117.795 356.815 117.185 358.679 116.613C358.392 116.689 358.07 116.765 357.783 116.803Z" fill="white"/>
<path d="M533.449 156.727L532.733 156.155L531.586 155.278C531.98 155.583 532.338 155.85 532.733 156.155C532.984 156.346 533.234 156.537 533.449 156.727Z" fill="white"/>
<path d="M351.546 118.292C350.148 118.75 348.858 119.207 347.675 119.741C347.998 119.665 348.32 119.589 348.607 119.513C349.79 118.979 351.08 118.521 352.442 118.063C352.119 118.14 351.833 118.216 351.546 118.292Z" fill="white"/>
<path d="M346.601 120.237C345.92 120.542 345.31 120.885 344.701 121.266C345.024 121.19 345.346 121.114 345.669 121.037C346.278 120.694 346.888 120.351 347.569 120.046C347.246 120.084 346.923 120.16 346.601 120.237Z" fill="white"/>
<path d="M344.237 121.532C343.807 121.799 343.377 122.104 342.947 122.371C342.624 122.6 342.338 122.829 342.051 123.057C342.373 122.981 342.696 122.905 343.054 122.79C343.341 122.562 343.628 122.333 343.915 122.142C344.309 121.837 344.739 121.57 345.169 121.303C344.882 121.379 344.56 121.456 344.237 121.532Z" fill="white"/>
<path d="M341.546 123.514C339.717 125.154 338.57 126.946 338.104 128.891C338.463 128.777 338.786 128.701 339.144 128.586C339.61 126.68 340.757 124.887 342.585 123.286C342.191 123.324 341.868 123.4 341.546 123.514Z" fill="white"/>
<path d="M541.94 163.822C540.9 162.792 539.717 161.763 538.463 160.733L537.495 159.932C538.821 161.038 540.076 162.106 541.187 163.173C541.438 163.402 541.689 163.631 541.94 163.822Z" fill="white"/>
<path d="M349.615 118.671C347.392 119.243 345.349 119.891 343.521 120.654C343.844 120.578 344.131 120.501 344.453 120.387C346.389 119.624 348.503 118.938 350.833 118.328L349.615 118.671Z" fill="white"/>
<path d="M342.802 120.96C342.121 121.265 341.476 121.57 340.831 121.875C341.153 121.799 341.476 121.684 341.798 121.608C342.408 121.303 343.053 120.998 343.734 120.693C343.411 120.769 343.124 120.884 342.802 120.96Z" fill="white"/>
<path d="M339.432 122.639C338.858 122.982 338.321 123.325 337.819 123.669C338.142 123.592 338.464 123.478 338.787 123.402C339.288 123.058 339.826 122.715 340.4 122.372C340.077 122.448 339.754 122.525 339.432 122.639Z" fill="white"/>
<path d="M336.027 125.04C334.521 126.375 333.482 127.824 332.837 129.35C333.159 129.235 333.518 129.121 333.84 129.006C334.45 127.481 335.525 126.07 336.994 124.735C336.708 124.85 336.349 124.926 336.027 125.04Z" fill="white"/>
<path d="M332.587 130.073C332.48 130.34 332.408 130.645 332.372 130.95C332.73 130.835 333.053 130.721 333.411 130.607C333.483 130.301 333.555 130.035 333.626 129.768C333.268 129.844 332.91 129.958 332.587 130.073Z" fill="white"/>
<path d="M333.663 138.614C334.631 140.559 336.064 142.542 337.928 144.601C338.251 144.448 338.573 144.296 338.896 144.143C337.032 142.122 335.634 140.139 334.666 138.232C334.308 138.347 333.985 138.461 333.663 138.614Z" fill="white"/>
<path d="M553.52 178.464C552.409 174.346 549.04 169.846 543.735 165.27L542.803 164.431C547.284 168.588 550.832 171.905 552.732 177.74C552.983 177.969 553.269 178.197 553.52 178.464Z" fill="white"/>
<path d="M342.8 120.617C342.442 120.731 342.083 120.845 341.725 120.96C342.012 120.884 342.334 120.769 342.621 120.693C343.087 120.54 343.553 120.388 344.055 120.273L342.8 120.617Z" fill="white"/>
<path d="M338.25 122.218C337.319 122.599 336.423 122.981 335.598 123.4C335.921 123.286 336.207 123.21 336.53 123.095C337.354 122.676 338.215 122.294 339.147 121.913C338.86 122.027 338.573 122.104 338.25 122.218Z" fill="white"/>
<path d="M334.951 123.743C333.912 124.277 332.98 124.887 332.119 125.497C331.653 125.84 331.187 126.184 330.757 126.565C331.08 126.451 331.403 126.336 331.725 126.26C332.155 125.917 332.585 125.535 333.051 125.192C333.912 124.582 334.843 124.01 335.847 123.476C335.596 123.552 335.274 123.629 334.951 123.743Z" fill="white"/>
<path d="M328.216 129.424C327.929 129.882 327.678 130.339 327.427 130.797C327.75 130.683 328.108 130.568 328.431 130.454C328.646 129.996 328.897 129.539 329.184 129.081C328.897 129.195 328.574 129.31 328.216 129.424Z" fill="white"/>
<path d="M327.138 131.523C325.095 136.976 328.177 143.421 335.561 150.171C335.884 150.018 336.17 149.828 336.493 149.675C329.181 142.963 326.099 136.595 328.142 131.18C327.819 131.256 327.461 131.409 327.138 131.523Z" fill="white"/>
<path d="M558.177 186.856C558.75 181.784 555.488 175.988 548.965 170.001L548.033 169.124C554.664 175.187 557.997 180.984 557.424 186.093C557.675 186.322 557.926 186.589 558.177 186.856Z" fill="white"/>
<path d="M335.953 122.829C335.809 122.867 335.666 122.905 335.523 122.981C335.809 122.867 336.132 122.791 336.419 122.676C336.669 122.6 336.92 122.485 337.171 122.409L335.953 122.829Z" fill="white"/>
<path d="M332.052 124.354C330.08 125.231 328.324 126.223 326.819 127.291C316.747 134.536 320.044 144.87 333.557 155.738C333.844 155.548 334.166 155.357 334.453 155.204C321.048 144.413 317.786 134.155 327.786 126.986C329.256 125.918 331.012 124.964 332.948 124.087C332.661 124.164 332.338 124.24 332.052 124.354Z" fill="white"/>
<path d="M562.263 188.038C561.152 184.263 560.22 180.983 554.091 174.92L553.159 174.005C557.926 178.657 560.794 183.119 561.511 187.275C561.762 187.542 562.012 187.809 562.263 188.038Z" fill="white"/>
<path d="M329.113 125.348C328.575 125.538 328.073 125.767 327.572 125.958C327.858 125.843 328.181 125.729 328.468 125.615C328.969 125.386 329.471 125.195 330.009 125.004C329.686 125.119 329.4 125.233 329.113 125.348Z" fill="white"/>
<path d="M325.883 126.719C324.951 127.176 324.055 127.634 323.231 128.168C323.554 128.053 323.84 127.939 324.163 127.825C324.987 127.329 325.847 126.871 326.779 126.414C326.493 126.49 326.206 126.604 325.883 126.719Z" fill="white"/>
<path d="M322.192 128.816C321.977 128.969 321.761 129.121 321.582 129.236C311.439 136.519 314.306 146.815 327.245 157.722C327.532 157.531 327.855 157.34 328.141 157.15C315.31 146.32 312.442 136.1 322.514 128.855C322.729 128.702 322.908 128.549 323.123 128.435C322.801 128.588 322.478 128.702 322.192 128.816Z" fill="white"/>
<path d="M566.498 194.332C566.426 189.946 563.881 185.103 559.078 180.07L558.182 179.116C563.057 184.188 565.709 189.069 565.745 193.493C566.032 193.798 566.283 194.065 566.498 194.332Z" fill="white"/>
<path d="M323.231 127.672L321.331 128.511C321.618 128.397 321.94 128.244 322.227 128.13C322.872 127.825 323.589 127.52 324.306 127.253L323.231 127.672Z" fill="white"/>
<path d="M314.594 132.78C305.455 140.941 310.329 152.19 325.921 163.935C326.207 163.745 326.494 163.516 326.781 163.325C311.297 151.695 306.422 140.483 315.526 132.399C315.24 132.475 314.917 132.628 314.594 132.78Z" fill="white"/>
<path d="M570.225 196.579C570.189 196.312 570.117 196.045 570.046 195.778C569.831 195.511 569.58 195.244 569.329 194.978C569.401 195.244 569.472 195.511 569.508 195.778C569.759 196.045 569.974 196.312 570.225 196.579Z" fill="white"/>
<path d="M569.793 194.977C569.542 194.138 569.22 193.338 568.79 192.46C568.575 192.194 568.324 191.927 568.109 191.66C568.503 192.499 568.825 193.338 569.076 194.138C569.327 194.443 569.578 194.71 569.793 194.977Z" fill="white"/>
<path d="M566.746 188.952C565.922 187.77 564.99 186.588 563.915 185.367L563.305 184.681L563.126 184.49C564.237 185.749 565.241 186.969 566.065 188.227C566.316 188.456 566.531 188.685 566.746 188.952Z" fill="white"/>
<path d="M317.246 130.263C316.565 130.568 315.92 130.873 315.275 131.179C315.562 131.026 315.884 130.912 316.171 130.759C316.852 130.416 317.569 130.073 318.322 129.768L317.246 130.263Z" fill="white"/>
<path d="M307.857 136.631C302.803 142.39 303.843 149.444 310.044 157.033C310.366 156.842 310.653 156.652 310.976 156.461C304.811 148.91 303.771 141.894 308.789 136.174C308.502 136.326 308.18 136.479 307.857 136.631Z" fill="white"/>
<path d="M313.484 160.81C315.957 163.25 318.968 165.767 322.408 168.284C322.695 168.055 322.982 167.865 323.269 167.636C319.828 165.119 316.853 162.64 314.38 160.2C314.093 160.429 313.771 160.619 313.484 160.81Z" fill="white"/>
<path d="M573.446 199.02C573.124 198.105 572.73 197.19 572.264 196.274C572.049 196.008 571.834 195.741 571.583 195.474C572.049 196.389 572.443 197.304 572.765 198.219C572.98 198.448 573.195 198.715 573.446 199.02Z" fill="white"/>
<path d="M311.33 133.085C310.756 133.352 310.219 133.619 309.717 133.886C310.004 133.733 310.326 133.581 310.613 133.466C311.186 133.161 311.796 132.856 312.441 132.551L311.33 133.085Z" fill="white"/>
<path d="M302.695 139.149C297.892 144.64 298.43 151.275 303.555 158.445C303.878 158.254 304.164 158.063 304.487 157.873C299.397 150.742 298.824 144.145 303.627 138.691C303.304 138.844 302.982 138.996 302.695 139.149Z" fill="white"/>
<path d="M312.013 167.408C313.304 168.514 314.666 169.62 316.135 170.726C316.422 170.497 316.709 170.306 316.996 170.077C315.526 168.971 314.164 167.866 312.909 166.798C312.623 166.989 312.336 167.179 312.013 167.408Z" fill="white"/>
<path d="M577.461 204.7C577.102 203.404 576.601 202.107 575.884 200.734C575.669 200.468 575.454 200.201 575.239 199.896C575.92 201.23 576.457 202.527 576.816 203.823C576.995 204.166 577.246 204.433 577.461 204.7Z" fill="white"/>
<path d="M305.416 136.061C304.986 136.29 304.52 136.518 304.126 136.747C304.412 136.595 304.699 136.442 304.986 136.29C305.452 136.023 305.954 135.756 306.491 135.489L305.416 136.061Z" fill="white"/>
<path d="M299.427 140.026C292.689 145.898 292.617 153.296 298.173 161.304C298.46 161.113 298.782 160.885 299.069 160.694C293.513 152.724 293.585 145.364 300.323 139.53C300.001 139.682 299.714 139.873 299.427 140.026Z" fill="white"/>
<path d="M298.605 161.953C298.82 162.258 299.035 162.563 299.286 162.83C299.573 162.639 299.896 162.411 300.182 162.22C299.967 161.915 299.716 161.648 299.537 161.343C299.215 161.533 298.928 161.724 298.605 161.953Z" fill="white"/>
<path d="M313.123 175.605C314.054 176.291 315.022 176.94 315.99 177.626C316.277 177.397 316.528 177.168 316.814 176.94C315.847 176.253 314.879 175.605 313.947 174.918C313.696 175.185 313.409 175.376 313.123 175.605Z" fill="white"/>
<path d="M581.123 209.926C580.872 208.858 580.513 207.79 580.011 206.723C579.796 206.456 579.581 206.151 579.402 205.884C579.868 206.952 580.262 208.019 580.513 209.087C580.692 209.354 580.908 209.621 581.123 209.926Z" fill="white"/>
<path d="M299.577 139.263C298.717 139.721 297.928 140.217 297.175 140.712C297.462 140.56 297.749 140.369 298.036 140.217C298.86 139.683 299.684 139.187 300.616 138.691L299.577 139.263Z" fill="white"/>
<path d="M295.778 141.705C287.247 148.15 287.068 156.501 293.806 165.615C294.093 165.386 294.416 165.196 294.702 164.967C288 155.891 288.179 147.578 296.674 141.209C296.387 141.362 296.064 141.553 295.778 141.705Z" fill="white"/>
<path d="M584.488 214.579C584.309 213.816 584.058 213.053 583.736 212.253C583.52 211.947 583.341 211.681 583.126 211.375C583.449 212.138 583.7 212.901 583.879 213.664C584.094 214.007 584.309 214.274 584.488 214.579Z" fill="white"/>
<path d="M293.806 142.658C293.053 143.116 292.336 143.573 291.655 144.069C291.942 143.878 292.228 143.726 292.515 143.535C293.232 143.001 294.021 142.505 294.845 142.048L293.806 142.658Z" fill="white"/>
<path d="M290.935 144.603C282.153 151.238 281.938 159.819 288.891 169.199C289.178 168.971 289.465 168.78 289.788 168.551C282.87 159.208 283.085 150.666 291.831 144.069C291.508 144.222 291.221 144.413 290.935 144.603Z" fill="white"/>
<path d="M584.882 212.976C584.631 212.557 584.344 212.137 584.057 211.718L583.376 210.688C583.699 211.146 584.021 211.641 584.308 212.099C584.523 212.404 584.703 212.709 584.882 212.976Z" fill="white"/>
<path d="M288.107 146.281C287.605 146.586 287.139 146.891 286.709 147.234C277.784 153.64 276.924 161.915 282.766 170.991C283.053 170.762 283.34 170.534 283.627 170.305C277.784 161.267 278.644 153.03 287.534 146.662C288.035 146.281 288.573 145.937 289.111 145.594L288.107 146.281Z" fill="white"/>
<path d="M283.088 171.488C283.554 172.174 284.055 172.899 284.593 173.585C284.88 173.356 285.166 173.127 285.453 172.899C284.916 172.212 284.414 171.488 283.948 170.801C283.697 171.068 283.41 171.297 283.088 171.488Z" fill="white"/>
<path d="M588.143 218.125C587.999 217.896 587.856 217.667 587.712 217.438L587.067 216.409L587.605 217.248C587.784 217.515 587.963 217.82 588.143 218.125Z" fill="white"/>
<path d="M282.479 150.095C282.336 150.209 282.193 150.285 282.049 150.4C280.185 151.734 278.644 153.145 277.461 154.671C277.748 154.48 278.035 154.251 278.321 154.061C279.504 152.573 281.01 151.162 282.874 149.828C283.089 149.675 283.268 149.523 283.483 149.408L282.479 150.095Z" fill="white"/>
<path d="M276.204 156.385C272.548 162.41 273.874 169.464 279.537 176.977C279.824 176.748 280.111 176.519 280.398 176.29C274.77 168.816 273.444 161.799 277.1 155.812C276.778 155.965 276.491 156.194 276.204 156.385Z" fill="white"/>
<path d="M591.513 223.808C591.406 223.618 591.298 223.465 591.226 223.274L590.617 222.207C590.761 222.435 590.868 222.664 591.011 222.893C591.191 223.198 591.334 223.503 591.513 223.808Z" fill="white"/>
<path d="M277.106 153.945C267.106 161.381 267.178 171.105 275.565 181.745C275.852 181.516 276.103 181.249 276.389 181.02C268.002 170.381 267.966 160.657 278.074 153.259L277.106 153.945Z" fill="white"/>
<path d="M595.668 231.473C595.345 230.748 594.987 229.986 594.557 229.261L593.947 228.193C594.413 228.994 594.807 229.795 595.13 230.558C595.345 230.863 595.488 231.168 595.668 231.473Z" fill="white"/>
<path d="M271.943 157.911C270.94 158.711 270.044 159.512 269.255 160.351C269.542 160.122 269.793 159.932 270.079 159.703C270.904 158.826 271.836 157.987 272.875 157.186L271.943 157.911Z" fill="white"/>
<path d="M268.467 161.189C268.037 161.685 267.643 162.219 267.284 162.753C267.571 162.524 267.822 162.333 268.109 162.104C268.467 161.571 268.862 161.075 269.292 160.541C269.041 160.77 268.754 160.96 268.467 161.189Z" fill="white"/>
<path d="M266.817 163.478C262.695 170.342 264.738 178.465 272.05 187.121C272.301 186.854 272.587 186.625 272.874 186.359C265.598 177.74 263.555 169.656 267.641 162.792C267.39 163.059 267.103 163.288 266.817 163.478Z" fill="white"/>
<path d="M598.471 236.887C598.256 236.391 598.005 235.857 597.754 235.362L597.181 234.256C597.468 234.828 597.754 235.4 598.005 235.972C598.149 236.239 598.328 236.582 598.471 236.887Z" fill="white"/>
<path d="M266.888 162.029C266.099 162.678 265.418 163.326 264.773 164.012C265.024 163.783 265.311 163.555 265.562 163.326C266.243 162.601 266.959 161.915 267.784 161.267L266.888 162.029Z" fill="white"/>
<path d="M264.165 164.663C263.484 165.464 262.911 166.265 262.373 167.065C262.66 166.837 262.911 166.608 263.197 166.379C263.699 165.578 264.273 164.777 264.954 163.977C264.703 164.205 264.416 164.434 264.165 164.663Z" fill="white"/>
<path d="M261.866 167.941C258.139 174.957 260.504 183.194 268.067 191.927C268.318 191.66 268.605 191.393 268.855 191.164C261.293 182.47 258.927 174.271 262.655 167.292C262.404 167.483 262.153 167.712 261.866 167.941Z" fill="white"/>
<path d="M600.859 241.768C600.788 241.615 600.717 241.463 600.646 241.31L600.15 240.243C600.256 240.433 600.327 240.624 600.398 240.815C600.575 241.12 600.717 241.463 600.859 241.768Z" fill="white"/>
<path d="M261.907 166.301C252.373 174.766 254.057 185.711 264.882 197.532C265.132 197.265 265.383 196.998 265.634 196.731C254.81 184.91 253.161 173.966 262.767 165.5L261.907 166.301Z" fill="white"/>
<path d="M603.408 247.375C603.372 247.299 603.337 247.261 603.337 247.184L602.876 246.117C602.911 246.193 602.947 246.307 602.982 246.384C603.124 246.727 603.266 247.07 603.408 247.375Z" fill="white"/>
<path d="M257.136 170.686C247.925 179.342 249.896 190.439 261.007 202.375C261.258 202.108 261.509 201.841 261.76 201.536C250.649 189.6 248.678 178.465 257.961 169.847L257.136 170.686Z" fill="white"/>
<path d="M606.023 253.512C605.987 253.398 605.952 253.322 605.881 253.207L605.455 252.102C605.526 252.254 605.562 252.369 605.633 252.521C605.739 252.826 605.881 253.169 606.023 253.512Z" fill="white"/>
<path d="M252.476 175.187C243.73 183.843 245.773 194.825 256.598 206.647C256.849 206.38 257.099 206.075 257.314 205.808C246.454 193.986 244.483 182.966 253.264 174.348L252.476 175.187Z" fill="white"/>
<path d="M247.925 179.837C239.681 188.493 241.724 199.361 252.298 211.03C252.549 210.725 252.764 210.458 253.014 210.153C242.441 198.484 240.434 187.578 248.749 178.959L247.925 179.837Z" fill="white"/>
<path d="M242.655 185.634C236.167 193.757 238.067 203.671 247.028 214.311C247.243 214.006 247.494 213.739 247.709 213.434C238.748 202.833 236.848 192.956 243.336 184.833C243.121 185.1 242.906 185.367 242.655 185.634Z" fill="white"/>
<path d="M237.389 192.078C233.052 199.094 234.449 207.293 240.758 216.026C240.973 215.721 241.224 215.454 241.439 215.149C235.13 206.416 233.768 198.255 238.07 191.277C237.854 191.506 237.604 191.811 237.389 192.078Z" fill="white"/>
<path d="M241.507 217.019C241.973 217.629 242.474 218.239 242.976 218.85C243.191 218.544 243.442 218.239 243.657 217.972C243.155 217.362 242.654 216.752 242.188 216.142C241.937 216.409 241.722 216.714 241.507 217.019Z" fill="white"/>
<path d="M233.625 196.655C233.231 197.303 232.872 197.951 232.586 198.6C232.801 198.333 233.052 198.028 233.267 197.761C233.553 197.112 233.912 196.464 234.306 195.816C234.091 196.083 233.84 196.388 233.625 196.655Z" fill="white"/>
<path d="M231.369 202.375C231.226 203.137 231.118 203.9 231.082 204.701C231.297 204.396 231.548 204.129 231.763 203.824C231.799 203.023 231.907 202.26 232.05 201.498C231.835 201.803 231.584 202.108 231.369 202.375Z" fill="white"/>
<path d="M231.115 206.455C231.366 210.878 233.266 215.607 236.707 220.488C236.922 220.183 237.137 219.878 237.388 219.573C233.947 214.692 232.047 210.001 231.796 205.578C231.545 205.883 231.33 206.15 231.115 206.455Z" fill="white"/>
<path d="M237.457 221.554C237.851 222.05 238.245 222.583 238.639 223.079C238.855 222.774 239.07 222.469 239.285 222.164C238.89 221.668 238.496 221.134 238.102 220.639C237.887 220.944 237.672 221.249 237.457 221.554Z" fill="white"/>
<path d="M231.044 199.82C230.865 200.049 230.686 200.316 230.506 200.545C230.721 200.24 230.936 199.973 231.151 199.668C231.331 199.401 231.546 199.134 231.725 198.867L231.044 199.82Z" fill="white"/>
<path d="M230.005 201.345C229.682 201.841 229.395 202.336 229.144 202.87C229.36 202.565 229.575 202.298 229.79 201.993C230.041 201.497 230.327 200.964 230.65 200.468C230.435 200.735 230.22 201.04 230.005 201.345Z" fill="white"/>
<path d="M227.745 213.931C228.426 217.515 230.11 221.214 232.763 225.066C232.978 224.761 233.193 224.456 233.408 224.151C230.791 220.337 229.107 216.6 228.39 213.054C228.175 213.359 227.96 213.626 227.745 213.931Z" fill="white"/>
<path d="M233.447 226.019C233.949 226.743 234.487 227.43 235.06 228.154C235.275 227.849 235.49 227.544 235.705 227.239C235.132 226.515 234.594 225.828 234.092 225.104C233.877 225.409 233.662 225.714 233.447 226.019Z" fill="white"/>
<path d="M227.173 205.119C227.066 205.272 226.958 205.424 226.85 205.615C227.066 205.31 227.281 205.043 227.46 204.738C227.603 204.547 227.711 204.357 227.854 204.166L227.173 205.119Z" fill="white"/>
<path d="M226.384 206.303C226.169 206.684 225.954 207.066 225.739 207.447C225.954 207.142 226.169 206.875 226.384 206.57C226.599 206.188 226.814 205.807 227.029 205.426C226.814 205.731 226.599 205.998 226.384 206.303Z" fill="white"/>
<path d="M224.2 219.002C224.845 222.32 226.351 225.79 228.681 229.336C228.896 229.031 229.111 228.726 229.29 228.421C226.996 224.875 225.455 221.443 224.81 218.125C224.63 218.392 224.415 218.697 224.2 219.002Z" fill="white"/>
<path d="M229.935 231.165C230.186 231.508 230.437 231.851 230.688 232.194C230.903 231.889 231.082 231.584 231.297 231.241C231.046 230.898 230.796 230.555 230.545 230.211C230.365 230.555 230.15 230.86 229.935 231.165Z" fill="white"/>
<path d="M220.898 224.761C221.507 227.354 222.618 230.062 224.196 232.808C224.411 232.502 224.59 232.159 224.805 231.854C223.192 229.109 222.117 226.439 221.507 223.846C221.292 224.151 221.113 224.456 220.898 224.761Z" fill="white"/>
<path d="M225.706 235.17C226.064 235.704 226.423 236.2 226.817 236.734C227.032 236.429 227.211 236.085 227.426 235.78C227.032 235.246 226.674 234.751 226.315 234.217C226.1 234.522 225.885 234.827 225.706 235.17Z" fill="white"/>
<path d="M219.863 216.102C219.648 216.446 219.433 216.789 219.253 217.132C219.433 216.827 219.648 216.522 219.827 216.217C220.042 215.835 220.257 215.454 220.472 215.111L219.863 216.102Z" fill="white"/>
<path d="M218.388 218.887C218.101 219.536 217.886 220.222 217.707 220.87C217.886 220.565 218.101 220.26 218.281 219.955C218.46 219.269 218.711 218.62 218.962 217.972C218.782 218.277 218.603 218.582 218.388 218.887Z" fill="white"/>
<path d="M217.39 222.282C217.247 223.083 217.139 223.884 217.103 224.723C217.282 224.417 217.498 224.112 217.677 223.769C217.713 222.93 217.82 222.129 217.964 221.329C217.784 221.634 217.569 221.939 217.39 222.282Z" fill="white"/>
<path d="M217.672 230.329C218.209 232.579 219.141 234.905 220.432 237.269C220.611 236.964 220.826 236.621 221.005 236.316C219.715 233.951 218.783 231.663 218.245 229.414C218.066 229.681 217.851 229.986 217.672 230.329Z" fill="white"/>
<path d="M214.199 227.507C213.984 228.689 213.877 229.871 213.877 231.091C214.056 230.786 214.235 230.443 214.45 230.138C214.45 228.917 214.522 227.735 214.773 226.591C214.594 226.858 214.415 227.201 214.199 227.507Z" fill="white"/>
<path d="M214.266 234.558C214.839 237.456 216.022 240.43 217.814 243.519C217.994 243.176 218.173 242.871 218.388 242.528C216.596 239.477 215.413 236.465 214.875 233.604C214.66 233.91 214.445 234.253 214.266 234.558Z" fill="white"/>
<path d="M211.006 233.835C210.468 237.877 211.328 242.148 213.515 246.571C213.694 246.228 213.873 245.923 214.052 245.58C211.902 241.118 211.042 236.885 211.543 232.843C211.364 233.186 211.185 233.53 211.006 233.835Z" fill="white"/>
<path d="M208.752 236.431C208.537 237.117 208.358 237.842 208.25 238.566C208.43 238.223 208.609 237.918 208.752 237.575C208.896 236.85 209.039 236.164 209.254 235.439C209.075 235.783 208.896 236.126 208.752 236.431Z" fill="white"/>
<path d="M208.072 239.634C207.714 242.722 208.18 245.926 209.399 249.243C209.578 248.9 209.757 248.557 209.9 248.252C208.682 244.934 208.252 241.731 208.574 238.642C208.431 238.947 208.252 239.29 208.072 239.634Z" fill="white"/>
<path d="M206.098 241.651C205.346 243.939 205.095 246.341 205.274 248.782C205.453 248.439 205.597 248.095 205.776 247.752C205.561 245.312 205.847 242.909 206.6 240.621C206.421 241.002 206.242 241.308 206.098 241.651Z" fill="white"/>
<path d="M203.483 247.296C203.089 248.44 202.838 249.622 202.695 250.843C202.838 250.499 203.017 250.156 203.161 249.813C203.304 248.593 203.555 247.411 203.949 246.267C203.77 246.61 203.627 246.953 203.483 247.296Z" fill="white"/>
<path d="M201.118 252.751C200.795 253.705 200.544 254.696 200.365 255.688C200.509 255.344 200.652 255.001 200.795 254.658C200.975 253.666 201.225 252.675 201.548 251.722C201.405 252.065 201.261 252.408 201.118 252.751Z" fill="white"/>
<path d="M199 258.088C198.713 258.812 198.498 259.537 198.319 260.262C198.462 259.918 198.606 259.537 198.713 259.194C198.892 258.431 199.143 257.668 199.43 256.906L199 258.088Z" fill="white"/>
<path d="M619.045 370.432C619.332 370.089 619.583 369.746 619.834 369.402C619.87 369.021 619.87 368.64 619.905 368.258C619.655 368.602 619.368 368.945 619.117 369.288C619.081 369.631 619.081 370.012 619.045 370.432Z" fill="white"/>
<path d="M618.075 397.81C618.326 397.238 618.577 396.666 618.756 396.056C618.828 395.675 618.899 395.293 618.971 394.912C618.756 395.484 618.541 396.094 618.29 396.666C618.218 397.048 618.147 397.429 618.075 397.81Z" fill="white"/>
<path d="M616.319 405.095C616.606 404.523 616.893 403.951 617.108 403.341C617.179 402.959 617.287 402.578 617.359 402.197C617.108 402.769 616.857 403.379 616.57 403.951C616.463 404.332 616.391 404.714 616.319 405.095Z" fill="white"/>
<path d="M613.232 413.94C613.698 413.292 614.092 412.643 614.486 411.995C614.594 411.614 614.665 411.232 614.773 410.851C614.414 411.499 613.984 412.148 613.518 412.796C613.411 413.177 613.303 413.559 613.232 413.94Z" fill="white"/>
<path d="M615.382 410.125C615.704 409.4 615.955 408.676 616.17 407.951C616.278 407.57 616.349 407.188 616.457 406.807C616.242 407.532 615.991 408.256 615.669 408.981C615.561 409.4 615.489 409.782 615.382 410.125Z" fill="white"/>
<path d="M610.008 422.101C610.331 421.72 610.689 421.339 610.976 420.919C611.083 420.538 611.191 420.195 611.298 419.813C610.976 420.195 610.653 420.614 610.331 420.996C610.223 421.339 610.116 421.72 610.008 422.101Z" fill="white"/>
<path d="M611.372 420.386C611.623 420.043 611.874 419.699 612.089 419.356C612.197 418.975 612.304 418.594 612.412 418.25C612.197 418.594 611.946 418.937 611.695 419.28C611.587 419.661 611.48 420.043 611.372 420.386Z" fill="white"/>
<path d="M607.176 429.309C607.892 428.585 608.573 427.822 609.147 427.059C609.255 426.678 609.362 426.335 609.47 425.954C608.86 426.716 608.215 427.479 607.498 428.203C607.391 428.585 607.283 428.966 607.176 429.309Z" fill="white"/>
<path d="M612.337 421.416L612.586 420.653L612.834 419.89L612.976 419.471L612.692 420.31C612.55 420.691 612.444 421.034 612.337 421.416Z" fill="white"/>
<path d="M596.494 450.702L597.497 449.978C597.641 449.635 597.784 449.291 597.927 448.948C597.605 449.177 597.282 449.444 596.924 449.673C596.745 450.016 596.637 450.359 596.494 450.702Z" fill="white"/>
<path d="M594.094 456.383C594.273 456.269 594.452 456.154 594.595 456.002C594.739 455.659 594.882 455.315 595.025 454.972C594.846 455.087 594.703 455.239 594.524 455.353C594.38 455.697 594.237 456.04 594.094 456.383Z" fill="white"/>
<path d="M594.599 459.55C595.101 459.092 595.567 458.673 595.997 458.215C596.14 457.872 596.319 457.529 596.463 457.224C596.033 457.681 595.567 458.139 595.065 458.558C594.921 458.863 594.742 459.207 594.599 459.55Z" fill="white"/>
<path d="M590.549 466.184C591.373 465.536 592.126 464.85 592.843 464.163C593.022 463.82 593.166 463.515 593.345 463.172C592.628 463.858 591.875 464.545 591.051 465.193C590.871 465.498 590.728 465.841 590.549 466.184Z" fill="white"/>
<path d="M563.733 506.379C564.091 506.112 564.485 505.807 564.808 505.501C565.023 505.235 565.274 504.968 565.489 504.701C565.13 505.006 564.772 505.273 564.414 505.578C564.163 505.845 563.948 506.112 563.733 506.379Z" fill="white"/>
<path d="M559.215 511.295C559.968 510.761 560.685 510.189 561.33 509.655C561.545 509.388 561.796 509.121 562.011 508.854C561.366 509.426 560.649 509.96 559.896 510.494C559.681 510.799 559.466 511.066 559.215 511.295Z" fill="white"/>
<path d="M556.03 515.072C556.89 514.424 557.678 513.737 558.395 513.051C558.646 512.784 558.861 512.555 559.112 512.288C558.395 512.974 557.571 513.661 556.711 514.309C556.531 514.538 556.28 514.805 556.03 515.072Z" fill="white"/>
<path d="M380.609 119.932C381.505 120.161 382.401 119.551 382.616 118.598C382.831 117.644 382.258 116.691 381.362 116.462C380.465 116.233 379.569 116.844 379.354 117.797C379.175 118.75 379.713 119.704 380.609 119.932Z" fill="white"/>
<path d="M441.257 246.534C442.153 246.763 443.049 246.153 443.264 245.2C443.479 244.246 442.906 243.293 442.01 243.064C441.114 242.835 440.218 243.446 440.003 244.399C439.824 245.352 440.361 246.306 441.257 246.534Z" fill="white"/>
<path d="M542.118 396.515C543.014 396.744 543.91 396.134 544.125 395.18C544.34 394.227 543.767 393.274 542.871 393.045C541.975 392.816 541.079 393.426 540.864 394.379C540.649 395.333 541.222 396.286 542.118 396.515Z" fill="white"/>
<path d="M454.589 216.639C455.486 216.868 456.382 216.258 456.597 215.305C456.812 214.351 456.238 213.398 455.342 213.169C454.446 212.94 453.55 213.551 453.335 214.504C453.156 215.457 453.693 216.411 454.589 216.639Z" fill="white"/>
<path d="M584.123 349.42C585.019 349.649 585.915 349.039 586.13 348.085C586.345 347.132 585.771 346.179 584.875 345.95C583.979 345.721 583.083 346.331 582.868 347.285C582.689 348.238 583.227 349.191 584.123 349.42Z" fill="white"/>
<path d="M666.774 423.629C667.67 423.858 668.567 423.248 668.782 422.294C668.997 421.341 668.423 420.388 667.527 420.159C666.631 419.93 665.735 420.54 665.52 421.494C665.34 422.447 665.878 423.4 666.774 423.629Z" fill="white"/>
<path d="M427.849 141.019C428.745 141.248 429.641 140.638 429.856 139.685C430.071 138.731 429.498 137.778 428.602 137.549C427.706 137.32 426.81 137.93 426.595 138.884C426.415 139.837 426.953 140.79 427.849 141.019Z" fill="white"/>
<path d="M352.689 356.473C353.585 356.702 354.481 356.091 354.696 355.138C354.911 354.185 354.337 353.232 353.441 353.003C352.545 352.774 351.649 353.384 351.434 354.337C351.255 355.291 351.793 356.244 352.689 356.473Z" fill="white"/>
<path d="M482.512 463.858C483.408 464.086 484.304 463.476 484.52 462.523C484.735 461.57 484.161 460.616 483.265 460.387C482.369 460.159 481.473 460.769 481.258 461.722C481.079 462.676 481.616 463.629 482.512 463.858Z" fill="white"/>
<path d="M157.098 3.50902C157.994 3.73782 158.89 3.12769 159.105 2.17435C159.32 1.221 158.747 0.267664 157.85 0.0388628C156.954 -0.189939 156.058 0.420199 155.843 1.37354C155.664 2.32688 156.202 3.28022 157.098 3.50902Z" fill="white"/>
<path d="M149.284 92.1711C150.18 92.3999 151.076 91.7898 151.291 90.8365C151.506 89.8831 150.933 88.9298 150.037 88.701C149.141 88.4722 148.245 89.0823 148.03 90.0356C147.815 90.989 148.388 91.9423 149.284 92.1711Z" fill="white"/>
<path d="M369.647 183.575C370.543 183.804 371.439 183.194 371.654 182.241C371.869 181.287 371.296 180.334 370.4 180.105C369.504 179.876 368.608 180.487 368.393 181.44C368.178 182.393 368.751 183.347 369.647 183.575Z" fill="white"/>
<path d="M140.287 182.243C141.183 182.472 142.079 181.862 142.294 180.909C142.509 179.955 141.936 179.002 141.04 178.773C140.144 178.544 139.248 179.155 139.033 180.108C138.818 181.061 139.391 182.015 140.287 182.243Z" fill="white"/>
<path d="M102.473 262.054C103.369 262.283 104.265 261.673 104.48 260.72C104.696 259.766 104.122 258.813 103.226 258.584C102.33 258.355 101.434 258.966 101.219 259.919C101.004 260.872 101.577 261.826 102.473 262.054Z" fill="white"/>
<path d="M190.324 163.746C191.22 163.975 192.116 163.365 192.331 162.412C192.546 161.458 191.972 160.505 191.076 160.276C190.18 160.047 189.284 160.658 189.069 161.611C188.89 162.564 189.428 163.518 190.324 163.746Z" fill="white"/>
<path d="M198.674 113.982C199.571 114.211 200.467 113.601 200.682 112.647C200.897 111.694 200.323 110.741 199.427 110.512C198.531 110.283 197.635 110.893 197.42 111.847C197.205 112.8 197.778 113.753 198.674 113.982Z" fill="white"/>
<path d="M214.333 139.378C215.229 139.607 216.125 138.997 216.34 138.043C216.555 137.09 215.982 136.137 215.085 135.908C214.189 135.679 213.293 136.289 213.078 137.243C212.899 138.196 213.437 139.149 214.333 139.378Z" fill="white"/>
<path d="M156.557 241.044C157.453 241.272 158.349 240.662 158.564 239.709C158.779 238.756 158.206 237.802 157.31 237.574C156.414 237.345 155.518 237.955 155.303 238.908C155.123 239.862 155.661 240.815 156.557 241.044Z" fill="white"/>
<path d="M559.178 280.322C560.075 280.551 560.971 279.941 561.186 278.987C561.401 278.034 560.827 277.081 559.931 276.852C559.035 276.623 558.139 277.233 557.924 278.187C557.745 279.14 558.282 280.093 559.178 280.322Z" fill="white"/>
<path d="M425.773 234.864C426.669 235.093 427.565 234.483 427.78 233.529C427.995 232.576 427.422 231.623 426.526 231.394C425.63 231.165 424.734 231.775 424.519 232.729C424.304 233.682 424.877 234.635 425.773 234.864Z" fill="white"/>
<path d="M510.827 178.845C511.723 179.074 512.619 178.464 512.834 177.511C513.049 176.557 512.476 175.604 511.579 175.375C510.683 175.146 509.787 175.757 509.572 176.71C509.393 177.663 509.931 178.617 510.827 178.845Z" fill="white"/>
<path d="M306.739 162.984C307.635 163.213 308.531 162.603 308.747 161.649C308.962 160.696 308.388 159.743 307.492 159.514C306.596 159.285 305.7 159.895 305.485 160.849C305.306 161.802 305.843 162.755 306.739 162.984Z" fill="white"/>
<path d="M35.3394 229.985C36.2355 230.213 37.1315 229.603 37.3466 228.65C37.5616 227.697 36.9882 226.743 36.0921 226.514C35.196 226.286 34.3 226.896 34.0849 227.849C33.8699 228.802 34.4433 229.756 35.3394 229.985Z" fill="white"/>
<path d="M638.569 243.293C639.465 243.521 640.361 242.911 640.576 241.958C640.791 241.005 640.217 240.051 639.321 239.823C638.425 239.594 637.529 240.204 637.314 241.157C637.135 242.111 637.673 243.064 638.569 243.293Z" fill="white"/>
<path d="M387.135 356.932C388.031 357.161 388.927 356.55 389.142 355.597C389.357 354.644 388.784 353.691 387.887 353.462C386.991 353.233 386.095 353.843 385.88 354.796C385.701 355.75 386.239 356.703 387.135 356.932Z" fill="white"/>
<path d="M127.523 324.862C128.42 325.091 129.316 324.481 129.531 323.527C129.746 322.574 129.172 321.621 128.276 321.392C127.38 321.163 126.484 321.773 126.269 322.727C126.054 323.68 126.627 324.633 127.523 324.862Z" fill="white"/>
<path d="M251.506 305.987C252.402 306.215 253.298 305.605 253.513 304.652C253.728 303.699 253.155 302.745 252.259 302.516C251.363 302.288 250.467 302.898 250.251 303.851C250.036 304.804 250.61 305.758 251.506 305.987Z" fill="white"/>
<path d="M216.842 311.019C217.739 311.248 218.635 310.637 218.85 309.684C219.065 308.731 218.491 307.777 217.595 307.549C216.699 307.32 215.803 307.93 215.588 308.883C215.373 309.837 215.946 310.79 216.842 311.019Z" fill="white"/>
<path d="M189.784 198.6C190.68 198.829 191.576 198.218 191.791 197.265C192.006 196.312 191.433 195.358 190.536 195.13C189.64 194.901 188.744 195.511 188.529 196.464C188.314 197.418 188.888 198.371 189.784 198.6Z" fill="white"/>
<path d="M304.267 404.673C305.163 404.902 306.059 404.292 306.274 403.338C306.489 402.385 305.915 401.432 305.019 401.203C304.123 400.974 303.227 401.584 303.012 402.538C302.797 403.491 303.371 404.444 304.267 404.673Z" fill="white"/>
<path d="M266.131 393.311C267.027 393.54 267.923 392.93 268.138 391.976C268.353 391.023 267.78 390.069 266.884 389.841C265.988 389.612 265.092 390.222 264.877 391.175C264.697 392.129 265.235 393.082 266.131 393.311Z" fill="white"/>
<path d="M334.95 294.087C335.846 294.316 336.742 293.705 336.957 292.752C337.172 291.799 336.599 290.845 335.703 290.617C334.807 290.388 333.911 290.998 333.696 291.951C333.516 292.905 334.054 293.858 334.95 294.087Z" fill="white"/>
<path d="M192.648 390.91C193.544 391.139 194.44 390.529 194.655 389.575C194.87 388.622 194.297 387.669 193.401 387.44C192.505 387.211 191.609 387.821 191.393 388.774C191.214 389.728 191.752 390.681 192.648 390.91Z" fill="white"/>
<path d="M303.228 304.461C304.124 304.69 305.02 304.08 305.235 303.126C305.45 302.173 304.876 301.22 303.98 300.991C303.084 300.762 302.188 301.372 301.973 302.326C301.794 303.279 302.331 304.232 303.228 304.461Z" fill="white"/>
<path d="M96.8821 367.381C97.7782 367.609 98.6743 366.999 98.8894 366.046C99.1044 365.093 98.5309 364.139 97.6349 363.91C96.7388 363.682 95.8427 364.292 95.6276 365.245C95.4126 366.198 95.9861 367.152 96.8821 367.381Z" fill="white"/>
<path d="M463.013 372.413C463.909 372.642 464.805 372.032 465.02 371.078C465.235 370.125 464.662 369.171 463.766 368.943C462.87 368.714 461.974 369.324 461.758 370.277C461.579 371.231 462.117 372.184 463.013 372.413Z" fill="white"/>
<path d="M76.309 310.828C77.2051 311.057 78.1011 310.447 78.3162 309.494C78.5313 308.54 77.9578 307.587 77.0617 307.358C76.1656 307.129 75.2695 307.74 75.0545 308.693C74.8394 309.646 75.4129 310.599 76.309 310.828Z" fill="white"/>
<path d="M267.524 430.224C268.42 430.453 269.316 429.843 269.531 428.889C269.746 427.936 269.173 426.983 268.277 426.754C267.38 426.525 266.484 427.135 266.269 428.088C266.054 429.08 266.628 430.033 267.524 430.224Z" fill="white"/>
<path d="M374.409 440.027C375.305 440.255 376.201 439.645 376.416 438.692C376.631 437.739 376.058 436.785 375.162 436.556C374.266 436.328 373.37 436.938 373.154 437.891C372.975 438.844 373.513 439.798 374.409 440.027Z" fill="white"/>
<path d="M338.46 433.846C339.356 434.075 340.252 433.465 340.467 432.511C340.682 431.558 340.108 430.605 339.212 430.376C338.316 430.147 337.42 430.757 337.205 431.71C337.026 432.664 337.563 433.617 338.46 433.846Z" fill="white"/>
<path d="M380.65 233.151C381.546 233.379 382.442 232.769 382.657 231.816C382.872 230.863 382.299 229.909 381.403 229.68C380.507 229.452 379.611 230.062 379.396 231.015C379.181 231.968 379.754 232.922 380.65 233.151Z" fill="white"/>
<path d="M300.606 216.296C301.502 216.525 302.398 215.915 302.613 214.961C302.828 214.008 302.255 213.055 301.359 212.826C300.463 212.597 299.566 213.207 299.351 214.161C299.136 215.114 299.71 216.067 300.606 216.296Z" fill="white"/>
<path d="M249.246 187.047C250.143 187.276 251.039 186.666 251.254 185.712C251.469 184.759 250.895 183.806 249.999 183.577C249.103 183.348 248.207 183.958 247.992 184.912C247.813 185.865 248.35 186.818 249.246 187.047Z" fill="white"/>
<path d="M221.865 230.097C222.761 230.326 223.657 229.716 223.872 228.763C224.087 227.809 223.514 226.856 222.618 226.627C221.722 226.398 220.826 227.009 220.611 227.962C220.396 228.915 220.969 229.869 221.865 230.097Z" fill="white"/>
<path d="M342.976 173.661C342.761 174.614 343.335 175.567 344.231 175.796C345.127 176.025 346.023 175.415 346.238 174.461C346.453 173.508 345.879 172.555 344.983 172.326C344.087 172.097 343.191 172.707 342.976 173.661Z" fill="white"/>
<path d="M516.453 257.67C517.349 257.898 518.245 257.288 518.46 256.335C518.675 255.382 518.102 254.428 517.206 254.2C516.31 253.971 515.414 254.581 515.199 255.534C515.019 256.488 515.557 257.441 516.453 257.67Z" fill="white"/>
<path d="M400.364 161.877C401.26 162.105 402.156 161.495 402.371 160.542C402.586 159.589 402.013 158.635 401.117 158.407C400.221 158.178 399.325 158.788 399.11 159.741C398.895 160.695 399.468 161.648 400.364 161.877Z" fill="white"/>
<path d="M427.744 195.092C428.64 195.321 429.536 194.711 429.751 193.758C429.966 192.804 429.393 191.851 428.496 191.622C427.6 191.394 426.704 192.004 426.489 192.957C426.274 193.948 426.848 194.902 427.744 195.092Z" fill="white"/>
<path d="M438.678 297.062C439.574 297.291 440.47 296.681 440.685 295.728C440.9 294.774 440.326 293.821 439.43 293.592C438.534 293.363 437.638 293.973 437.423 294.927C437.244 295.88 437.782 296.833 438.678 297.062Z" fill="white"/>
<path d="M385.846 326.387C386.742 326.616 387.639 326.006 387.854 325.053C388.069 324.099 387.495 323.146 386.599 322.917C385.703 322.688 384.807 323.299 384.592 324.252C384.413 325.205 384.95 326.159 385.846 326.387Z" fill="white"/>
<path d="M1.28747 367.495C2.18354 367.724 3.0796 367.114 3.29466 366.16C3.50971 365.207 2.93623 364.254 2.04017 364.025C1.1441 363.796 0.248036 364.406 0.0329799 365.359C-0.182076 366.313 0.391406 367.266 1.28747 367.495Z" fill="white"/>
<path d="M190.283 214.504C191.179 214.732 192.075 214.122 192.29 213.169C192.505 212.216 191.932 211.262 191.036 211.033C190.14 210.805 189.244 211.415 189.029 212.368C188.85 213.322 189.387 214.275 190.283 214.504Z" fill="white"/>
<path d="M288.82 199.975C289.716 200.204 290.612 199.593 290.827 198.64C291.042 197.687 290.468 196.733 289.572 196.505C288.676 196.276 287.78 196.886 287.565 197.839C287.35 198.793 287.924 199.746 288.82 199.975Z" fill="white"/>
<path d="M322.333 173.89C323.229 174.119 324.125 173.509 324.34 172.555C324.555 171.602 323.982 170.649 323.086 170.42C322.19 170.191 321.293 170.801 321.078 171.754C320.899 172.708 321.437 173.661 322.333 173.89Z" fill="white"/>
<path d="M278.963 94.4211C279.859 94.6499 280.755 94.0398 280.97 93.0865C281.185 92.1331 280.612 91.1798 279.716 90.951C278.82 90.7222 277.924 91.3323 277.709 92.2856C277.529 93.239 278.067 94.1923 278.963 94.4211Z" fill="white"/>
<path d="M319.855 60.6692C320.751 60.898 321.647 60.2878 321.862 59.3345C322.077 58.3812 321.504 57.4278 320.608 57.199C319.712 56.9702 318.816 57.5804 318.601 58.5337C318.386 59.487 318.959 60.4404 319.855 60.6692Z" fill="white"/>
<path d="M291.788 138.084C292.684 138.313 293.58 137.703 293.795 136.75C294.011 135.796 293.437 134.843 292.541 134.614C291.645 134.385 290.749 134.995 290.534 135.949C290.319 136.902 290.892 137.855 291.788 138.084Z" fill="white"/>
<path d="M220.498 335.271C221.394 335.5 222.291 334.889 222.506 333.936C222.721 332.983 222.147 332.029 221.251 331.801C220.355 331.572 219.459 332.182 219.244 333.135C219.029 334.089 219.602 335.042 220.498 335.271Z" fill="white"/>
<path d="M183.083 349.762C183.979 349.991 184.875 349.381 185.09 348.427C185.305 347.474 184.732 346.521 183.835 346.292C182.939 346.063 182.043 346.673 181.828 347.626C181.649 348.58 182.187 349.533 183.083 349.762Z" fill="white"/>
<path d="M164.518 421.341C165.414 421.569 166.31 420.959 166.525 420.006C166.74 419.053 166.167 418.099 165.271 417.87C164.375 417.642 163.479 418.252 163.264 419.205C163.084 420.158 163.622 421.112 164.518 421.341Z" fill="white"/>
<path d="M195.233 249.777C196.129 250.005 197.026 249.395 197.241 248.442C197.456 247.489 196.882 246.535 195.986 246.306C195.09 246.078 194.194 246.688 193.979 247.641C193.764 248.594 194.337 249.548 195.233 249.777Z" fill="white"/>
<path d="M213.618 274.829C214.514 275.058 215.41 274.448 215.625 273.494C215.84 272.541 215.267 271.587 214.371 271.359C213.474 271.13 212.578 271.74 212.363 272.693C212.184 273.647 212.722 274.6 213.618 274.829Z" fill="white"/>
<path d="M194.263 287.565C195.159 287.793 196.055 287.183 196.27 286.23C196.485 285.277 195.912 284.323 195.016 284.095C194.12 283.866 193.224 284.476 193.009 285.429C192.794 286.383 193.367 287.336 194.263 287.565Z" fill="white"/>
<path d="M152.436 309.225C153.332 309.454 154.229 308.843 154.444 307.89C154.659 306.937 154.085 305.983 153.189 305.755C152.293 305.526 151.397 306.136 151.182 307.089C151.003 308.043 151.54 308.996 152.436 309.225Z" fill="white"/>
<path d="M46.9175 52.5491C47.8136 52.7779 48.7096 52.1677 48.9247 51.2144C49.1397 50.261 48.5662 49.3077 47.6702 49.0789C46.7741 48.8501 45.8781 49.4602 45.663 50.4136C45.4838 51.3669 46.0214 52.3203 46.9175 52.5491Z" fill="white"/>
<path d="M73.5846 123.936C74.4807 124.165 75.3767 123.555 75.5918 122.602C75.8068 121.648 75.2333 120.695 74.3373 120.466C73.4412 120.237 72.5452 120.847 72.3301 121.801C72.1509 122.754 72.6885 123.707 73.5846 123.936Z" fill="white"/>
<path d="M449.069 98.9963C449.965 99.2251 450.861 98.615 451.076 97.6616C451.291 96.7083 450.718 95.755 449.822 95.5262C448.926 95.2974 448.03 95.9075 447.815 96.8608C447.635 97.8142 448.173 98.7675 449.069 98.9963Z" fill="white"/>
<path d="M591.434 130.112C592.33 130.34 593.226 129.73 593.441 128.777C593.656 127.824 593.083 126.87 592.187 126.641C591.291 126.413 590.395 127.023 590.18 127.976C590.001 128.929 590.539 129.883 591.434 130.112Z" fill="white"/>
<path d="M513.514 219.039C513.801 218.81 513.837 218.352 513.622 218.047C513.407 217.742 512.977 217.704 512.69 217.933C512.403 218.162 512.367 218.619 512.582 218.924C512.797 219.229 513.227 219.267 513.514 219.039Z" fill="white"/>
<path d="M492.941 262.167C493.228 261.938 493.264 261.48 493.049 261.175C492.833 260.87 492.403 260.832 492.117 261.061C491.83 261.289 491.794 261.747 492.009 262.052C492.26 262.319 492.654 262.395 492.941 262.167Z" fill="white"/>
<path d="M491.435 220.981C491.722 220.752 491.758 220.294 491.543 219.989C491.328 219.684 490.897 219.646 490.611 219.875C490.324 220.103 490.288 220.561 490.503 220.866C490.718 221.171 491.148 221.209 491.435 220.981Z" fill="white"/>
<path d="M502.041 272.844C502.328 272.615 502.364 272.157 502.149 271.852C501.934 271.547 501.504 271.509 501.217 271.738C500.93 271.967 500.895 272.424 501.11 272.729C501.36 273.034 501.755 273.111 502.041 272.844Z" fill="white"/>
<path d="M521.008 241.649C521.294 241.42 521.33 240.963 521.115 240.657C520.9 240.352 520.47 240.314 520.183 240.543C519.897 240.772 519.861 241.229 520.076 241.535C520.291 241.84 520.721 241.878 521.008 241.649Z" fill="white"/>
<path d="M599.574 260.335C599.861 260.106 599.897 259.649 599.682 259.344C599.466 259.038 599.036 259 598.75 259.229C598.463 259.458 598.427 259.916 598.642 260.221C598.857 260.526 599.287 260.602 599.574 260.335Z" fill="white"/>
<path d="M514.841 291.109C515.127 290.88 515.163 290.423 514.948 290.117C514.733 289.812 514.303 289.774 514.016 290.003C513.73 290.232 513.694 290.689 513.909 290.995C514.16 291.3 514.554 291.376 514.841 291.109Z" fill="white"/>
<path d="M483.153 337.023C483.44 336.795 483.476 336.337 483.261 336.032C483.046 335.727 482.616 335.689 482.329 335.918C482.042 336.146 482.006 336.604 482.222 336.909C482.472 337.214 482.867 337.29 483.153 337.023Z" fill="white"/>
<path d="M517.42 310.939C517.707 310.71 517.743 310.253 517.528 309.948C517.313 309.642 516.883 309.604 516.596 309.833C516.309 310.062 516.273 310.52 516.488 310.825C516.703 311.13 517.133 311.168 517.42 310.939Z" fill="white"/>
<path d="M536.2 303.846C536.486 303.617 536.522 303.16 536.307 302.855C536.092 302.55 535.662 302.512 535.375 302.74C535.088 302.969 535.053 303.427 535.268 303.732C535.483 304.037 535.913 304.075 536.2 303.846Z" fill="white"/>
<path d="M478.138 286.534C478.425 286.305 478.461 285.847 478.246 285.542C478.031 285.237 477.601 285.199 477.314 285.428C477.027 285.657 476.991 286.114 477.206 286.419C477.421 286.724 477.852 286.763 478.138 286.534Z" fill="white"/>
<path d="M360.967 264.836C361.254 264.608 361.29 264.15 361.075 263.845C360.86 263.54 360.43 263.502 360.143 263.731C359.856 263.959 359.82 264.417 360.035 264.722C360.286 265.027 360.68 265.065 360.967 264.836Z" fill="white"/>
<path d="M195.303 199.589C195.589 199.36 195.625 198.902 195.41 198.597C195.195 198.292 194.765 198.254 194.478 198.483C194.192 198.712 194.156 199.169 194.371 199.475C194.622 199.741 195.016 199.818 195.303 199.589Z" fill="white"/>
<path d="M188.961 187.999C189.248 187.77 189.284 187.312 189.069 187.007C188.854 186.702 188.424 186.664 188.137 186.893C187.85 187.122 187.814 187.579 188.029 187.884C188.28 188.189 188.674 188.266 188.961 187.999Z" fill="white"/>
<path d="M168.345 109.861C168.632 109.633 168.668 109.175 168.453 108.87C168.238 108.565 167.807 108.527 167.521 108.755C167.234 108.984 167.198 109.442 167.413 109.747C167.628 110.052 168.058 110.09 168.345 109.861Z" fill="white"/>
<path d="M193.865 158.442C194.152 158.214 194.188 157.756 193.973 157.451C193.758 157.146 193.328 157.108 193.041 157.337C192.754 157.565 192.718 158.023 192.933 158.328C193.148 158.633 193.578 158.671 193.865 158.442Z" fill="white"/>
<path d="M232.649 163.057C232.936 162.828 232.972 162.37 232.757 162.065C232.542 161.76 232.112 161.722 231.825 161.951C231.538 162.18 231.502 162.637 231.717 162.942C231.932 163.247 232.363 163.285 232.649 163.057Z" fill="white"/>
<path d="M197.986 192.842C198.273 192.614 198.308 192.156 198.093 191.851C197.878 191.546 197.448 191.508 197.161 191.736C196.875 191.965 196.839 192.423 197.054 192.728C197.305 192.995 197.699 193.071 197.986 192.842Z" fill="white"/>
<path d="M153.618 147.842C153.905 147.614 153.941 147.156 153.726 146.851C153.511 146.546 153.08 146.508 152.794 146.736C152.507 146.965 152.471 147.423 152.686 147.728C152.937 148.033 153.331 148.071 153.618 147.842Z" fill="white"/>
<path d="M130.824 165.497C131.111 165.268 131.147 164.811 130.932 164.506C130.717 164.201 130.286 164.162 130 164.391C129.713 164.62 129.677 165.078 129.892 165.383C130.143 165.688 130.537 165.764 130.824 165.497Z" fill="white"/>
<path d="M123.083 176.136C123.37 175.907 123.406 175.45 123.19 175.145C122.975 174.84 122.545 174.802 122.259 175.03C121.972 175.259 121.936 175.717 122.151 176.022C122.366 176.327 122.796 176.365 123.083 176.136Z" fill="white"/>
<path d="M248.099 279.975C248.385 279.746 248.421 279.288 248.206 278.983C247.991 278.678 247.561 278.64 247.274 278.869C246.988 279.098 246.952 279.555 247.167 279.86C247.418 280.165 247.812 280.242 248.099 279.975Z" fill="white"/>
<path d="M168.636 270.213C168.922 269.984 168.958 269.527 168.743 269.221C168.528 268.916 168.098 268.878 167.811 269.107C167.524 269.336 167.489 269.793 167.704 270.099C167.955 270.404 168.349 270.442 168.636 270.213Z" fill="white"/>
<path d="M662.832 150.168C663.119 149.939 663.155 149.481 662.94 149.176C662.725 148.871 662.295 148.833 662.008 149.062C661.721 149.29 661.685 149.748 661.9 150.053C662.115 150.358 662.546 150.434 662.832 150.168Z" fill="white"/>
<path d="M309.677 489.404C309.964 489.176 309.999 488.718 309.784 488.413C309.569 488.108 309.139 488.07 308.853 488.298C308.566 488.527 308.53 488.985 308.745 489.29C308.96 489.595 309.39 489.671 309.677 489.404Z" fill="white"/>
<path d="M290.536 292.56C290.823 292.331 290.859 291.873 290.644 291.568C290.429 291.263 289.999 291.225 289.712 291.454C289.425 291.683 289.389 292.14 289.604 292.445C289.819 292.75 290.249 292.788 290.536 292.56Z" fill="white"/>
<path d="M317.633 301.025C317.919 300.796 317.955 300.339 317.74 300.033C317.525 299.728 317.095 299.69 316.808 299.919C316.522 300.148 316.486 300.605 316.701 300.911C316.916 301.216 317.346 301.254 317.633 301.025Z" fill="white"/>
<path d="M249.784 321.275C250.071 321.046 250.106 320.589 249.891 320.283C249.676 319.978 249.246 319.94 248.96 320.169C248.673 320.398 248.637 320.855 248.852 321.161C249.103 321.427 249.497 321.504 249.784 321.275Z" fill="white"/>
<path d="M254.625 309.452C254.911 309.223 254.947 308.766 254.732 308.461C254.517 308.156 254.087 308.117 253.8 308.346C253.513 308.575 253.478 309.033 253.693 309.338C253.944 309.643 254.338 309.681 254.625 309.452Z" fill="white"/>
<path d="M223.832 309.109C224.119 308.88 224.154 308.423 223.939 308.117C223.724 307.812 223.294 307.774 223.007 308.003C222.721 308.232 222.685 308.689 222.9 308.995C223.115 309.3 223.545 309.338 223.832 309.109Z" fill="white"/>
<path d="M217.882 315.629C218.169 315.401 218.204 314.943 217.989 314.638C217.774 314.333 217.344 314.295 217.058 314.524C216.771 314.752 216.735 315.21 216.95 315.515C217.165 315.82 217.595 315.858 217.882 315.629Z" fill="white"/>
<path d="M205.158 324.4C205.445 324.172 205.481 323.714 205.266 323.409C205.051 323.104 204.621 323.066 204.334 323.295C204.047 323.523 204.012 323.981 204.227 324.286C204.442 324.591 204.872 324.629 205.158 324.4Z" fill="white"/>
<path d="M202.69 291.337C202.977 291.109 203.013 290.651 202.798 290.346C202.583 290.041 202.152 290.003 201.866 290.232C201.579 290.46 201.543 290.918 201.758 291.223C201.973 291.49 202.403 291.566 202.69 291.337Z" fill="white"/>
<path d="M168.206 274.979C168.493 274.751 168.529 274.293 168.313 273.988C168.098 273.683 167.668 273.645 167.382 273.874C167.095 274.102 167.059 274.56 167.274 274.865C167.525 275.17 167.919 275.246 168.206 274.979Z" fill="white"/>
<path d="M158.383 276.808C158.67 276.579 158.706 276.121 158.491 275.816C158.276 275.511 157.845 275.473 157.559 275.702C157.272 275.931 157.236 276.388 157.451 276.693C157.702 276.96 158.096 277.036 158.383 276.808Z" fill="white"/>
<path d="M173.188 203.633C173.475 203.404 173.511 202.946 173.296 202.641C173.081 202.336 172.651 202.298 172.364 202.527C172.077 202.756 172.041 203.213 172.256 203.518C172.471 203.824 172.902 203.862 173.188 203.633Z" fill="white"/>
<path d="M125.301 202.449C125.588 202.22 125.624 201.763 125.409 201.458C125.194 201.153 124.764 201.115 124.477 201.343C124.19 201.572 124.154 202.03 124.369 202.335C124.584 202.602 125.014 202.678 125.301 202.449Z" fill="white"/>
<path d="M120.64 201.115C120.927 200.886 120.962 200.428 120.747 200.123C120.532 199.818 120.102 199.78 119.815 200.009C119.529 200.238 119.493 200.695 119.708 201C119.959 201.305 120.353 201.344 120.64 201.115Z" fill="white"/>
<path d="M115.016 201.799C115.303 201.57 115.338 201.112 115.123 200.807C114.908 200.502 114.478 200.464 114.191 200.693C113.905 200.922 113.869 201.379 114.084 201.684C114.299 201.99 114.729 202.028 115.016 201.799Z" fill="white"/>
<path d="M212.041 223.081C212.327 222.852 212.363 222.395 212.148 222.09C211.933 221.785 211.503 221.746 211.216 221.975C210.929 222.204 210.894 222.662 211.109 222.967C211.324 223.272 211.754 223.31 212.041 223.081Z" fill="white"/>
<path d="M159.28 168.51C159.567 168.281 159.603 167.823 159.387 167.518C159.172 167.213 158.742 167.175 158.456 167.404C158.169 167.633 158.133 168.09 158.348 168.395C158.599 168.7 158.993 168.739 159.28 168.51Z" fill="white"/>
<path d="M269.784 291.109C270.07 290.88 270.106 290.423 269.891 290.117C269.676 289.812 269.246 289.774 268.959 290.003C268.672 290.232 268.637 290.689 268.852 290.995C269.103 291.3 269.497 291.376 269.784 291.109Z" fill="white"/>
<path d="M307.027 275.742C307.313 275.513 307.349 275.056 307.134 274.751C306.919 274.446 306.489 274.408 306.202 274.636C305.916 274.865 305.88 275.323 306.095 275.628C306.31 275.933 306.74 275.971 307.027 275.742Z" fill="white"/>
<path d="M335.162 275.018C335.448 274.789 335.484 274.332 335.269 274.027C335.054 273.722 334.624 273.683 334.337 273.912C334.05 274.141 334.015 274.599 334.23 274.904C334.445 275.171 334.875 275.247 335.162 275.018Z" fill="white"/>
<path d="M273.869 232.116C274.156 231.887 274.191 231.429 273.976 231.124C273.761 230.819 273.331 230.781 273.045 231.01C272.758 231.239 272.722 231.696 272.937 232.001C273.152 232.306 273.582 232.345 273.869 232.116Z" fill="white"/>
<path d="M290.289 213.773C290.575 213.545 290.611 213.087 290.396 212.782C290.181 212.477 289.751 212.439 289.464 212.668C289.178 212.896 289.142 213.354 289.357 213.659C289.572 213.964 290.002 214.002 290.289 213.773Z" fill="white"/>
<path d="M276.198 197.645C276.485 197.416 276.521 196.958 276.306 196.653C276.091 196.348 275.661 196.31 275.374 196.539C275.087 196.768 275.051 197.225 275.266 197.53C275.482 197.835 275.912 197.912 276.198 197.645Z" fill="white"/>
<path d="M277.81 145.781C278.097 145.552 278.133 145.095 277.918 144.79C277.703 144.485 277.273 144.447 276.986 144.675C276.699 144.904 276.663 145.362 276.878 145.667C277.093 145.972 277.524 146.01 277.81 145.781Z" fill="white"/>
<path d="M303.939 187.615C304.226 187.386 304.262 186.929 304.047 186.624C303.832 186.319 303.402 186.281 303.115 186.509C302.828 186.738 302.792 187.196 303.007 187.501C303.222 187.806 303.652 187.844 303.939 187.615Z" fill="white"/>
<path d="M365.303 104.065C365.589 103.836 365.625 103.379 365.41 103.073C365.195 102.768 364.765 102.73 364.478 102.959C364.191 103.188 364.156 103.646 364.371 103.951C364.622 104.218 365.016 104.294 365.303 104.065Z" fill="white"/>
<path d="M330.321 247.409C330.608 247.18 330.643 246.722 330.428 246.417C330.213 246.112 329.783 246.074 329.497 246.303C329.21 246.532 329.174 246.989 329.389 247.294C329.64 247.599 330.07 247.638 330.321 247.409Z" fill="white"/>
<path d="M370.393 198.52C370.68 198.291 370.716 197.834 370.501 197.529C370.286 197.224 369.856 197.185 369.569 197.414C369.282 197.643 369.247 198.101 369.462 198.406C369.713 198.711 370.107 198.787 370.393 198.52Z" fill="white"/>
<path d="M327.206 303.809C327.492 303.58 327.528 303.123 327.313 302.818C327.098 302.513 326.668 302.474 326.381 302.703C326.095 302.932 326.059 303.39 326.274 303.695C326.525 304 326.919 304.076 327.206 303.809Z" fill="white"/>
<path d="M362.834 320.74C363.121 320.511 363.157 320.053 362.942 319.748C362.727 319.443 362.297 319.405 362.01 319.634C361.723 319.863 361.687 320.32 361.902 320.625C362.153 320.892 362.547 320.969 362.834 320.74Z" fill="white"/>
<path d="M335.05 327.833C335.337 327.604 335.373 327.146 335.158 326.841C334.943 326.536 334.513 326.498 334.226 326.727C333.939 326.955 333.903 327.413 334.118 327.718C334.334 328.023 334.764 328.061 335.05 327.833Z" fill="white"/>
<path d="M408.028 315.514C408.315 315.285 408.351 314.827 408.136 314.522C407.921 314.217 407.491 314.179 407.204 314.408C406.917 314.637 406.881 315.094 407.096 315.399C407.311 315.704 407.741 315.743 408.028 315.514Z" fill="white"/>
<path d="M419.751 274.407C420.038 274.178 420.074 273.72 419.859 273.415C419.644 273.11 419.213 273.072 418.927 273.301C418.64 273.53 418.604 273.987 418.819 274.292C419.07 274.597 419.464 274.636 419.751 274.407Z" fill="white"/>
<path d="M404.767 186.891C405.053 186.662 405.089 186.205 404.874 185.9C404.659 185.595 404.229 185.556 403.942 185.785C403.655 186.014 403.619 186.472 403.835 186.777C404.05 187.082 404.48 187.12 404.767 186.891Z" fill="white"/>
<path d="M413.084 193.679C413.37 193.45 413.406 192.993 413.191 192.688C412.976 192.383 412.546 192.345 412.259 192.573C411.972 192.802 411.937 193.26 412.152 193.565C412.403 193.832 412.797 193.908 413.084 193.679Z" fill="white"/>
<path d="M482.077 242.832C482.364 242.604 482.4 242.146 482.185 241.841C481.969 241.536 481.539 241.498 481.253 241.727C480.966 241.955 480.93 242.413 481.145 242.718C481.396 243.023 481.79 243.061 482.077 242.832Z" fill="white"/>
<path d="M506.162 252.48C506.449 252.251 506.485 251.794 506.27 251.489C506.054 251.183 505.624 251.145 505.338 251.374C505.051 251.603 505.015 252.061 505.23 252.366C505.445 252.671 505.875 252.709 506.162 252.48Z" fill="white"/>
<path d="M503.583 221.782C503.869 221.553 503.905 221.096 503.69 220.791C503.475 220.486 503.045 220.448 502.758 220.676C502.471 220.905 502.436 221.363 502.651 221.668C502.866 221.973 503.296 222.011 503.583 221.782Z" fill="white"/>
<path d="M490.144 169.387C490.431 169.158 490.467 168.701 490.252 168.396C490.037 168.091 489.606 168.053 489.32 168.281C489.033 168.51 488.997 168.968 489.212 169.273C489.427 169.578 489.857 169.654 490.144 169.387Z" fill="white"/>
<path d="M490.644 267.466C490.931 267.237 490.967 266.779 490.752 266.474C490.537 266.169 490.107 266.131 489.82 266.36C489.533 266.589 489.497 267.046 489.712 267.351C489.928 267.657 490.358 267.695 490.644 267.466Z" fill="white"/>
<path d="M541.902 268.803C542.188 268.574 542.224 268.116 542.009 267.811C541.794 267.506 541.364 267.468 541.077 267.697C540.791 267.926 540.755 268.383 540.97 268.688C541.221 268.993 541.615 269.032 541.902 268.803Z" fill="white"/>
<path d="M498.318 306.133C498.604 305.905 498.64 305.447 498.425 305.142C498.21 304.837 497.78 304.799 497.493 305.027C497.206 305.256 497.17 305.714 497.385 306.019C497.601 306.324 498.031 306.362 498.318 306.133Z" fill="white"/>
<path d="M471.971 340.876C472.258 340.647 472.294 340.189 472.078 339.884C471.863 339.579 471.433 339.541 471.147 339.77C470.86 339.998 470.824 340.456 471.039 340.761C471.29 341.066 471.684 341.104 471.971 340.876Z" fill="white"/>
<path d="M450.612 356.547C450.899 356.319 450.935 355.861 450.72 355.556C450.505 355.251 450.075 355.213 449.788 355.442C449.501 355.67 449.465 356.128 449.68 356.433C449.931 356.738 450.325 356.814 450.612 356.547Z" fill="white"/>
<path d="M615.413 210.726C615.699 210.497 615.735 210.039 615.52 209.734C615.305 209.429 614.875 209.391 614.588 209.62C614.301 209.849 614.266 210.306 614.481 210.611C614.696 210.916 615.126 210.954 615.413 210.726Z" fill="white"/>
<path d="M500.142 207.597C500.428 207.368 500.464 206.91 500.249 206.605C500.034 206.3 499.604 206.262 499.317 206.491C499.03 206.72 498.994 207.177 499.21 207.482C499.46 207.749 499.855 207.826 500.142 207.597Z" fill="white"/>
<path d="M502.542 170.949C502.828 170.72 502.864 170.262 502.649 169.957C502.434 169.652 502.004 169.614 501.717 169.843C501.43 170.072 501.395 170.529 501.61 170.834C501.825 171.139 502.255 171.178 502.542 170.949Z" fill="white"/>
<path d="M532.19 241.956C532.477 241.727 532.513 241.269 532.298 240.964C532.083 240.659 531.652 240.621 531.366 240.85C531.079 241.079 531.043 241.536 531.258 241.841C531.509 242.146 531.903 242.184 532.19 241.956Z" fill="white"/>
<path d="M528.352 247.143C528.639 246.914 528.675 246.456 528.46 246.151C528.245 245.846 527.815 245.808 527.528 246.037C527.241 246.266 527.205 246.723 527.42 247.028C527.635 247.333 528.065 247.41 528.352 247.143Z" fill="white"/>
<path d="M387.238 254.044C387.524 253.815 387.56 253.357 387.345 253.052C387.13 252.747 386.7 252.709 386.413 252.938C386.126 253.166 386.091 253.624 386.306 253.929C386.557 254.234 386.951 254.31 387.238 254.044Z" fill="white"/>
<path d="M371.935 315.82C372.221 315.591 372.257 315.133 372.042 314.828C371.827 314.523 371.397 314.485 371.11 314.714C370.824 314.943 370.788 315.4 371.003 315.705C371.254 316.011 371.648 316.049 371.935 315.82Z" fill="white"/>
<path d="M339.497 297.173C339.784 296.944 339.82 296.486 339.605 296.181C339.39 295.876 338.959 295.838 338.673 296.067C338.386 296.296 338.35 296.753 338.565 297.058C338.78 297.325 339.21 297.402 339.497 297.173Z" fill="white"/>
<path d="M258.781 284.32C259.067 284.092 259.103 283.634 258.888 283.329C258.673 283.024 258.243 282.986 257.956 283.214C257.67 283.443 257.634 283.901 257.849 284.206C258.1 284.473 258.53 284.549 258.781 284.32Z" fill="white"/>
<path d="M345.664 131.253C345.951 131.024 345.987 130.567 345.772 130.261C345.557 129.956 345.127 129.918 344.84 130.147C344.553 130.376 344.517 130.833 344.732 131.139C344.947 131.444 345.378 131.52 345.664 131.253Z" fill="white"/>
<path d="M309.641 110.548C309.928 110.319 309.964 109.861 309.749 109.556C309.534 109.251 309.104 109.213 308.817 109.442C308.53 109.671 308.495 110.128 308.71 110.433C308.96 110.7 309.355 110.777 309.641 110.548Z" fill="white"/>
<path d="M305.842 53.9571C306.128 53.7283 306.164 53.2707 305.949 52.9656C305.734 52.6605 305.304 52.6224 305.017 52.8512C304.73 53.08 304.695 53.5376 304.91 53.8427C305.125 54.1477 305.555 54.1859 305.842 53.9571Z" fill="white"/>
<path d="M279.89 70.4678C280.176 70.239 280.212 69.7814 279.997 69.4763C279.782 69.1713 279.352 69.1331 279.065 69.3619C278.778 69.5907 278.743 70.0483 278.958 70.3534C279.209 70.6585 279.603 70.6966 279.89 70.4678Z" fill="white"/>
<path d="M264.336 59.1817C264.623 58.9529 264.659 58.4953 264.444 58.1902C264.229 57.8851 263.799 57.847 263.512 58.0758C263.225 58.3046 263.189 58.7622 263.405 59.0673C263.62 59.3723 264.05 59.4105 264.336 59.1817Z" fill="white"/>
<path d="M373.691 298.546C373.977 298.318 374.013 297.86 373.798 297.555C373.583 297.25 373.153 297.212 372.866 297.441C372.58 297.669 372.544 298.127 372.759 298.432C373.01 298.737 373.404 298.775 373.691 298.546Z" fill="white"/>
<path d="M363.014 402.802C363.3 402.574 363.336 402.116 363.121 401.811C362.906 401.506 362.476 401.468 362.189 401.696C361.903 401.925 361.867 402.383 362.082 402.688C362.333 402.955 362.727 403.031 363.014 402.802Z" fill="white"/>
<path d="M320.109 428.278C320.396 428.049 320.431 427.591 320.216 427.286C320.001 426.981 319.571 426.943 319.284 427.172C318.997 427.401 318.962 427.858 319.177 428.164C319.392 428.469 319.822 428.507 320.109 428.278Z" fill="white"/>
<path d="M322.224 433.426C322.51 433.198 322.546 432.74 322.331 432.435C322.116 432.13 321.686 432.092 321.399 432.32C321.112 432.549 321.077 433.007 321.292 433.312C321.507 433.617 321.937 433.693 322.224 433.426Z" fill="white"/>
<path d="M391.399 438C391.686 437.772 391.722 437.314 391.506 437.009C391.291 436.704 390.861 436.666 390.574 436.895C390.288 437.123 390.252 437.581 390.467 437.886C390.682 438.191 391.112 438.229 391.399 438Z" fill="white"/>
<path d="M386.773 428.39C387.06 428.161 387.095 427.703 386.88 427.398C386.665 427.093 386.235 427.055 385.948 427.284C385.662 427.513 385.626 427.97 385.841 428.275C386.056 428.58 386.486 428.619 386.773 428.39Z" fill="white"/>
<path d="M350.285 455.162C350.572 454.933 350.608 454.475 350.393 454.17C350.178 453.865 349.747 453.827 349.461 454.056C349.174 454.285 349.138 454.742 349.353 455.047C349.604 455.352 349.998 455.391 350.285 455.162Z" fill="white"/>
<path d="M348.35 460.043C348.637 459.814 348.673 459.356 348.457 459.051C348.242 458.746 347.812 458.708 347.526 458.937C347.239 459.165 347.203 459.623 347.418 459.928C347.633 460.233 348.063 460.271 348.35 460.043Z" fill="white"/>
<path d="M345.124 449.326C345.41 449.097 345.446 448.64 345.231 448.335C345.016 448.03 344.586 447.992 344.299 448.22C344.012 448.449 343.977 448.907 344.192 449.212C344.443 449.517 344.837 449.555 345.124 449.326Z" fill="white"/>
<path d="M211.396 283.979C211.683 283.75 211.719 283.293 211.504 282.988C211.289 282.682 210.859 282.644 210.572 282.873C210.285 283.102 210.249 283.56 210.464 283.865C210.715 284.17 211.11 284.208 211.396 283.979Z" fill="white"/>
<path d="M212.649 304.76C212.936 304.531 212.972 304.074 212.757 303.769C212.542 303.464 212.112 303.426 211.825 303.654C211.538 303.883 211.503 304.341 211.718 304.646C211.933 304.951 212.363 304.989 212.649 304.76Z" fill="white"/>
<path d="M227.273 346.977C227.56 346.748 227.595 346.29 227.38 345.985C227.165 345.68 226.735 345.642 226.448 345.871C226.162 346.1 226.126 346.557 226.341 346.862C226.556 347.129 226.986 347.205 227.273 346.977Z" fill="white"/>
<path d="M242.937 301.595C243.224 301.366 243.26 300.908 243.045 300.603C242.83 300.298 242.399 300.26 242.113 300.489C241.826 300.718 241.79 301.175 242.005 301.48C242.22 301.785 242.65 301.824 242.937 301.595Z" fill="white"/>
<path d="M228.993 283.445C229.28 283.217 229.316 282.759 229.101 282.454C228.886 282.149 228.456 282.111 228.169 282.339C227.882 282.568 227.846 283.026 228.061 283.331C228.312 283.636 228.707 283.712 228.993 283.445Z" fill="white"/>
<path d="M126.052 209.197C126.338 208.968 126.374 208.511 126.159 208.206C125.944 207.901 125.514 207.863 125.227 208.091C124.94 208.32 124.905 208.778 125.12 209.083C125.371 209.35 125.765 209.426 126.052 209.197Z" fill="white"/>
<path d="M150.066 215.719C150.353 215.49 150.388 215.033 150.173 214.728C149.958 214.423 149.528 214.385 149.241 214.613C148.955 214.842 148.919 215.3 149.134 215.605C149.349 215.91 149.779 215.948 150.066 215.719Z" fill="white"/>
<path d="M262.687 218.35C262.973 218.121 263.009 217.664 262.794 217.359C262.579 217.054 262.149 217.015 261.862 217.244C261.576 217.473 261.54 217.931 261.755 218.236C262.006 218.503 262.4 218.579 262.687 218.35Z" fill="white"/>
<path d="M335.626 190.552C335.913 190.323 335.949 189.865 335.734 189.56C335.519 189.255 335.089 189.217 334.802 189.446C334.515 189.675 334.479 190.132 334.695 190.437C334.945 190.742 335.34 190.819 335.626 190.552Z" fill="white"/>
<path d="M301.395 200.812C301.682 200.583 301.718 200.125 301.502 199.82C301.287 199.515 300.857 199.477 300.571 199.706C300.284 199.934 300.248 200.392 300.463 200.697C300.714 201.002 301.108 201.04 301.395 200.812Z" fill="white"/>
<path d="M374.231 132.055C374.518 131.826 374.554 131.368 374.339 131.063C374.124 130.758 373.694 130.72 373.407 130.949C373.12 131.178 373.084 131.635 373.299 131.94C373.55 132.245 373.945 132.284 374.231 132.055Z" fill="white"/>
<path d="M259.099 301.445C259.386 301.216 259.422 300.758 259.207 300.453C258.992 300.148 258.561 300.11 258.275 300.339C257.988 300.568 257.952 301.025 258.167 301.33C258.418 301.636 258.812 301.674 259.099 301.445Z" fill="white"/>
<path d="M330.035 204.585C330.322 204.357 330.358 203.899 330.143 203.594C329.928 203.289 329.498 203.251 329.211 203.48C328.924 203.708 328.888 204.166 329.103 204.471C329.318 204.776 329.749 204.852 330.035 204.585Z" fill="white"/>
<path d="M153.757 251.451C154.044 251.222 154.08 250.765 153.865 250.46C153.65 250.155 153.219 250.117 152.933 250.345C152.646 250.574 152.61 251.032 152.825 251.337C153.04 251.642 153.47 251.68 153.757 251.451Z" fill="white"/>
<path d="M291.792 496.041C292.079 495.812 292.114 495.354 291.899 495.049C291.684 494.744 291.254 494.706 290.967 494.935C290.681 495.163 290.645 495.621 290.86 495.926C291.111 496.231 291.505 496.269 291.792 496.041Z" fill="white"/>
<path d="M180.214 202.411C180.501 202.182 180.537 201.725 180.322 201.42C180.107 201.115 179.677 201.076 179.39 201.305C179.103 201.534 179.067 201.992 179.283 202.297C179.533 202.564 179.928 202.64 180.214 202.411Z" fill="white"/>
<path d="M178.064 207.179C178.351 206.95 178.387 206.493 178.172 206.188C177.957 205.883 177.527 205.845 177.24 206.073C176.953 206.302 176.917 206.76 177.132 207.065C177.348 207.37 177.778 207.446 178.064 207.179Z" fill="white"/>
<path d="M551.475 140.864C551.761 140.635 551.797 140.177 551.582 139.872C551.367 139.567 550.937 139.529 550.65 139.758C550.364 139.987 550.328 140.444 550.543 140.749C550.758 141.054 551.188 141.131 551.475 140.864Z" fill="white"/>
<path d="M242.257 191.008C242.544 190.78 242.58 190.322 242.365 190.017C242.15 189.712 241.72 189.674 241.433 189.902C241.146 190.131 241.11 190.589 241.326 190.894C241.576 191.199 241.971 191.275 242.257 191.008Z" fill="white"/>
<path d="M257.955 149.518C258.241 149.289 258.277 148.832 258.062 148.527C257.847 148.222 257.417 148.183 257.13 148.412C256.843 148.641 256.808 149.099 257.023 149.404C257.238 149.709 257.668 149.785 257.955 149.518Z" fill="white"/>
<path d="M318.133 141.398C318.42 141.169 318.456 140.711 318.241 140.406C318.025 140.101 317.595 140.063 317.309 140.292C317.022 140.52 316.986 140.978 317.201 141.283C317.452 141.588 317.846 141.664 318.133 141.398Z" fill="white"/>
<path d="M285.162 244.281C285.449 244.052 285.485 243.595 285.27 243.29C285.055 242.985 284.625 242.947 284.338 243.175C284.051 243.404 284.015 243.862 284.23 244.167C284.481 244.472 284.876 244.51 285.162 244.281Z" fill="white"/>
<path d="M241.972 239.02C242.259 238.791 242.295 238.333 242.08 238.028C241.864 237.723 241.434 237.685 241.148 237.914C240.861 238.142 240.825 238.6 241.04 238.905C241.255 239.21 241.685 239.286 241.972 239.02Z" fill="white"/>
<path d="M416.775 375.881C417.062 375.652 417.097 375.194 416.882 374.889C416.667 374.584 416.237 374.546 415.951 374.775C415.664 375.004 415.628 375.461 415.843 375.766C416.094 376.072 416.488 376.148 416.775 375.881Z" fill="white"/>
<path d="M386.197 411.153C386.484 410.925 386.519 410.467 386.304 410.162C386.089 409.857 385.659 409.819 385.372 410.047C385.086 410.276 385.05 410.734 385.265 411.039C385.516 411.344 385.91 411.382 386.197 411.153Z" fill="white"/>
<path d="M423.94 407.952C424.227 407.723 424.263 407.266 424.048 406.961C423.833 406.656 423.402 406.618 423.116 406.846C422.829 407.075 422.793 407.533 423.008 407.838C423.223 408.143 423.653 408.219 423.94 407.952Z" fill="white"/>
<path d="M351.97 383.012C352.257 382.783 352.293 382.325 352.078 382.02C351.863 381.715 351.433 381.677 351.146 381.906C350.859 382.135 350.823 382.592 351.038 382.897C351.289 383.202 351.684 383.241 351.97 383.012Z" fill="white"/>
<path d="M318.277 331.531C318.564 331.302 318.6 330.845 318.385 330.54C318.17 330.235 317.739 330.197 317.453 330.425C317.166 330.654 317.13 331.112 317.345 331.417C317.596 331.722 317.99 331.76 318.277 331.531Z" fill="white"/>
<path d="M293.977 329.13C294.264 328.901 294.3 328.444 294.085 328.138C293.87 327.833 293.44 327.795 293.153 328.024C292.866 328.253 292.83 328.71 293.045 329.016C293.26 329.282 293.691 329.359 293.977 329.13Z" fill="white"/>
<path d="M338.027 228.381C338.313 228.153 338.349 227.695 338.134 227.39C337.919 227.085 337.489 227.047 337.202 227.276C336.916 227.504 336.88 227.962 337.095 228.267C337.31 228.534 337.74 228.61 338.027 228.381Z" fill="white"/>
<path d="M281.181 245.234C281.467 245.005 281.503 244.548 281.288 244.242C281.073 243.937 280.643 243.899 280.356 244.128C280.069 244.357 280.034 244.814 280.249 245.12C280.464 245.425 280.894 245.501 281.181 245.234Z" fill="white"/>
<path d="M307.921 174.992C308.208 174.763 308.244 174.306 308.029 174.001C307.813 173.696 307.383 173.658 307.097 173.886C306.81 174.115 306.774 174.573 306.989 174.878C307.24 175.183 307.634 175.259 307.921 174.992Z" fill="white"/>
<path d="M225.408 222.278C225.695 222.05 225.731 221.592 225.516 221.287C225.301 220.982 224.871 220.944 224.584 221.172C224.297 221.401 224.261 221.859 224.476 222.164C224.727 222.469 225.122 222.545 225.408 222.278Z" fill="white"/>
<path d="M221.967 221.782C222.254 221.553 222.29 221.096 222.075 220.791C221.86 220.486 221.43 220.448 221.143 220.676C220.856 220.905 220.82 221.363 221.035 221.668C221.286 221.973 221.68 222.011 221.967 221.782Z" fill="white"/>
<path d="M202.468 214.689C202.755 214.461 202.79 214.003 202.575 213.698C202.36 213.393 201.93 213.355 201.643 213.584C201.357 213.812 201.321 214.27 201.536 214.575C201.787 214.88 202.181 214.956 202.468 214.689Z" fill="white"/>
<path d="M218.956 186.319C219.242 186.09 219.278 185.632 219.063 185.327C218.848 185.022 218.418 184.984 218.131 185.213C217.845 185.442 217.809 185.899 218.024 186.204C218.275 186.51 218.669 186.548 218.956 186.319Z" fill="white"/>
<path d="M211.429 234.595C211.716 234.366 211.752 233.909 211.537 233.604C211.322 233.299 210.892 233.261 210.605 233.489C210.318 233.718 210.282 234.176 210.497 234.481C210.712 234.786 211.143 234.862 211.429 234.595Z" fill="white"/>
<path d="M190.924 184.106C191.211 183.877 191.247 183.42 191.032 183.115C190.817 182.809 190.387 182.771 190.1 183C189.813 183.229 189.777 183.687 189.992 183.992C190.243 184.297 190.638 184.373 190.924 184.106Z" fill="white"/>
<path d="M177.309 484.143C177.596 483.914 177.632 483.456 177.417 483.151C177.201 482.846 176.771 482.808 176.485 483.037C176.198 483.266 176.162 483.723 176.377 484.028C176.592 484.334 177.022 484.372 177.309 484.143Z" fill="white"/>
<path d="M152.362 179.683C152.649 179.454 152.685 178.996 152.47 178.691C152.255 178.386 151.825 178.348 151.538 178.577C151.251 178.806 151.215 179.263 151.43 179.568C151.646 179.873 152.076 179.95 152.362 179.683Z" fill="white"/>
<path d="M117.416 181.361C117.703 181.132 117.739 180.674 117.524 180.369C117.308 180.064 116.878 180.026 116.592 180.255C116.305 180.484 116.269 180.941 116.484 181.246C116.735 181.513 117.129 181.59 117.416 181.361Z" fill="white"/>
<path d="M111.754 179.456C112.041 179.227 112.077 178.769 111.862 178.464C111.647 178.159 111.216 178.121 110.93 178.35C110.643 178.579 110.607 179.036 110.822 179.341C111.037 179.646 111.467 179.684 111.754 179.456Z" fill="white"/>
<path d="M158.739 202.488C159.026 202.26 159.062 201.802 158.847 201.497C158.632 201.192 158.202 201.154 157.915 201.382C157.628 201.611 157.592 202.069 157.807 202.374C158.022 202.679 158.453 202.755 158.739 202.488Z" fill="white"/>
<path d="M291.218 195.32C291.505 195.091 291.541 194.633 291.326 194.328C291.111 194.023 290.681 193.985 290.394 194.214C290.107 194.443 290.071 194.9 290.286 195.205C290.537 195.511 290.932 195.549 291.218 195.32Z" fill="white"/>
<path d="M360.287 176.175C360.574 175.946 360.61 175.488 360.395 175.183C360.18 174.878 359.75 174.84 359.463 175.069C359.176 175.298 359.14 175.755 359.356 176.06C359.606 176.366 360.001 176.404 360.287 176.175Z" fill="white"/>
<path d="M396.414 192.917C396.701 192.688 396.736 192.231 396.521 191.926C396.306 191.62 395.876 191.582 395.59 191.811C395.303 192.04 395.267 192.498 395.482 192.803C395.733 193.07 396.127 193.146 396.414 192.917Z" fill="white"/>
<path d="M428.708 183.766C428.994 183.537 429.03 183.079 428.815 182.774C428.6 182.469 428.17 182.431 427.883 182.66C427.596 182.889 427.561 183.346 427.776 183.651C428.026 183.956 428.421 183.994 428.708 183.766Z" fill="white"/>
<path d="M421.79 282.759C422.077 282.53 422.112 282.072 421.897 281.767C421.682 281.462 421.252 281.424 420.966 281.653C420.679 281.882 420.643 282.339 420.858 282.644C421.073 282.911 421.503 282.988 421.79 282.759Z" fill="white"/>
<path d="M419.279 239.745C419.565 239.516 419.601 239.059 419.386 238.754C419.171 238.449 418.741 238.41 418.454 238.639C418.168 238.868 418.132 239.326 418.347 239.631C418.562 239.936 418.992 239.974 419.279 239.745Z" fill="white"/>
<path d="M412.225 135.295C412.511 135.067 412.547 134.609 412.332 134.304C412.117 133.999 411.687 133.961 411.4 134.19C411.114 134.418 411.078 134.876 411.293 135.181C411.508 135.486 411.938 135.524 412.225 135.295Z" fill="white"/>
<path d="M405.446 89.3443C405.733 89.1155 405.769 88.6579 405.554 88.3528C405.339 88.0477 404.908 88.0096 404.622 88.2384C404.335 88.4672 404.299 88.9248 404.514 89.2299C404.765 89.5349 405.159 89.5731 405.446 89.3443Z" fill="white"/>
<path d="M354.085 125.608C354.372 125.38 354.408 124.922 354.192 124.617C353.977 124.312 353.547 124.274 353.261 124.503C352.974 124.731 352.938 125.189 353.153 125.494C353.368 125.799 353.798 125.875 354.085 125.608Z" fill="white"/>
<path d="M363.797 109.023C364.084 108.794 364.119 108.337 363.904 108.031C363.689 107.726 363.259 107.688 362.972 107.917C362.686 108.146 362.65 108.604 362.865 108.909C363.08 109.214 363.51 109.252 363.797 109.023Z" fill="white"/>
<path d="M410.032 164.697C410.318 164.468 410.354 164.01 410.139 163.705C409.924 163.4 409.494 163.362 409.207 163.591C408.92 163.82 408.885 164.277 409.1 164.582C409.351 164.887 409.745 164.926 410.032 164.697Z" fill="white"/>
<path d="M503.047 307.81C503.334 307.581 503.37 307.124 503.155 306.819C502.939 306.514 502.509 306.475 502.223 306.704C501.936 306.933 501.9 307.391 502.115 307.696C502.33 308.001 502.76 308.077 503.047 307.81Z" fill="white"/>
<path d="M483.224 349.188C483.511 348.96 483.547 348.502 483.332 348.197C483.117 347.892 482.686 347.854 482.4 348.083C482.113 348.311 482.077 348.769 482.292 349.074C482.507 349.379 482.937 349.417 483.224 349.188Z" fill="white"/>
<path d="M527.099 343.924C527.386 343.695 527.422 343.237 527.207 342.932C526.992 342.627 526.562 342.589 526.275 342.818C525.988 343.047 525.952 343.504 526.167 343.809C526.382 344.076 526.812 344.153 527.099 343.924Z" fill="white"/>
<path d="M482.542 370.96C482.829 370.731 482.864 370.273 482.649 369.968C482.434 369.663 482.004 369.625 481.718 369.854C481.431 370.082 481.395 370.54 481.61 370.845C481.825 371.15 482.255 371.188 482.542 370.96Z" fill="white"/>
<path d="M641.577 309.832C641.864 309.603 641.9 309.145 641.685 308.84C641.47 308.535 641.039 308.497 640.753 308.726C640.466 308.954 640.43 309.412 640.645 309.717C640.86 310.022 641.29 310.099 641.577 309.832Z" fill="white"/>
<path d="M504.303 201.573C504.589 201.344 504.625 200.886 504.41 200.581C504.195 200.276 503.765 200.238 503.478 200.467C503.191 200.696 503.156 201.153 503.371 201.458C503.586 201.763 504.016 201.802 504.303 201.573Z" fill="white"/>
<path d="M466.809 153.676C467.096 153.447 467.132 152.989 466.917 152.684C466.702 152.379 466.272 152.341 465.985 152.57C465.698 152.799 465.662 153.256 465.878 153.561C466.128 153.866 466.523 153.905 466.809 153.676Z" fill="white"/>
<path d="M622.474 132.132C622.761 131.903 622.797 131.445 622.582 131.14C622.367 130.835 621.937 130.797 621.65 131.026C621.363 131.255 621.327 131.712 621.542 132.017C621.793 132.323 622.187 132.361 622.474 132.132Z" fill="white"/>
<g filter="url(#filter0_d_0_3477)">
<rect x="250" y="120" width="341" height="425" rx="12" fill="#0C9FB3"/>
</g>
<path d="M297.668 524.589V201.242H527.291" stroke="white" stroke-width="2" stroke-dasharray="8.52 8.52"/>
<circle cx="297.242" cy="201.242" r="7.24228" fill="white"/>
<circle cx="297.242" cy="507.122" r="7.24228" fill="white"/>
<circle cx="297.24" cy="462.24" r="4.24" fill="white"/>
<circle cx="297.24" cy="393.24" r="4.24" fill="white"/>
<circle cx="297.24" cy="324.24" r="4.24" fill="white"/>
<circle cx="297.24" cy="263.24" r="4.24" fill="white"/>
<rect x="267" y="155" width="308" height="138" rx="8" fill="white" fill-opacity="0.21"/>
<rect x="267" y="307" width="308" height="58" rx="8" fill="white" fill-opacity="0.21"/>
<rect x="267" y="383" width="308" height="58" rx="8" fill="white" fill-opacity="0.21"/>
<rect x="267" y="459" width="308" height="58" rx="8" fill="white" fill-opacity="0.21"/>
<g filter="url(#filter1_d_0_3477)">
<rect x="149" y="399" width="198" height="177" rx="12" fill="#09566E"/>
</g>
<path d="M224.602 460.124V136.777H454.224" stroke="white" stroke-width="2" stroke-dasharray="8.52 8.52"/>
<circle cx="224.176" cy="136.777" r="7.24228" fill="white"/>
<circle cx="224.176" cy="442.657" r="7.24228" fill="white"/>
<circle cx="224.24" cy="417.24" r="4.24" fill="white"/>
<circle cx="224.24" cy="348.24" r="4.24" fill="white"/>
<circle cx="224.24" cy="279.24" r="4.24" fill="white"/>
<circle cx="224.24" cy="218.24" r="4.24" fill="white"/>
<rect x="168" y="343" width="52.1429" height="54.8996" rx="3" fill="white" fill-opacity="0.26"/>
<rect x="226" y="343" width="52.1429" height="54.8996" rx="3" fill="white" fill-opacity="0.12"/>
<rect x="168" y="421.685" width="140" height="6.76844" fill="white"/>
<rect x="168" y="438.229" width="140" height="6.76844" fill="white" fill-opacity="0.78"/>
<rect x="168" y="454.774" width="140" height="6.76844" fill="white" fill-opacity="0.6"/>
<rect x="168" y="471.32" width="106.429" height="6.76844" fill="white" fill-opacity="0.44"/>
<rect x="456" y="95" width="204.488" height="272.65" rx="12" fill="#D8E9F3"/>
<rect x="505.35" y="73" width="181" height="163" rx="6" fill="white"/>
<rect x="505.35" y="247" width="182" height="12" fill="white"/>
<rect x="505.35" y="268" width="182" height="12" fill="white" fill-opacity="0.69"/>
<rect x="505.35" y="289" width="121" height="12" fill="white" fill-opacity="0.41"/>
</g>
<defs>
<filter id="filter0_d_0_3477" x="207.398" y="111.48" width="426.203" height="510.203" filterUnits="userSpaceOnUse" color-interpolation-filters="sRGB">
<feFlood flood-opacity="0" result="BackgroundImageFix"/>
<feColorMatrix in="SourceAlpha" type="matrix" values="0 0 0 0 0 0 0 0 0 0 0 0 0 0 0 0 0 0 127 0" result="hardAlpha"/>
<feOffset dy="34.0813"/>
<feGaussianBlur stdDeviation="21.3008"/>
<feColorMatrix type="matrix" values="0 0 0 0 0.133819 0 0 0 0 0.173145 0 0 0 0 0.257847 0 0 0 1 0"/>
<feBlend mode="normal" in2="BackgroundImageFix" result="effect1_dropShadow_0_3477"/>
<feBlend mode="normal" in="SourceGraphic" in2="effect1_dropShadow_0_3477" result="shape"/>
</filter>
<filter id="filter1_d_0_3477" x="114.919" y="394.74" width="266.163" height="245.163" filterUnits="userSpaceOnUse" color-interpolation-filters="sRGB">
<feFlood flood-opacity="0" result="BackgroundImageFix"/>
<feColorMatrix in="SourceAlpha" type="matrix" values="0 0 0 0 0 0 0 0 0 0 0 0 0 0 0 0 0 0 127 0" result="hardAlpha"/>
<feOffset dy="29.8211"/>
<feGaussianBlur stdDeviation="17.0406"/>
<feColorMatrix type="matrix" values="0 0 0 0 0.158889 0 0 0 0 0.219245 0 0 0 0 0.374444 0 0 0 0.11 0"/>
<feBlend mode="normal" in2="BackgroundImageFix" result="effect1_dropShadow_0_3477"/>
<feBlend mode="normal" in="SourceGraphic" in2="effect1_dropShadow_0_3477" result="shape"/>
</filter>
<clipPath id="clip0_0_3477">
<rect width="788" height="738" fill="white"/>
</clipPath>
</defs>
</svg>
