<svg width="32" height="32" viewBox="0 0 32 32" fill="none" xmlns="http://www.w3.org/2000/svg">
<path d="M17.3333 26.5838C20.023 26.2416 22.4815 24.888 24.209 22.7982C25.9366 20.7084 26.8036 18.0392 26.6338 15.3331C26.464 12.627 25.2702 10.0872 23.295 8.22968C21.3197 6.3722 18.7114 5.33653 16 5.33317C13.2852 5.33115 10.6719 6.36429 8.69241 8.22207C6.71293 10.0799 5.51628 12.6225 5.34628 15.3319C5.17629 18.0413 6.04574 20.7135 7.77748 22.8042C9.50923 24.8948 11.9729 26.2465 14.6666 26.5838V18.6665H12V15.9998H14.6666V13.7945C14.6666 12.0118 14.8533 11.3652 15.2 10.7132C15.5414 10.0681 16.0692 9.54075 16.7146 9.19984C17.224 8.9265 17.8573 8.7625 18.964 8.69184C19.4026 8.66384 19.9706 8.6985 20.668 8.7985V11.3318H20C18.7773 11.3318 18.272 11.3892 17.9706 11.5505C17.7908 11.643 17.6444 11.7894 17.552 11.9692C17.392 12.2705 17.3333 12.5692 17.3333 13.7932V15.9998H20.6666L20 18.6665H17.3333V26.5838ZM16 29.3332C8.63596 29.3332 2.66663 23.3638 2.66663 15.9998C2.66663 8.63584 8.63596 2.6665 16 2.6665C23.364 2.6665 29.3333 8.63584 29.3333 15.9998C29.3333 23.3638 23.364 29.3332 16 29.3332Z" fill="#E3E6FF"/>
</svg>
