<svg width="1440" height="185" viewBox="0 0 1440 185" fill="none" xmlns="http://www.w3.org/2000/svg">
<path d="M0 184C479.321 184 958.641 184 1437.96 184" stroke="url(#paint0_linear_0_3323)" stroke-width="0.4" stroke-miterlimit="10"/>
<path d="M0 178.867C242.716 178.905 485.312 177.988 727.968 176.949C832.959 176.497 938.669 176.646 1043.65 177.598C1175.06 178.788 1306.54 177.667 1437.92 178.867" stroke="url(#paint1_linear_0_3323)" stroke-width="0.4" stroke-miterlimit="10"/>
<path d="M0 173.81C68.7725 173.81 137.565 173.993 206.328 173.903C267.78 173.824 329.093 172.103 390.526 171.806C504.964 171.254 619.382 171.896 733.81 171.244C835.376 170.664 937.99 169.129 1039.49 171.471C1098.64 172.851 1157.19 173.479 1216.4 174.048C1290.29 174.759 1364.1 172.831 1437.96 173.81" stroke="url(#paint2_linear_0_3323)" stroke-width="0.4" stroke-miterlimit="10"/>
<path d="M0 168.822C67.7839 168.822 135.748 169.215 203.512 168.791C267.191 168.391 330.501 165.586 394.131 164.865C508.789 163.565 622.547 167.28 737.085 166.618C837.872 166.045 937.231 161.395 1038.13 165.555C1097.1 167.987 1154.25 169.891 1213.66 170.447C1288.55 171.137 1363.08 167.78 1437.96 168.822" stroke="url(#paint3_linear_0_3323)" stroke-width="0.4" stroke-miterlimit="10"/>
<path d="M0 163.93C66.5557 163.93 133.601 164.558 200.106 163.692C266.612 162.826 332.169 158.842 398.475 157.555C458.75 156.386 518.175 156.7 578.13 159.246C631.864 161.529 684.06 163.178 738.233 162.93C785.716 162.709 830.203 160.218 877.097 157.897C930.761 155.237 986.012 156.479 1039.18 159.867C1097.69 163.599 1152.89 167.169 1212.64 167.576C1288.01 168.094 1362.54 163.037 1437.96 163.93" stroke="url(#paint4_linear_0_3323)" stroke-width="0.4" stroke-miterlimit="10"/>
<path d="M0 159.108C65.1177 159.108 131.224 159.953 196.232 158.601C265.693 157.159 333.977 151.936 403.288 149.977C462.799 148.273 522.708 149.441 581.286 153.447C633.582 156.973 684.14 160.122 737.594 159.977C787.094 159.843 831.881 155.514 879.933 152.012C934.475 148.038 988.449 149.546 1042.16 154.365C1099.73 159.539 1152.88 165.114 1213.04 165.262C1288.54 165.452 1362.33 158.528 1437.96 159.111" stroke="url(#paint5_linear_0_3323)" stroke-width="0.4" stroke-miterlimit="10"/>
<path d="M0 154.361C63.5799 154.34 128.718 155.396 192.078 153.55C264.815 151.45 335.874 144.968 408.341 142.26C469.155 139.99 525.355 142.101 584.012 147.803C634.231 152.688 682.872 157.58 735.547 157.59C787.633 157.59 833.968 151.087 883.398 146.341C939.708 140.935 991.634 142.508 1046.66 149.038C1102.66 155.682 1154.07 163.527 1214.57 163.354C1289.96 163.12 1362.36 154.202 1437.96 154.361" stroke="url(#paint6_linear_0_3323)" stroke-width="0.4" stroke-miterlimit="10"/>
<path d="M0 149.691C61.9721 149.66 126.131 150.832 187.734 148.563C263.806 145.762 337.522 138.028 413.324 134.537C474.987 131.698 528.511 134.733 586.219 142.329C633.831 148.597 680.595 155.389 732.412 155.603C787.174 155.831 836.544 146.9 887.192 140.887C945.679 133.943 995.619 135.42 1052.14 143.882C1105.96 151.94 1156.15 162.285 1216.9 161.705C1292.03 160.988 1362.52 150.022 1437.94 149.691" stroke="url(#paint7_linear_0_3323)" stroke-width="0.4" stroke-miterlimit="10"/>
<path d="M0 145.096C60.3844 145.054 123.545 146.303 183.48 143.657C262.807 140.156 339.189 131.208 418.147 126.937C481.058 123.533 531.546 127.431 588.036 137.027C632.713 144.616 677.589 153.382 728.687 153.844C786.126 154.358 839.46 142.757 891.276 135.627C918.418 131.912 947.027 128.431 976.616 129.231C1005.57 130.018 1033 134.23 1058.32 138.89C1109.37 148.263 1159.1 161.164 1219.84 160.177C1294.63 158.96 1362.77 145.951 1437.97 145.106" stroke="url(#paint8_linear_0_3323)" stroke-width="0.4" stroke-miterlimit="10"/>
<path d="M0.0493164 140.58C58.9658 140.528 121.098 141.808 179.395 138.855C261.748 134.695 340.517 124.591 422.401 119.583C486.749 115.643 534.322 120.331 589.284 131.904C630.955 140.68 673.954 151.405 724.592 152.133C784.507 152.992 842.425 138.662 895.23 130.552C922.891 126.302 953.398 121.821 984.294 122.808C1013.25 123.732 1040.38 128.783 1064.6 134.019C1112.88 144.464 1162.1 159.97 1223 158.587C1297.47 156.89 1362.98 141.905 1437.98 140.58" stroke="url(#paint9_linear_0_3323)" stroke-width="0.4" stroke-miterlimit="10"/>
<path d="M0.0599365 136.144C57.5684 136.082 118.782 137.362 175.591 134.191C260.631 129.441 341.516 118.272 425.936 112.594C458.081 110.434 488.547 109.185 520.033 112.973C545.686 116.06 568.254 121.48 590.024 126.958C628.968 136.751 670.08 149.311 720.598 150.294C782.71 151.505 845.282 134.578 898.946 125.64C927.086 120.952 959.47 115.522 991.544 116.671C1020.63 117.706 1047.41 123.525 1070.58 129.272C1116.3 140.601 1164.93 158.532 1226.15 156.797C1300.36 154.689 1363.15 137.848 1438.02 136.127" stroke="url(#paint10_linear_0_3323)" stroke-width="0.4" stroke-miterlimit="10"/>
<path d="M0.0698242 131.78C56.37 131.715 116.754 132.988 172.256 129.673C259.452 124.464 341.875 112.335 428.423 106.122C460.677 103.808 491.054 102.373 522.379 106.671C547.793 110.179 569.453 116.199 590.163 122.215C626.821 132.85 666.215 146.986 716.984 148.176C749.428 148.938 782.051 143.091 810.072 138.141C841.157 132.65 871.045 126.392 902.121 120.893C930.681 115.843 964.632 109.648 997.785 110.941C1027.08 112.083 1053.44 118.496 1075.78 124.671C1119.4 136.744 1167.12 156.703 1228.93 154.682C1303 152.267 1363.17 133.75 1438.03 131.766" stroke="url(#paint11_linear_0_3323)" stroke-width="0.4" stroke-miterlimit="10"/>
<path d="M0.079895 127.496C55.3715 127.43 115.117 128.707 169.55 125.33C258.284 119.827 341.666 106.871 429.661 100.272C461.765 97.8571 492.372 96.3152 523.378 100.92C548.762 104.691 569.772 111.228 589.734 117.658C624.864 128.969 662.77 144.278 714.158 145.599C747.49 146.448 781.063 140.114 809.522 134.878C841.647 128.962 872.433 122.228 904.558 116.305C933.517 110.962 968.467 104.28 1002.51 105.643C1032.12 106.829 1058.02 113.642 1079.76 120.172C1122.03 132.863 1168.28 154.254 1231.08 152.098C1305.16 149.556 1363.03 129.552 1438.04 127.51" stroke="url(#paint12_linear_0_3323)" stroke-width="0.4" stroke-miterlimit="10"/>
<path d="M0.0997925 123.287C54.6125 123.232 113.988 124.533 167.622 121.183C257.105 115.595 340.717 101.959 429.391 95.1801C461.056 92.7654 492.232 91.1924 522.799 95.8287C548.392 99.7094 569.113 106.598 588.705 113.301C623.276 125.147 660.064 141.07 712.53 142.353C746.601 143.188 780.264 136.789 809.123 131.314C841.926 125.105 873.282 118.027 906.075 111.811C935.404 106.25 970.504 99.4611 1005.24 100.813C1035.2 101.979 1060.67 108.916 1082.14 115.726C1124.08 129.024 1168.12 150.956 1232.39 148.821C1306.66 146.355 1362.78 125.119 1438.1 123.294" stroke="url(#paint13_linear_0_3323)" stroke-width="0.4" stroke-miterlimit="10"/>
<path d="M0.109802 119.148C54.4228 119.03 113.609 120.493 167.013 117.078C255.887 111.383 338.43 97.3396 426.406 90.4025C457.981 87.9153 489.137 86.4251 519.683 91.0061C545.646 94.9076 566.776 101.879 586.658 108.665C621.868 120.683 659.046 136.81 712.2 138.314C746.512 139.283 779.974 132.963 808.963 127.403C841.817 121.097 873.112 113.88 905.956 107.571C935.424 101.907 970.344 95.2112 1005.34 96.66C1035.5 97.9087 1060.82 104.86 1082.33 111.745C1124.44 125.229 1167.64 146.872 1232.42 144.861C1306.9 142.557 1362.44 120.741 1438.07 119.148" stroke="url(#paint14_linear_0_3323)" stroke-width="0.4" stroke-miterlimit="10"/>
<path d="M0.119751 115.102C54.6624 114.888 113.669 116.733 167.263 113.08C254.559 107.13 335.245 92.8554 421.612 85.6734C453.567 83.0138 483.904 81.6305 514.89 86.2426C541.323 90.1716 563.202 97.0708 583.812 103.797C620.191 115.685 658.936 131.974 712.09 134.026C746.192 135.344 779.774 129.007 808.514 123.45C840.968 117.175 871.794 109.952 904.238 103.67C933.646 97.9746 968.567 91.3307 1003.52 93.052C1033.58 94.5319 1059.27 101.583 1081.08 108.392C1123.41 121.604 1167.86 142.84 1231.86 140.887C1306.52 138.607 1362.24 116.668 1438.05 115.102" stroke="url(#paint15_linear_0_3323)" stroke-width="0.4" stroke-miterlimit="10"/>
<path d="M0.139893 111.124C54.9921 110.869 113.839 113.229 167.762 109.362C253.281 103.228 331.86 88.7677 416.41 81.4201C448.634 78.6121 478.262 77.3599 509.598 81.9134C536.44 85.8148 559.197 92.5346 580.577 99.2095C618.174 110.938 658.706 127.168 711.811 129.718C745.603 131.342 778.926 125.137 807.405 119.603C839.31 113.394 869.487 106.216 901.372 100.01C930.691 94.3042 965.282 87.8501 1000.07 89.8163C1030.17 91.5204 1056.31 98.6024 1078.61 105.339C1121.5 118.275 1167.42 138.98 1230.93 137.055C1305.91 134.785 1361.94 112.704 1438.08 111.145" stroke="url(#paint16_linear_0_3323)" stroke-width="0.4" stroke-miterlimit="10"/>
<path d="M0.15979 107.223C55.3915 106.978 114.208 109.962 168.511 105.898C252.073 99.651 328.365 85.0421 410.928 77.5668C443.282 74.6381 472.35 73.5377 503.946 77.9601C531.267 81.7822 554.874 88.3088 577.082 94.863C616.247 106.381 658.197 122.377 711.452 125.395C744.844 127.286 777.578 121.349 805.778 115.854C836.984 109.769 866.392 102.652 897.578 96.5602C926.786 90.8511 960.708 84.7178 995.289 86.9014C1025.53 88.8159 1052.21 95.8703 1075.18 102.514C1118.92 115.164 1166.48 135.233 1229.65 133.319C1305.09 131.032 1361.55 108.803 1438.15 107.233" stroke="url(#paint17_linear_0_3323)" stroke-width="0.4" stroke-miterlimit="10"/>
<path d="M0.169678 103.397C55.8507 103.204 114.647 106.905 169.44 102.666C250.904 96.3633 324.77 81.6233 405.205 74.1066C437.54 71.0779 466.209 70.1362 497.964 74.3654C525.775 78.0702 550.21 84.3691 573.327 90.7233C614.269 101.979 657.498 117.592 710.952 121.045C775.461 125.216 840.648 103.511 892.924 93.2794C922.023 87.5807 955.026 81.8716 989.307 84.2622C1019.78 86.3906 1047.03 93.376 1070.78 99.9198C1115.64 112.273 1164.97 131.625 1227.98 129.7C1303.98 127.382 1360.98 104.991 1438.13 103.397" stroke="url(#paint18_linear_0_3323)" stroke-width="0.4" stroke-miterlimit="10"/>
<path d="M0.189758 99.6511C56.3601 99.5441 115.167 104.039 170.528 99.6511C249.806 93.3453 321.125 78.5362 399.324 70.9955C431.548 67.8908 459.938 67.1181 491.783 71.1024C520.103 74.652 545.387 80.6715 569.413 86.8256C612.132 97.7607 656.649 112.853 710.373 116.733C773.903 121.314 836.284 100.238 887.592 90.1716C915.962 84.6144 949.035 79.0123 982.377 81.8754C1013.33 84.5316 1040.6 90.972 1065.71 97.5261C1111.85 109.565 1163.08 128.134 1226.09 126.189C1302.74 123.826 1360.35 101.265 1438.15 99.6269" stroke="url(#paint19_linear_0_3323)" stroke-width="0.4" stroke-miterlimit="10"/>
<path d="M0.209656 95.9773C56.9093 95.9773 115.776 101.335 171.756 96.7845C248.777 90.5235 317.48 75.6524 393.372 68.153C525.185 55.1171 593.948 103.242 709.734 112.452C772.145 117.423 831.371 97.1053 881.75 87.243C909.99 81.7237 941.785 76.6976 974.708 79.7229C1006.05 82.6033 1033.96 88.9022 1060.08 95.3323C1107.66 107.061 1160.87 124.785 1224.01 122.808C1301.38 120.393 1359.66 97.6573 1438.18 95.9773" stroke="url(#paint20_linear_0_3323)" stroke-width="0.4" stroke-miterlimit="10"/>
<path d="M0.229675 92.383C57.4785 92.5279 116.445 98.7647 173.095 94.0802C247.819 87.902 313.895 72.9964 387.421 65.5625C516.508 52.5162 595.126 98.3335 709.045 108.203C770.378 113.522 826.049 94.1043 875.509 84.4317C903.629 78.9331 934.036 74.5694 966.49 77.7326C998.255 80.8372 1026.87 86.9775 1054.04 93.273C1103.15 104.657 1158.39 121.528 1221.8 119.507C1299.92 117.02 1358.93 94.1181 1438.21 92.383" stroke="url(#paint21_linear_0_3323)" stroke-width="0.4" stroke-miterlimit="10"/>
<path d="M0.249634 88.864C58.0677 89.1572 117.154 96.3047 174.513 91.5029C246.95 85.4385 310.32 70.5157 381.569 63.1819C507.92 50.1735 596.265 93.4864 708.336 104.015C768.57 109.672 820.457 91.2097 869.048 81.7268C897.068 76.2592 925.967 72.5958 957.922 75.8625C990.126 79.1707 1019.48 85.1764 1047.72 91.3166C1098.41 102.355 1155.69 118.348 1219.42 116.281C1298.31 113.718 1358.1 90.644 1438.17 88.8502" stroke="url(#paint22_linear_0_3323)" stroke-width="0.4" stroke-miterlimit="10"/>
<path d="M0.269531 85.4215C58.6468 85.8665 117.903 93.9281 176.02 89.0263C246.221 83.0999 306.975 68.1701 375.927 60.9605C499.592 48.0281 597.383 88.74 707.617 99.8993C766.763 105.888 814.755 88.4088 862.517 79.1087C890.418 73.6757 917.909 70.7332 949.334 74.1172C981.988 77.6358 1012.12 83.4897 1041.41 89.4782C1093.69 100.172 1152.99 115.281 1217.11 113.163C1296.83 110.527 1357.37 87.2911 1438.23 85.4215" stroke="url(#paint23_linear_0_3323)" stroke-width="0.4" stroke-miterlimit="10"/>
<path d="M0.289551 82.0583C59.206 82.6516 118.662 91.6068 177.448 86.6221C245.492 80.851 303.679 65.9247 370.435 58.8565C491.653 46.0241 598.512 84.0867 706.958 95.8704C765.025 102.183 809.113 85.6873 856.096 76.5528C883.877 71.1542 910.02 68.9327 940.846 72.4133C973.949 76.1458 1004.84 81.8651 1035.18 87.688C1089 98.0161 1150.27 112.273 1214.84 110.11C1295.35 107.402 1356.64 83.9763 1438.29 82.0652" stroke="url(#paint24_linear_0_3323)" stroke-width="0.4" stroke-miterlimit="10"/>
<path d="M0.30957 78.7672C59.8152 79.5019 119.411 89.316 178.916 84.2624C244.913 78.6568 300.644 63.7408 365.322 56.8244C484.214 44.1093 599.62 79.5295 706.249 91.9377C763.348 98.5815 803.491 82.9998 849.825 74.0482C877.516 68.7013 902.291 67.149 932.598 70.7297C966.13 74.676 997.766 80.2816 1029.1 85.9354C1084.39 95.9081 1147.55 109.327 1212.57 107.109C1293.85 104.332 1355.85 80.7369 1438.25 78.7672" stroke="url(#paint25_linear_0_3323)" stroke-width="0.4" stroke-miterlimit="10"/>
<path d="M0.32959 75.5557C60.3944 76.4112 120.16 87.0324 180.334 81.927C244.444 76.4905 297.868 61.5745 360.609 54.8203C421.473 48.2661 486.221 55.6654 543.07 63.5718C597.892 71.1988 650.009 81.2026 705.65 88.119C762.03 95.1286 797.989 80.2816 843.974 71.5611C905.037 59.9877 967.578 74.6657 1023.47 84.1831C1080.1 93.8143 1145.04 106.433 1210.48 104.166C1292.48 101.331 1355.16 77.5702 1438.29 75.5522" stroke="url(#paint26_linear_0_3323)" stroke-width="0.4" stroke-miterlimit="10"/>
<path d="M0.349426 72.4166C60.9735 73.3721 120.749 84.7281 181.692 79.5848C244.094 74.3139 295.391 59.4082 356.445 52.8023C416.749 46.2688 483.205 53.3646 540.324 60.6052C596.255 67.6976 649.489 77.0632 705.12 84.4315C760.751 91.7998 793.245 77.6806 838.641 69.0843C898.316 57.7869 963.464 73.5688 1018.39 82.4169C1076.2 91.7308 1142.79 103.584 1208.6 101.286C1291.23 98.3988 1354.53 74.4794 1438.27 72.4166" stroke="url(#paint27_linear_0_3323)" stroke-width="0.4" stroke-miterlimit="10"/>
<path d="M0.369507 69.3569C61.5628 70.3918 121.288 82.3825 182.941 77.2082C243.854 72.0993 293.264 57.2006 352.7 50.7223C412.545 44.2199 480.519 51.0259 537.897 57.6663C594.817 64.2585 649.12 73.0618 704.661 80.882C730.864 84.5696 750.067 84.7213 775.401 79.9644C795.992 76.0974 813.407 70.4815 833.968 66.5869C861.399 61.385 883.248 61.5298 911.977 65.3968C946.498 70.0503 980.131 75.4006 1014 80.5991C1072.79 89.5956 1140.82 100.758 1206.93 98.4403C1290.13 95.522 1353.96 71.4439 1438.3 69.3569" stroke="url(#paint28_linear_0_3323)" stroke-width="0.4" stroke-miterlimit="10"/>
<path d="M0.389404 66.3694C62.1518 67.4043 121.697 79.9677 184.069 74.7761C243.774 69.8052 291.497 54.8513 349.734 48.5386C409.27 42.0844 478.492 48.6076 536.1 54.7478C593.708 60.8881 649.02 69.236 704.381 77.515C729.965 81.3406 748.669 81.8822 773.783 77.1494C793.695 73.3962 810.311 67.8562 830.173 64.0755C857.454 58.8804 878.964 59.4323 907.194 63.427C941.885 68.3357 976.036 73.6756 1010.55 78.7293C1070.07 87.4429 1139.43 97.9848 1205.64 95.6598C1289.3 92.7242 1353.56 68.5013 1438.31 66.4005" stroke="url(#paint29_linear_0_3323)" stroke-width="0.4" stroke-miterlimit="10"/>
<path d="M0.409363 63.4649C62.751 64.4722 121.957 77.4702 185.028 72.2648C243.844 67.4043 290.079 52.3366 347.507 46.2102C406.963 39.8595 476.934 46.086 534.902 51.7881C593.339 57.5317 649.13 65.5312 704.262 74.2656C729.326 78.2326 747.82 79.0674 772.745 74.3345C792.117 70.6607 808.064 65.1552 827.377 61.4469C854.529 56.2346 876.018 57.0798 903.819 61.2262C938.559 66.4005 973.11 71.7543 1008.15 76.701C1068.07 85.1628 1138.59 95.1596 1204.74 92.8519C1288.73 89.9197 1353.3 65.5588 1438.41 63.4649" stroke="url(#paint30_linear_0_3323)" stroke-width="0.4" stroke-miterlimit="10"/>
<path d="M0.429382 60.6329C63.3402 61.5471 122.037 74.859 185.807 69.6398C244.014 64.8759 289.25 49.7426 345.99 43.6886C405.256 37.369 476.145 43.461 534.263 48.8078C593.299 54.2409 649.34 62.0231 704.212 71.23C728.867 75.3695 747.46 76.3699 772.255 71.606C791.228 67.9598 806.676 62.4509 825.62 58.7702C852.671 53.513 874.46 54.5065 901.931 58.8426C936.602 64.3136 971.413 69.7053 1006.84 74.5692C1066.94 82.8172 1138.28 92.3656 1204.16 90.0923C1288.35 87.1912 1353.08 62.6992 1438.39 60.6329" stroke="url(#paint31_linear_0_3323)" stroke-width="0.4" stroke-miterlimit="10"/>
<path d="M0.459473 57.8731C63.6898 58.6941 121.977 72.1509 186.136 66.8834C244.144 62.123 289.11 47.0035 345.67 40.984C404.876 34.6851 476.085 40.9012 534.223 46.1342C593.469 51.4673 649.33 59.1909 704.272 68.4392C728.837 72.5787 747.69 73.4411 772.315 68.7082C791.159 65.0862 806.507 59.6255 825.35 55.9931C852.312 50.798 874.5 51.7639 901.712 56.2242C936.233 61.8815 971.084 67.3146 1006.66 72.1302C1066.47 80.2264 1138.74 89.6679 1204.11 87.3084C1288.18 84.2796 1353.33 60.2016 1438.42 57.8835" stroke="url(#paint32_linear_0_3323)" stroke-width="0.4" stroke-miterlimit="10"/>
<path d="M0.479248 55.1583C63.8494 55.9379 121.967 69.4843 186.276 64.1547C244.194 59.3529 289.39 44.3611 345.989 38.3795C405.196 32.122 476.245 38.6106 534.293 43.8781C593.349 49.2388 648.97 56.9486 704.292 65.7588C756.657 74.0964 782.611 61.2744 825.739 53.2782C852.701 48.2798 875.03 49.1905 901.991 53.668C936.363 59.3771 971.153 64.7964 1006.72 69.5568C1066.18 77.5115 1139.38 86.9978 1204.29 84.4383C1288 81.1336 1353.95 58.0352 1438.47 55.21" stroke="url(#paint33_linear_0_3323)" stroke-width="0.4" stroke-miterlimit="10"/>
<path d="M0.499329 52.485C64.0592 53.237 122.037 66.8835 186.546 61.5091C244.463 56.6797 289.839 41.8465 346.469 35.9201C405.675 29.7109 476.515 36.4479 534.472 41.7327C593.299 47.0968 648.71 54.7721 704.352 63.1373C756.278 70.9471 783.16 58.3527 826.319 50.7188C853.28 45.9377 875.808 46.8208 902.531 51.3053C936.742 57.0454 971.433 62.4232 1006.99 67.1009C1066.21 74.8935 1140.14 84.2798 1204.51 81.5477C1287.8 78.0153 1354.56 55.9208 1438.46 52.6471" stroke="url(#paint34_linear_0_3323)" stroke-width="0.4" stroke-miterlimit="10"/>
<path d="M0.519287 49.86C64.2989 50.5913 122.187 64.3482 186.935 58.9496C244.783 54.1271 290.428 39.463 347.098 33.5987C406.304 27.4929 476.914 34.399 534.762 39.6872C593.309 45.034 648.601 52.6507 704.441 60.5537C755.998 67.8426 783.799 55.5276 827.068 48.249C854.099 43.7059 876.797 44.589 903.319 49.07C937.341 54.8205 971.962 60.1363 1007.46 64.7035C1066.53 72.3098 1140.91 81.465 1204.84 78.5915C1287.72 74.8694 1355.25 53.8132 1438.51 50.136" stroke="url(#paint35_linear_0_3323)" stroke-width="0.4" stroke-miterlimit="10"/>
<path d="M0.539185 47.2793C64.5884 48.0037 122.366 61.8676 187.444 56.4655C245.242 51.6706 291.167 37.172 347.887 31.425C407.073 25.4262 477.323 32.4875 535.151 37.7585C593.379 43.0708 648.501 50.6081 704.571 58.0351C755.739 64.8135 784.518 52.8228 827.986 45.9374C855.108 41.6392 877.985 42.5534 904.338 47.0206C938.094 52.8002 972.732 57.943 1008.1 62.4264C1067.12 69.8223 1141.71 78.6394 1205.27 75.6348C1287.61 71.7609 1355.97 51.7672 1438.5 47.7415" stroke="url(#paint36_linear_0_3323)" stroke-width="0.4" stroke-miterlimit="10"/>
<path d="M0.569275 44.7477C64.9081 45.4721 122.666 59.4567 188.063 54.0615C245.812 49.3046 292.046 34.9992 348.836 29.3695C408.002 23.5052 477.953 30.6769 535.671 35.9237C593.589 41.1808 648.561 48.6147 704.761 55.5587C755.549 61.8369 785.367 50.2015 829.095 43.7335C856.346 39.7009 879.393 40.6668 905.596 45.1133C939.149 50.8547 973.661 55.9011 1008.95 60.2259C1068 67.3907 1142.58 75.7283 1205.8 72.6444C1287.61 68.6532 1356.75 49.753 1438.56 45.4134" stroke="url(#paint37_linear_0_3323)" stroke-width="0.4" stroke-miterlimit="10"/>
<path d="M0.589172 42.2708C65.2575 42.9987 123.006 57.104 188.772 51.7502C246.481 47.0519 293.045 32.9535 349.854 27.4583C408.99 21.7389 478.572 28.9968 536.24 34.1988C593.728 39.3732 648.68 46.6897 704.941 53.1404C755.369 58.9253 786.285 47.6866 830.313 41.6568C857.714 37.9036 880.941 38.942 907.034 43.3816C940.357 49.068 974.714 54.001 1009.89 58.1492C1069.03 65.0483 1143.39 72.8306 1206.34 69.6742C1287.58 65.6037 1357.47 47.8177 1438.54 43.2125" stroke="url(#paint38_linear_0_3323)" stroke-width="0.4" stroke-miterlimit="10"/>
<path d="M0.609131 39.8422C65.6369 40.5873 123.435 54.8271 189.581 49.501C247.249 44.8854 294.153 31.0112 351.022 25.6644C410.119 20.1106 479.321 27.4202 536.859 32.5635C593.948 37.6689 648.84 44.8199 705.12 50.7739C755.199 56.069 787.274 45.2545 831.631 39.6869C859.202 36.2373 882.609 37.355 908.622 41.7567C941.724 47.3757 975.938 52.1769 1011.01 56.1242C1070.34 62.7577 1144.28 69.8811 1207 66.6695C1287.65 62.53 1358.25 45.8996 1438.57 41.0564" stroke="url(#paint39_linear_0_3323)" stroke-width="0.4" stroke-miterlimit="10"/>
<path d="M0.629028 37.4689C66.0463 38.2347 123.834 52.6125 190.47 47.3588C248.098 42.8122 295.371 29.1726 352.3 23.9914C411.347 18.6204 480.119 25.9542 537.578 31.0319C594.267 36.0442 649.11 43.0158 705.34 48.4661C755.08 53.2955 788.382 42.9226 833.089 37.8345C860.85 34.6781 884.436 35.9165 910.389 40.2492C943.26 45.7831 977.312 50.4376 1012.24 54.1717C1071.81 60.5017 1145.15 66.8903 1207.69 63.6408C1287.74 59.5013 1359.01 44.0127 1438.57 38.9694" stroke="url(#paint40_linear_0_3323)" stroke-width="0.4" stroke-miterlimit="10"/>
<path d="M0.64917 35.1544C66.4759 35.9478 124.324 50.4637 191.379 45.2824C249.037 40.8428 296.68 27.4377 353.679 22.4359C412.665 17.2615 480.958 24.5918 538.417 29.5937C594.687 34.499 649.489 41.2705 705.66 46.2138C755.06 50.5637 789.661 40.6738 834.737 36.0893C862.697 33.2468 886.453 34.606 912.387 38.9179C945.019 44.3546 978.9 48.8465 1013.68 52.3471C1073.48 58.3528 1146.08 63.955 1208.48 60.6675C1287.9 56.5039 1359.81 42.2226 1438.61 37.0069" stroke="url(#paint41_linear_0_3323)" stroke-width="0.4" stroke-miterlimit="10"/>
<path d="M0.669067 32.9084C66.9052 33.7259 124.823 48.3797 192.467 43.2847C250.036 38.9451 298.077 25.8023 355.137 20.9901C414.053 16.0193 481.877 23.3324 539.206 28.2342C595.066 33.0222 649.829 39.5695 705.879 44.0091C754.97 47.9002 790.939 38.4898 836.364 34.4331C864.524 31.9115 888.471 33.3982 914.414 37.6791C946.799 43.0071 980.499 47.3236 1015.11 50.5771C1075.3 56.2344 1146.99 60.9603 1209.3 57.6798C1288.1 53.5403 1360.58 40.4595 1438.63 35.0954" stroke="url(#paint42_linear_0_3323)" stroke-width="0.4" stroke-miterlimit="10"/>
<path d="M0.689026 30.7008C67.4044 31.5666 125.432 46.3618 193.556 41.3634C251.114 37.1446 299.575 24.2639 356.674 19.6518C415.541 14.9017 482.855 22.1734 540.104 26.9925C595.546 31.6597 650.268 37.9587 706.169 41.8946C754.97 45.3442 792.357 36.4409 838.122 32.9257C866.492 30.7353 890.617 32.3807 916.601 36.603C948.74 41.8115 982.253 45.9412 1016.68 48.9352C1077.23 54.22 1147.93 58.0387 1210.15 54.7547C1288.34 50.6324 1361.34 38.8004 1438.65 33.3121" stroke="url(#paint43_linear_0_3323)" stroke-width="0.4" stroke-miterlimit="10"/>
<path d="M0.708984 28.5656C67.9037 29.4762 126.031 44.4129 194.724 39.5249C252.232 35.4302 301.083 22.822 358.282 18.4204C417.069 13.8945 483.864 21.1145 541.023 25.8266C596.065 30.3628 650.718 36.3961 706.439 39.8284C754.99 42.8192 793.825 34.454 839.939 31.4632C868.509 29.6108 892.804 31.4184 918.877 35.6027C950.766 40.6817 984.085 44.6119 1018.31 47.3312C1079.22 52.2158 1148.84 55.0859 1211.03 51.8157C1288.61 47.7417 1362.07 37.1584 1438.67 31.5598" stroke="url(#paint44_linear_0_3323)" stroke-width="0.4" stroke-miterlimit="10"/>
<path d="M0.728943 26.496C68.393 27.455 126.67 42.5331 195.892 37.7623C253.411 33.7987 302.671 21.47 359.94 17.2856C418.646 12.9978 484.913 20.1453 542.032 24.7471C596.684 29.1522 651.257 34.8957 706.798 37.8278C755.139 40.3771 795.452 32.5569 841.897 30.118C870.676 28.6037 895.141 30.5837 921.314 34.706C952.955 39.6536 986.078 43.381 1020.08 45.8205C1081.41 50.2808 1149.84 52.1712 1212.01 48.9251C1288.9 44.9029 1362.8 35.596 1438.69 29.9042" stroke="url(#paint45_linear_0_3323)" stroke-width="0.4" stroke-miterlimit="10"/>
<path d="M0.748901 24.4915C68.9023 25.5022 127.329 40.7045 197.121 36.0786C254.639 32.253 304.309 20.2037 361.647 16.247C420.274 12.211 486.001 19.2688 543.05 23.7533C597.333 28.0204 651.806 33.4569 707.107 35.8923C755.279 38.0138 797.06 30.749 843.804 28.8621C872.763 27.6927 897.418 29.8521 923.69 33.9226C955.085 38.7295 988.009 42.2435 1021.78 44.3921C1083.49 48.4039 1150.72 49.2974 1212.89 46.0755C1289.22 42.1223 1363.41 34.102 1438.64 28.3274" stroke="url(#paint46_linear_0_3323)" stroke-width="0.4" stroke-miterlimit="10"/>
<path d="M0.768921 22.5598C69.4216 23.6223 128.019 38.9798 198.369 34.4747C255.877 30.7871 305.986 19.0275 363.395 15.3157C421.922 11.5212 487.099 18.4997 544.139 22.86C598.062 26.9994 652.415 32.1014 707.487 34.0435C755.569 35.7407 798.778 29.0416 845.881 27.7101C875.05 26.8856 899.804 29.2348 926.327 33.2501C957.48 37.9137 990.202 41.2097 1023.73 43.0607C1164.53 51.0947 1302.5 37.5414 1438.78 26.8477" stroke="url(#paint47_linear_0_3323)" stroke-width="0.4" stroke-miterlimit="10"/>
<path d="M0.788818 20.6904C69.9508 21.8115 128.717 37.3036 199.647 32.9399C257.155 29.4006 307.694 17.9342 365.172 14.4398C423.599 10.8867 488.228 17.779 545.147 22.0116C598.761 26.0097 652.954 30.7804 707.777 32.2189C755.848 33.4918 800.415 27.3895 847.868 26.5961C877.206 26.1131 902.171 28.6658 928.843 32.6225C959.64 37.2208 992.343 40.1529 1025.55 41.7742C1162.76 48.4767 1305.88 36.0341 1438.75 25.4129" stroke="url(#paint48_linear_0_3323)" stroke-width="0.4" stroke-miterlimit="10"/>
<path d="M0.808838 18.8964C70.4801 20.0761 129.427 35.7027 200.935 31.4839C258.454 28.0792 309.411 16.9198 366.96 13.6599C425.287 10.3587 489.356 17.1578 546.216 21.249C599.54 25.0953 653.544 29.528 708.116 30.4973C756.278 31.3528 802.103 25.8266 849.915 25.5955C879.423 25.454 904.548 28.2068 931.43 32.1152C962.026 36.5617 994.51 39.242 1027.43 40.5735C1090.15 43.109 1153.75 40.9495 1215.96 37.8483C1290.59 34.1263 1365.33 30.042 1438.77 24.05" stroke="url(#paint49_linear_0_3323)" stroke-width="0.4" stroke-miterlimit="10"/>
<path d="M0.828857 17.1749C70.4102 18.3926 129.277 34.0467 200.716 30.1901C258.004 27.0855 309.062 16.3608 366.161 13.1078C423.879 9.82035 486.66 16.3435 543.02 20.2829C597.503 24.0775 652.695 28.317 708.466 28.8482C757.976 29.3208 806.217 24.0982 855.617 24.7087C885.435 25.0778 910.29 28.4446 937.621 32.184C966.011 36.0682 995.988 38.2932 1026.31 39.3453C1090.83 41.584 1154.83 38.2828 1218.59 35.1678C1292.19 31.5734 1366.44 28.8068 1438.82 22.7977" stroke="url(#paint50_linear_0_3323)" stroke-width="0.4" stroke-miterlimit="10"/>
<path d="M0.838806 15.5297C70.8995 16.8061 130.006 32.5913 201.974 28.883C259.272 25.9302 310.74 15.4883 367.928 12.4734C425.527 9.45159 487.808 15.8816 544.089 19.6934C598.312 23.3706 653.294 27.2824 708.775 27.2824C758.575 27.2824 807.885 22.7532 857.694 23.9088C887.552 24.5987 912.616 28.1586 940.157 31.8186C968.357 35.5649 998.135 37.5553 1028.19 38.3418C1092.93 40.0355 1155.82 35.6787 1219.57 32.65C1292.69 29.1763 1366.93 27.6964 1438.8 21.6113" stroke="url(#paint51_linear_0_3323)" stroke-width="0.4" stroke-miterlimit="10"/>
<path d="M0.858765 13.9633C71.4487 15.2983 130.675 31.2112 203.252 27.6477C260.571 24.8329 312.437 14.6842 369.706 11.9039C427.184 9.10628 488.977 15.4914 545.227 19.179C599.151 22.7218 653.923 26.2817 709.115 25.7781C759.274 25.3193 809.552 21.4696 859.781 23.1633C889.679 24.174 914.943 27.9237 942.664 31.5044C970.624 35.1161 1000.26 36.8719 1030.04 37.3928C1094.95 38.5346 1156.8 33.1429 1220.53 30.197C1293.19 26.8371 1367.32 26.6508 1438.77 20.4899" stroke="url(#paint52_linear_0_3323)" stroke-width="0.4" stroke-miterlimit="10"/>
<path d="M0.878784 12.4767C71.958 13.8565 131.434 29.9039 204.52 26.4889C261.849 23.8085 314.115 13.9359 371.473 11.4039C428.832 8.87188 490.125 15.1708 546.226 18.7308C600.019 22.1458 654.532 25.3712 709.424 24.3605C760.023 23.4291 811.16 20.2693 861.808 22.4943C891.766 23.8085 917.21 27.7618 945.19 31.2596C973.17 34.7575 1002.43 36.2615 1031.93 36.5237C1096.84 37.1067 1157.87 30.7042 1221.53 27.8411C1293.77 24.5916 1367.84 25.6955 1438.81 19.4448" stroke="url(#paint53_linear_0_3323)" stroke-width="0.4" stroke-miterlimit="10"/>
<path d="M0.888672 11.0695C72.4572 12.5184 132.143 28.6624 205.748 25.406C263.107 22.8567 315.752 13.2842 373.191 10.966C430.39 8.65828 491.303 14.9158 547.304 18.355C600.938 21.6459 655.151 24.5332 709.774 23.0258C760.871 21.6149 812.768 19.1415 863.865 21.8874C893.733 23.4949 919.476 27.6551 947.657 31.0736C975.317 34.4266 1004.58 35.7168 1033.75 35.7271C1098.66 35.7547 1158.92 28.3726 1222.49 25.5853C1294.38 22.4324 1368.28 24.823 1438.81 18.4723" stroke="url(#paint54_linear_0_3323)" stroke-width="0.4" stroke-miterlimit="10"/>
<path d="M0.898743 9.74805C72.9466 11.2452 132.812 27.5237 206.947 24.3915C264.335 21.9768 317.36 12.6629 374.869 10.5932C432.008 8.52345 492.312 14.7327 548.323 18.0512C601.847 21.211 655.79 23.774 710.093 21.7767C761.74 19.8795 814.306 18.0926 865.872 21.349C895.73 23.229 921.693 27.5996 950.083 30.9388C977.614 34.1745 1006.62 35.2335 1035.53 34.9989C1100.34 34.4781 1159.97 26.1508 1223.45 23.4291C1294.93 20.3658 1368.64 24.0431 1438.84 17.5648" stroke="url(#paint55_linear_0_3323)" stroke-width="0.4" stroke-miterlimit="10"/>
<path d="M0.918701 8.50977C73.4159 10.0586 133.491 26.4476 208.115 23.4533C265.534 21.1456 318.958 12.1318 376.496 10.2587C433.515 8.40283 493.331 14.6017 549.311 17.796C602.736 20.8351 656.409 23.0773 710.403 20.6005C762.629 18.2065 815.843 17.0958 867.77 20.8523C897.598 23.0083 923.78 27.5859 952.42 30.8561C979.781 33.9607 1008.64 34.8162 1037.3 34.3436C1101.94 33.2846 1161.05 24.0536 1224.42 21.3905C1295.57 18.3997 1369.06 23.3533 1438.92 16.7474" stroke="url(#paint56_linear_0_3323)" stroke-width="0.4" stroke-miterlimit="10"/>
<path d="M0.928711 7.35742C73.8254 8.95458 134.12 25.4608 209.223 22.5873C266.672 20.3865 320.396 11.6452 378.064 9.9791C434.983 8.3371 494.359 14.5256 550.25 17.6096C603.604 20.5589 657.009 22.4631 710.683 19.5172C763.518 16.6195 817.211 16.1711 869.587 20.4141C899.355 22.8288 925.788 27.6133 954.617 30.8076C981.838 33.8226 1010.54 34.4469 1038.9 33.7501C1103.31 32.1668 1162.01 22.0837 1225.26 19.4551C1296.16 16.5195 1369.35 22.7425 1438.9 15.9779" stroke="url(#paint57_linear_0_3323)" stroke-width="0.4" stroke-miterlimit="10"/>
<path d="M0.938599 6.29834C74.2946 7.93344 134.749 24.55 210.272 21.7904C267.77 19.693 321.824 11.2105 379.552 9.74792C436.381 8.30944 495.298 14.498 551.139 17.4853C604.443 20.3381 657.588 21.9249 710.962 18.5202C764.336 15.1155 818.56 15.3155 871.345 20.0277C901.043 22.6804 927.735 27.6167 956.724 30.7972C983.685 33.7604 1012.42 34.133 1040.44 33.2119C1104.58 31.1422 1162.96 20.245 1226.08 17.6509C1296.67 14.7498 1369.65 22.2319 1438.9 15.2845" stroke="url(#paint58_linear_0_3323)" stroke-width="0.4" stroke-miterlimit="10"/>
<path d="M0.998657 5.31201C74.7541 6.98161 135.338 23.7086 211.311 21.0559C268.789 19.0586 323.162 10.8313 380.96 9.55844C437.66 8.30969 496.197 14.5189 551.978 17.42C605.252 20.1797 658.147 21.4664 711.212 17.6132C765.275 13.691 819.818 14.5086 872.982 19.6829C902.62 22.5599 929.542 27.6825 958.701 30.8182C985.553 33.7055 1014.14 33.8711 1041.86 32.7637C1072.11 31.5529 1101.6 28.7795 1130.64 25.7025C1161.97 22.3874 1194.22 17.3303 1226.86 15.9919C1297.21 13.1046 1369.94 21.8286 1438.91 14.6742" stroke="url(#paint59_linear_0_3323)" stroke-width="0.4" stroke-miterlimit="10"/>
<path d="M0.998657 4.44971C75.1136 6.1469 135.808 22.9808 212.219 20.4178C269.748 18.486 324.41 10.4865 382.278 9.4033C438.888 8.33048 497.006 14.5777 552.737 17.4063C606.011 20.1039 658.696 21.087 711.452 16.7992C766.104 12.3561 821.006 13.767 874.56 19.3898C904.068 22.4944 931.22 27.7723 960.528 30.8631C987.271 33.6814 1015.73 33.6607 1043.18 32.3637C1073.37 30.9424 1102.69 27.9275 1131.56 24.6539C1162.66 21.1284 1194.96 15.8092 1227.59 14.4604C1297.72 11.5662 1370.22 21.5148 1438.92 14.1154" stroke="url(#paint60_linear_0_3323)" stroke-width="0.4" stroke-miterlimit="10"/>
<path d="M0.998657 3.6665C75.4531 5.39129 136.307 22.3253 213.048 19.8381C270.616 17.9684 325.539 10.2103 383.456 9.28241C439.986 8.37518 497.714 14.6948 553.406 17.451C606.69 20.083 659.186 20.7902 711.631 16.0712C766.913 11.1141 822.065 13.0804 875.998 19.1344C905.397 22.4322 932.748 27.8722 962.206 30.9285C988.838 33.6882 1017.13 33.495 1044.38 32.0289C1074.5 30.4076 1103.67 27.165 1132.38 23.712C1163.28 19.9968 1195.62 14.443 1228.25 13.0735C1298.15 10.1414 1370.48 21.3007 1438.95 13.6358" stroke="url(#paint61_linear_0_3323)" stroke-width="0.4" stroke-miterlimit="10"/>
<path d="M0.998657 2.97998C75.7627 4.70477 136.716 21.756 213.787 19.3275C271.425 17.5096 326.627 9.96537 384.605 9.18922C441.075 8.43031 498.443 14.8431 554.075 17.5441C607.379 20.1278 659.725 20.5728 711.851 15.4502C767.702 9.96192 822.993 12.4456 877.306 18.8998C906.605 22.3873 934.136 27.9687 963.714 30.9974C990.256 33.7122 1018.45 33.3673 1045.44 31.746C1075.52 29.9384 1104.52 26.4888 1133.11 22.8702C1163.84 18.9757 1196.19 13.2321 1228.87 11.8316C1298.63 8.83736 1370.78 21.1799 1438.95 13.2114" stroke="url(#paint62_linear_0_3323)" stroke-width="0.4" stroke-miterlimit="10"/>
<path d="M0.998657 2.39355C76.0523 4.11834 137.066 21.2765 214.436 18.886C272.084 17.106 327.536 9.76185 385.563 9.10643C441.974 8.48206 498.963 15.0087 554.594 17.6717C607.928 20.2244 660.174 20.4314 712.001 14.9121C768.431 8.89945 823.752 11.8523 878.465 18.7066C907.633 22.3631 935.324 28.0722 965.012 31.0802C991.475 33.764 1019.52 33.288 1046.33 31.5287C1076.36 29.5521 1105.24 25.9162 1133.71 22.1458C1164.3 18.0926 1196.62 12.2007 1229.39 10.7622C1299 7.67485 1371.06 21.1799 1438.96 12.8596" stroke="url(#paint63_linear_0_3323)" stroke-width="0.4" stroke-miterlimit="10"/>
<path d="M0.998657 1.90381C75.6828 3.6286 136.497 20.7868 213.418 18.5618C274.201 16.806 332.958 8.8754 394.291 9.03753C446.727 9.17552 499.342 15.126 551.139 17.6856C606.171 20.4039 658.846 20.328 712.141 14.5086C771.237 8.07165 826.608 11.4557 883.567 19.1103C909.101 22.5392 933.427 27.2168 959.15 30.4284C986.372 33.8262 1016.26 33.495 1044.27 31.6081C1076.05 29.4694 1106.48 25.3989 1136.46 21.2594C1166.68 17.0716 1198.8 11.1763 1231.38 9.79644C1300.29 6.89535 1371.95 21.218 1438.95 12.5802" stroke="url(#paint64_linear_0_3323)" stroke-width="0.4" stroke-miterlimit="10"/>
<path d="M0.998657 1.51758C75.8925 3.21822 136.706 20.4902 213.837 18.2618C274.641 16.5025 333.667 8.75824 394.98 9.01696C447.376 9.24118 499.722 15.3573 551.488 17.9203C606.56 20.6455 659.226 20.3764 712.26 14.1775C771.956 7.19558 827.038 10.9763 884.466 19.0069C909.88 22.56 934.276 27.279 960.069 30.494C987.231 33.8953 1016.99 33.4951 1044.84 31.5013C1076.6 29.228 1106.91 24.9816 1136.8 20.7317C1166.98 16.4404 1199.09 10.4796 1231.75 9.03076C1300.53 6.00203 1372.26 21.3975 1438.96 12.3423" stroke="url(#paint65_linear_0_3323)" stroke-width="0.4" stroke-miterlimit="10"/>
<path d="M0.998657 1.2417C76.0423 2.91474 136.806 20.2903 214.156 18.0273C274.97 16.2474 334.126 8.66864 395.519 9.01014C447.895 9.29991 499.991 15.6126 551.738 18.1964C606.84 20.956 659.585 20.5179 712.28 13.9465C772.555 6.43331 827.197 10.5314 885.115 18.9001C910.469 22.5601 934.925 27.3274 960.738 30.5803C987.88 33.9989 1017.38 33.5677 1045.21 31.4807C1109.51 26.6513 1167.12 11.5318 1232.03 8.48236C1300.69 5.25701 1372.61 21.6908 1438.96 12.1803" stroke="url(#paint66_linear_0_3323)" stroke-width="0.4" stroke-miterlimit="10"/>
<path d="M0.998657 1.06592C76.1621 2.70447 136.906 20.1835 214.346 17.8654C275.17 16.0405 334.526 8.61014 395.889 9.00684C448.275 9.3518 500.141 15.8853 551.868 18.5139C606.99 21.3149 659.915 20.7492 712.31 13.8224C773.114 5.78149 827.147 10.1176 885.615 18.8243C910.759 22.5602 935.274 27.5104 961.148 30.6357C988.629 33.9507 1017.24 33.6817 1045.37 31.5015C1109.78 26.5065 1167.07 11.3732 1232.21 8.10305C1300.78 4.65348 1373.01 22.0911 1438.92 12.077" stroke="url(#paint67_linear_0_3323)" stroke-width="0.4" stroke-miterlimit="10"/>
<path d="M0.998638 1C76.242 2.59025 136.876 20.1727 214.396 17.7684C275.22 15.8815 334.656 8.57527 396.138 9.00302C448.534 9.36867 500.201 16.1781 551.918 18.8688C607.039 21.7354 660.244 21.0765 712.33 13.8014C773.603 5.23608 826.878 9.72743 885.904 18.7653C939.828 27.0167 984.255 36.4099 1045.32 31.5736C1109.9 26.4579 1166.92 11.4522 1232.29 7.91985C1300.78 4.21845 1373.39 22.5978 1439 12.0593" stroke="url(#paint68_linear_0_3323)" stroke-width="0.4" stroke-miterlimit="10"/>
<defs>
<linearGradient id="paint0_linear_0_3323" x1="1.03668e+06" y1="285.67" x2="1.03668e+06" y2="211.45" gradientUnits="userSpaceOnUse">
<stop stop-color="#592CB8"/>
<stop offset="1" stop-color="#2C66B8"/>
</linearGradient>
<linearGradient id="paint1_linear_0_3323" x1="1.03666e+06" y1="396.752" x2="1.03666e+06" y2="236.115" gradientUnits="userSpaceOnUse">
<stop stop-color="#592CB8"/>
<stop offset="1" stop-color="#2C66B8"/>
</linearGradient>
<linearGradient id="paint2_linear_0_3323" x1="1.03668e+06" y1="576.585" x2="1.03668e+06" y2="279.93" gradientUnits="userSpaceOnUse">
<stop stop-color="#592CB8"/>
<stop offset="1" stop-color="#2C66B8"/>
</linearGradient>
<linearGradient id="paint3_linear_0_3323" x1="1.03668e+06" y1="844.966" x2="1.03668e+06" y2="347.739" gradientUnits="userSpaceOnUse">
<stop stop-color="#592CB8"/>
<stop offset="1" stop-color="#2C66B8"/>
</linearGradient>
<linearGradient id="paint4_linear_0_3323" x1="1.03668e+06" y1="1290.65" x2="1.03668e+06" y2="462.679" gradientUnits="userSpaceOnUse">
<stop stop-color="#592CB8"/>
<stop offset="1" stop-color="#2C66B8"/>
</linearGradient>
<linearGradient id="paint5_linear_0_3323" x1="1.03668e+06" y1="1780.82" x2="1.03668e+06" y2="589.737" gradientUnits="userSpaceOnUse">
<stop stop-color="#592CB8"/>
<stop offset="1" stop-color="#2C66B8"/>
</linearGradient>
<linearGradient id="paint6_linear_0_3323" x1="1.03668e+06" y1="2377.41" x2="1.03668e+06" y2="745.077" gradientUnits="userSpaceOnUse">
<stop stop-color="#592CB8"/>
<stop offset="1" stop-color="#2C66B8"/>
</linearGradient>
<linearGradient id="paint7_linear_0_3323" x1="1.03667e+06" y1="3004.7" x2="1.03667e+06" y2="908.69" gradientUnits="userSpaceOnUse">
<stop stop-color="#592CB8"/>
<stop offset="1" stop-color="#2C66B8"/>
</linearGradient>
<linearGradient id="paint8_linear_0_3323" x1="1.03669e+06" y1="3633.87" x2="1.03669e+06" y2="1072.89" gradientUnits="userSpaceOnUse">
<stop stop-color="#592CB8"/>
<stop offset="1" stop-color="#2C66B8"/>
</linearGradient>
<linearGradient id="paint9_linear_0_3323" x1="1.03666e+06" y1="4231.93" x2="1.03666e+06" y2="1228.88" gradientUnits="userSpaceOnUse">
<stop stop-color="#592CB8"/>
<stop offset="1" stop-color="#2C66B8"/>
</linearGradient>
<linearGradient id="paint10_linear_0_3323" x1="1.03668e+06" y1="4825.2" x2="1.03668e+06" y2="1383.46" gradientUnits="userSpaceOnUse">
<stop stop-color="#592CB8"/>
<stop offset="1" stop-color="#2C66B8"/>
</linearGradient>
<linearGradient id="paint11_linear_0_3323" x1="1.03668e+06" y1="5280.81" x2="1.03668e+06" y2="1501.62" gradientUnits="userSpaceOnUse">
<stop stop-color="#592CB8"/>
<stop offset="1" stop-color="#2C66B8"/>
</linearGradient>
<linearGradient id="paint12_linear_0_3323" x1="1.03668e+06" y1="5618.27" x2="1.03668e+06" y2="1588.39" gradientUnits="userSpaceOnUse">
<stop stop-color="#592CB8"/>
<stop offset="1" stop-color="#2C66B8"/>
</linearGradient>
<linearGradient id="paint13_linear_0_3323" x1="1.03671e+06" y1="5798.26" x2="1.03671e+06" y2="1633.26" gradientUnits="userSpaceOnUse">
<stop stop-color="#592CB8"/>
<stop offset="1" stop-color="#2C66B8"/>
</linearGradient>
<linearGradient id="paint14_linear_0_3323" x1="1.03668e+06" y1="5877.97" x2="1.03668e+06" y2="1651.27" gradientUnits="userSpaceOnUse">
<stop stop-color="#592CB8"/>
<stop offset="1" stop-color="#2C66B8"/>
</linearGradient>
<linearGradient id="paint15_linear_0_3323" x1="1.03666e+06" y1="5958.77" x2="1.03666e+06" y2="1669.57" gradientUnits="userSpaceOnUse">
<stop stop-color="#592CB8"/>
<stop offset="1" stop-color="#2C66B8"/>
</linearGradient>
<linearGradient id="paint16_linear_0_3323" x1="1.03667e+06" y1="6004.34" x2="1.03667e+06" y2="1678.72" gradientUnits="userSpaceOnUse">
<stop stop-color="#592CB8"/>
<stop offset="1" stop-color="#2C66B8"/>
</linearGradient>
<linearGradient id="paint17_linear_0_3323" x1="1.03671e+06" y1="6017.2" x2="1.03671e+06" y2="1679.34" gradientUnits="userSpaceOnUse">
<stop stop-color="#592CB8"/>
<stop offset="1" stop-color="#2C66B8"/>
</linearGradient>
<linearGradient id="paint18_linear_0_3323" x1="1.03668e+06" y1="6001.42" x2="1.03668e+06" y2="1672.53" gradientUnits="userSpaceOnUse">
<stop stop-color="#592CB8"/>
<stop offset="1" stop-color="#2C66B8"/>
</linearGradient>
<linearGradient id="paint19_linear_0_3323" x1="1.03668e+06" y1="5959.68" x2="1.03668e+06" y2="1658.98" gradientUnits="userSpaceOnUse">
<stop stop-color="#592CB8"/>
<stop offset="1" stop-color="#2C66B8"/>
</linearGradient>
<linearGradient id="paint20_linear_0_3323" x1="1.03669e+06" y1="5864.33" x2="1.03669e+06" y2="1631.44" gradientUnits="userSpaceOnUse">
<stop stop-color="#592CB8"/>
<stop offset="1" stop-color="#2C66B8"/>
</linearGradient>
<linearGradient id="paint21_linear_0_3323" x1="1.0367e+06" y1="5800.43" x2="1.0367e+06" y2="1612.23" gradientUnits="userSpaceOnUse">
<stop stop-color="#592CB8"/>
<stop offset="1" stop-color="#2C66B8"/>
</linearGradient>
<linearGradient id="paint22_linear_0_3323" x1="1.03666e+06" y1="5723.28" x2="1.03666e+06" y2="1589.6" gradientUnits="userSpaceOnUse">
<stop stop-color="#592CB8"/>
<stop offset="1" stop-color="#2C66B8"/>
</linearGradient>
<linearGradient id="paint23_linear_0_3323" x1="1.03668e+06" y1="5641.4" x2="1.03668e+06" y2="1565.8" gradientUnits="userSpaceOnUse">
<stop stop-color="#592CB8"/>
<stop offset="1" stop-color="#2C66B8"/>
</linearGradient>
<linearGradient id="paint24_linear_0_3323" x1="1.03671e+06" y1="5554.82" x2="1.03671e+06" y2="1540.81" gradientUnits="userSpaceOnUse">
<stop stop-color="#592CB8"/>
<stop offset="1" stop-color="#2C66B8"/>
</linearGradient>
<linearGradient id="paint25_linear_0_3323" x1="1.03667e+06" y1="5467.11" x2="1.03667e+06" y2="1515.57" gradientUnits="userSpaceOnUse">
<stop stop-color="#592CB8"/>
<stop offset="1" stop-color="#2C66B8"/>
</linearGradient>
<linearGradient id="paint26_linear_0_3323" x1="1.03668e+06" y1="5352.9" x2="1.03668e+06" y2="1483.41" gradientUnits="userSpaceOnUse">
<stop stop-color="#592CB8"/>
<stop offset="1" stop-color="#2C66B8"/>
</linearGradient>
<linearGradient id="paint27_linear_0_3323" x1="1.03666e+06" y1="5271.17" x2="1.03666e+06" y2="1459.83" gradientUnits="userSpaceOnUse">
<stop stop-color="#592CB8"/>
<stop offset="1" stop-color="#2C66B8"/>
</linearGradient>
<linearGradient id="paint28_linear_0_3323" x1="1.03666e+06" y1="5198.32" x2="1.03666e+06" y2="1438.61" gradientUnits="userSpaceOnUse">
<stop stop-color="#592CB8"/>
<stop offset="1" stop-color="#2C66B8"/>
</linearGradient>
<linearGradient id="paint29_linear_0_3323" x1="1.03666e+06" y1="5141.07" x2="1.03666e+06" y2="1421.53" gradientUnits="userSpaceOnUse">
<stop stop-color="#592CB8"/>
<stop offset="1" stop-color="#2C66B8"/>
</linearGradient>
<linearGradient id="paint30_linear_0_3323" x1="1.03671e+06" y1="5091.68" x2="1.03671e+06" y2="1406.49" gradientUnits="userSpaceOnUse">
<stop stop-color="#592CB8"/>
<stop offset="1" stop-color="#2C66B8"/>
</linearGradient>
<linearGradient id="paint31_linear_0_3323" x1="1.03668e+06" y1="5067.19" x2="1.03668e+06" y2="1398.02" gradientUnits="userSpaceOnUse">
<stop stop-color="#592CB8"/>
<stop offset="1" stop-color="#2C66B8"/>
</linearGradient>
<linearGradient id="paint32_linear_0_3323" x1="1.03668e+06" y1="5055.44" x2="1.03668e+06" y2="1392.9" gradientUnits="userSpaceOnUse">
<stop stop-color="#592CB8"/>
<stop offset="1" stop-color="#2C66B8"/>
</linearGradient>
<linearGradient id="paint33_linear_0_3323" x1="1.03671e+06" y1="5023.09" x2="1.03671e+06" y2="1382.33" gradientUnits="userSpaceOnUse">
<stop stop-color="#592CB8"/>
<stop offset="1" stop-color="#2C66B8"/>
</linearGradient>
<linearGradient id="paint34_linear_0_3323" x1="1.03668e+06" y1="4974.48" x2="1.03668e+06" y2="1367.47" gradientUnits="userSpaceOnUse">
<stop stop-color="#592CB8"/>
<stop offset="1" stop-color="#2C66B8"/>
</linearGradient>
<linearGradient id="paint35_linear_0_3323" x1="1.03671e+06" y1="4903.56" x2="1.03671e+06" y2="1346.7" gradientUnits="userSpaceOnUse">
<stop stop-color="#592CB8"/>
<stop offset="1" stop-color="#2C66B8"/>
</linearGradient>
<linearGradient id="paint36_linear_0_3323" x1="1.03668e+06" y1="4818.62" x2="1.03668e+06" y2="1322.25" gradientUnits="userSpaceOnUse">
<stop stop-color="#592CB8"/>
<stop offset="1" stop-color="#2C66B8"/>
</linearGradient>
<linearGradient id="paint37_linear_0_3323" x1="1.03671e+06" y1="4717.08" x2="1.03671e+06" y2="1293.41" gradientUnits="userSpaceOnUse">
<stop stop-color="#592CB8"/>
<stop offset="1" stop-color="#2C66B8"/>
</linearGradient>
<linearGradient id="paint38_linear_0_3323" x1="1.03668e+06" y1="4603.87" x2="1.03668e+06" y2="1261.52" gradientUnits="userSpaceOnUse">
<stop stop-color="#592CB8"/>
<stop offset="1" stop-color="#2C66B8"/>
</linearGradient>
<linearGradient id="paint39_linear_0_3323" x1="1.03668e+06" y1="4475.68" x2="1.03668e+06" y2="1225.68" gradientUnits="userSpaceOnUse">
<stop stop-color="#592CB8"/>
<stop offset="1" stop-color="#2C66B8"/>
</linearGradient>
<linearGradient id="paint40_linear_0_3323" x1="1.03667e+06" y1="4333.4" x2="1.03667e+06" y2="1186.12" gradientUnits="userSpaceOnUse">
<stop stop-color="#592CB8"/>
<stop offset="1" stop-color="#2C66B8"/>
</linearGradient>
<linearGradient id="paint41_linear_0_3323" x1="1.03668e+06" y1="4186.66" x2="1.03668e+06" y2="1145.45" gradientUnits="userSpaceOnUse">
<stop stop-color="#592CB8"/>
<stop offset="1" stop-color="#2C66B8"/>
</linearGradient>
<linearGradient id="paint42_linear_0_3323" x1="1.03668e+06" y1="4028.06" x2="1.03668e+06" y2="1101.65" gradientUnits="userSpaceOnUse">
<stop stop-color="#592CB8"/>
<stop offset="1" stop-color="#2C66B8"/>
</linearGradient>
<linearGradient id="paint43_linear_0_3323" x1="1.03668e+06" y1="3868.24" x2="1.03668e+06" y2="1057.61" gradientUnits="userSpaceOnUse">
<stop stop-color="#592CB8"/>
<stop offset="1" stop-color="#2C66B8"/>
</linearGradient>
<linearGradient id="paint44_linear_0_3323" x1="1.03668e+06" y1="3700.07" x2="1.03668e+06" y2="1011.39" gradientUnits="userSpaceOnUse">
<stop stop-color="#592CB8"/>
<stop offset="1" stop-color="#2C66B8"/>
</linearGradient>
<linearGradient id="paint45_linear_0_3323" x1="1.03668e+06" y1="3532.66" x2="1.03668e+06" y2="965.443" gradientUnits="userSpaceOnUse">
<stop stop-color="#592CB8"/>
<stop offset="1" stop-color="#2C66B8"/>
</linearGradient>
<linearGradient id="paint46_linear_0_3323" x1="1.03663e+06" y1="3368.77" x2="1.03663e+06" y2="920.522" gradientUnits="userSpaceOnUse">
<stop stop-color="#592CB8"/>
<stop offset="1" stop-color="#2C66B8"/>
</linearGradient>
<linearGradient id="paint47_linear_0_3323" x1="1.03672e+06" y1="3193.24" x2="1.03672e+06" y2="872.531" gradientUnits="userSpaceOnUse">
<stop stop-color="#592CB8"/>
<stop offset="1" stop-color="#2C66B8"/>
</linearGradient>
<linearGradient id="paint48_linear_0_3323" x1="1.03668e+06" y1="3085.02" x2="1.03668e+06" y2="842.752" gradientUnits="userSpaceOnUse">
<stop stop-color="#592CB8"/>
<stop offset="1" stop-color="#2C66B8"/>
</linearGradient>
<linearGradient id="paint49_linear_0_3323" x1="1.03668e+06" y1="2951.67" x2="1.03668e+06" y2="806.256" gradientUnits="userSpaceOnUse">
<stop stop-color="#592CB8"/>
<stop offset="1" stop-color="#2C66B8"/>
</linearGradient>
<linearGradient id="paint50_linear_0_3323" x1="1.03671e+06" y1="2845.66" x2="1.03671e+06" y2="777.218" gradientUnits="userSpaceOnUse">
<stop stop-color="#592CB8"/>
<stop offset="1" stop-color="#2C66B8"/>
</linearGradient>
<linearGradient id="paint51_linear_0_3323" x1="1.03668e+06" y1="2759.91" x2="1.03668e+06" y2="753.686" gradientUnits="userSpaceOnUse">
<stop stop-color="#592CB8"/>
<stop offset="1" stop-color="#2C66B8"/>
</linearGradient>
<linearGradient id="paint52_linear_0_3323" x1="1.03665e+06" y1="2688.61" x2="1.03665e+06" y2="734.089" gradientUnits="userSpaceOnUse">
<stop stop-color="#592CB8"/>
<stop offset="1" stop-color="#2C66B8"/>
</linearGradient>
<linearGradient id="paint53_linear_0_3323" x1="1.03666e+06" y1="2627.97" x2="1.03666e+06" y2="717.427" gradientUnits="userSpaceOnUse">
<stop stop-color="#592CB8"/>
<stop offset="1" stop-color="#2C66B8"/>
</linearGradient>
<linearGradient id="paint54_linear_0_3323" x1="1.03666e+06" y1="2578.64" x2="1.03666e+06" y2="703.851" gradientUnits="userSpaceOnUse">
<stop stop-color="#592CB8"/>
<stop offset="1" stop-color="#2C66B8"/>
</linearGradient>
<linearGradient id="paint55_linear_0_3323" x1="1.03667e+06" y1="2580.19" x2="1.03667e+06" y2="703.743" gradientUnits="userSpaceOnUse">
<stop stop-color="#592CB8"/>
<stop offset="1" stop-color="#2C66B8"/>
</linearGradient>
<linearGradient id="paint56_linear_0_3323" x1="1.03671e+06" y1="2647.38" x2="1.03671e+06" y2="720.981" gradientUnits="userSpaceOnUse">
<stop stop-color="#592CB8"/>
<stop offset="1" stop-color="#2C66B8"/>
</linearGradient>
<linearGradient id="paint57_linear_0_3323" x1="1.03669e+06" y1="2717" x2="1.03669e+06" y2="738.936" gradientUnits="userSpaceOnUse">
<stop stop-color="#592CB8"/>
<stop offset="1" stop-color="#2C66B8"/>
</linearGradient>
<linearGradient id="paint58_linear_0_3323" x1="1.03668e+06" y1="2787.85" x2="1.03668e+06" y2="757.291" gradientUnits="userSpaceOnUse">
<stop stop-color="#592CB8"/>
<stop offset="1" stop-color="#2C66B8"/>
</linearGradient>
<linearGradient id="paint59_linear_0_3323" x1="1.03665e+06" y1="2860.73" x2="1.03665e+06" y2="776.249" gradientUnits="userSpaceOnUse">
<stop stop-color="#592CB8"/>
<stop offset="1" stop-color="#2C66B8"/>
</linearGradient>
<linearGradient id="paint60_linear_0_3323" x1="1.03666e+06" y1="2928.28" x2="1.03666e+06" y2="793.857" gradientUnits="userSpaceOnUse">
<stop stop-color="#592CB8"/>
<stop offset="1" stop-color="#2C66B8"/>
</linearGradient>
<linearGradient id="paint61_linear_0_3323" x1="1.03668e+06" y1="2994.33" x2="1.03668e+06" y2="811.119" gradientUnits="userSpaceOnUse">
<stop stop-color="#592CB8"/>
<stop offset="1" stop-color="#2C66B8"/>
</linearGradient>
<linearGradient id="paint62_linear_0_3323" x1="1.03668e+06" y1="3055.25" x2="1.03668e+06" y2="827.065" gradientUnits="userSpaceOnUse">
<stop stop-color="#592CB8"/>
<stop offset="1" stop-color="#2C66B8"/>
</linearGradient>
<linearGradient id="paint63_linear_0_3323" x1="1.03668e+06" y1="3111.16" x2="1.03668e+06" y2="841.734" gradientUnits="userSpaceOnUse">
<stop stop-color="#592CB8"/>
<stop offset="1" stop-color="#2C66B8"/>
</linearGradient>
<linearGradient id="paint64_linear_0_3323" x1="1.03668e+06" y1="3164.77" x2="1.03668e+06" y2="855.849" gradientUnits="userSpaceOnUse">
<stop stop-color="#592CB8"/>
<stop offset="1" stop-color="#2C66B8"/>
</linearGradient>
<linearGradient id="paint65_linear_0_3323" x1="1.03668e+06" y1="3205.11" x2="1.03668e+06" y2="866.459" gradientUnits="userSpaceOnUse">
<stop stop-color="#592CB8"/>
<stop offset="1" stop-color="#2C66B8"/>
</linearGradient>
<linearGradient id="paint66_linear_0_3323" x1="1.03668e+06" y1="3240.16" x2="1.03668e+06" y2="875.72" gradientUnits="userSpaceOnUse">
<stop stop-color="#592CB8"/>
<stop offset="1" stop-color="#2C66B8"/>
</linearGradient>
<linearGradient id="paint67_linear_0_3323" x1="1.03666e+06" y1="3261.57" x2="1.03666e+06" y2="881.373" gradientUnits="userSpaceOnUse">
<stop stop-color="#592CB8"/>
<stop offset="1" stop-color="#2C66B8"/>
</linearGradient>
<linearGradient id="paint68_linear_0_3323" x1="1.03671e+06" y1="3243.73" x2="1.03671e+06" y2="876.509" gradientUnits="userSpaceOnUse">
<stop stop-color="#592CB8"/>
<stop offset="1" stop-color="#2C66B8"/>
</linearGradient>
</defs>
</svg>
