<svg width="1441" height="98" viewBox="0 0 1441 98" fill="none" xmlns="http://www.w3.org/2000/svg">
<path d="M1441 1C961.346 1 481.693 1 2.03915 1" stroke="url(#paint0_linear_0_5256)" stroke-width="0.3" stroke-miterlimit="10"/>
<path d="M1441 3.69285C1198.12 3.67294 955.351 4.1543 712.526 4.69899C607.462 4.93605 501.678 4.85824 396.624 4.35878C265.119 3.73447 133.554 4.32259 2.07908 3.69285" stroke="url(#paint1_linear_0_5256)" stroke-width="0.3" stroke-miterlimit="10"/>
<path d="M1441 6.34555C1372.18 6.34555 1303.34 6.24963 1234.53 6.29668C1173.03 6.3383 1111.68 7.24131 1050.2 7.39693C935.685 7.68647 821.188 7.34988 706.68 7.6919C605.044 7.99591 502.358 8.80119 400.791 7.57246C341.594 6.84862 283.006 6.51927 223.759 6.22068C149.812 5.8479 75.9558 6.85948 2.03915 6.34555" stroke="url(#paint2_linear_0_5256)" stroke-width="0.3" stroke-miterlimit="10"/>
<path d="M1441 8.96209C1373.17 8.96209 1305.16 8.75579 1237.35 8.97838C1173.62 9.18829 1110.27 10.6595 1046.59 11.0377C931.858 11.7199 818.02 9.77099 703.403 10.1184C602.545 10.4188 503.117 12.8582 402.15 10.6758C343.133 9.40002 285.944 8.40111 226.497 8.10976C151.551 7.74784 76.975 9.50859 2.03915 8.96209" stroke="url(#paint3_linear_0_5256)" stroke-width="0.3" stroke-miterlimit="10"/>
<path d="M1441 11.5284C1374.4 11.5284 1307.31 11.1991 1240.75 11.6533C1174.2 12.1075 1108.6 14.1976 1042.25 14.8726C981.932 15.4861 922.464 15.3214 862.468 13.9859C808.697 12.7879 756.464 11.9229 702.253 12.0532C654.738 12.169 610.22 13.4756 563.294 14.6935C509.593 16.0887 454.303 15.4372 401.101 13.6602C342.543 11.7022 287.313 9.8292 227.516 9.61567C152.091 9.34423 77.5146 11.9971 2.03915 11.5284" stroke="url(#paint4_linear_0_5256)" stroke-width="0.3" stroke-miterlimit="10"/>
<path d="M1441 14.0583C1375.84 14.0583 1309.68 13.6149 1244.63 14.3243C1175.12 15.0807 1106.79 17.8205 1037.43 18.8483C977.879 19.7423 917.929 19.1295 859.31 17.0279C806.978 15.1784 756.384 13.5263 702.893 13.6023C653.359 13.6728 608.541 15.9439 560.456 17.7807C505.875 19.8653 451.864 19.0745 398.113 16.5465C340.505 13.8321 287.323 10.9077 227.117 10.8299C151.561 10.7304 77.7245 14.3623 2.03915 14.0565" stroke="url(#paint5_linear_0_5256)" stroke-width="0.3" stroke-miterlimit="10"/>
<path d="M1441 16.5484C1377.38 16.5593 1312.19 16.0055 1248.79 16.9737C1176 18.0757 1104.89 21.476 1032.38 22.8965C971.519 24.0873 915.28 22.9798 856.582 19.9885C806.328 17.4261 757.653 14.86 704.942 14.8546C652.819 14.8546 606.453 18.2657 556.988 20.7558C500.639 23.5914 448.677 22.7662 393.616 19.3406C337.577 15.8553 286.124 11.7403 225.588 11.8307C150.142 11.9538 77.6945 16.6317 2.03915 16.5484" stroke="url(#paint6_linear_0_5256)" stroke-width="0.3" stroke-miterlimit="10"/>
<path d="M1441 18.9985C1378.98 19.0148 1314.78 18.3995 1253.14 19.5902C1177.01 21.0596 1103.24 25.1168 1027.39 26.9481C965.683 28.4374 912.122 26.845 854.374 22.8602C806.728 19.5721 759.932 16.009 708.079 15.8968C653.279 15.7774 603.874 20.4624 553.191 23.6166C494.663 27.2594 444.689 26.4848 388.13 22.0459C334.269 17.8186 284.045 12.3916 223.249 12.6956C148.074 13.072 77.5346 18.8247 2.05907 18.9985" stroke="url(#paint7_linear_0_5256)" stroke-width="0.3" stroke-miterlimit="10"/>
<path d="M1441 21.4089C1380.57 21.4306 1317.37 20.7755 1257.39 22.1635C1178.01 24.0002 1101.58 28.6944 1022.56 30.9347C959.608 32.7208 909.084 30.6759 852.555 25.6416C807.847 21.6604 762.94 17.0622 711.807 16.8197C654.328 16.5501 600.957 22.6358 549.104 26.3763C521.944 28.3252 493.314 30.1511 463.706 29.7313C434.727 29.3187 407.286 27.1092 381.945 24.6644C330.862 19.7476 281.098 12.9797 220.312 13.4972C145.466 14.136 77.2847 20.9601 2.02906 21.4034" stroke="url(#paint8_linear_0_5256)" stroke-width="0.3" stroke-miterlimit="10"/>
<path d="M1440.95 23.7776C1381.99 23.8047 1319.82 23.1334 1261.48 24.6824C1179.07 26.8648 1100.25 32.1652 1018.31 34.7927C953.912 36.8593 906.307 34.4 851.306 28.3288C809.607 23.7251 766.578 18.099 715.904 17.7172C655.948 17.2666 597.989 24.7838 545.148 29.0382C517.468 31.2676 486.94 33.6183 456.022 33.1007C427.043 32.6158 399.892 29.9665 375.66 27.2195C327.345 21.74 278.09 13.6058 217.154 14.3314C142.628 15.2218 77.0756 23.0827 2.01976 23.7776" stroke="url(#paint9_linear_0_5256)" stroke-width="0.3" stroke-miterlimit="10"/>
<path d="M1440.94 26.1049C1383.39 26.1375 1322.14 25.4661 1265.29 27.1291C1180.19 29.621 1099.25 35.4805 1014.77 38.4591C982.601 39.5919 952.113 40.247 920.606 38.2601C894.934 36.6404 872.351 33.7975 850.566 30.9239C811.594 25.7864 770.454 19.1976 719.901 18.6818C657.746 18.0467 595.131 26.9264 541.43 31.6152C513.27 34.0744 480.863 36.9227 448.766 36.3201C419.657 35.7773 392.867 32.7244 369.674 29.7096C323.927 23.7669 275.262 14.3605 213.996 15.2707C139.74 16.3764 76.905 25.2109 1.97909 26.1139" stroke="url(#paint10_linear_0_5256)" stroke-width="0.3" stroke-miterlimit="10"/>
<path d="M1440.93 28.3939C1384.59 28.4283 1324.16 27.7606 1268.62 29.4996C1181.37 32.2321 1098.89 38.5947 1012.28 41.8538C980.003 43.0681 949.605 43.8209 918.258 41.5661C892.826 39.7257 871.152 36.5679 850.427 33.412C813.743 27.8329 774.322 20.4171 723.518 19.7928C691.052 19.3929 658.405 22.4602 630.366 25.057C599.258 27.9379 569.35 31.2205 538.252 34.1051C509.673 36.7543 475.697 40.0044 442.521 39.3258C413.202 38.7268 386.831 35.3627 364.467 32.1235C320.819 25.7899 273.073 15.3195 211.218 16.3799C137.092 17.6466 76.8852 27.3606 1.96933 28.4012" stroke="url(#paint11_linear_0_5256)" stroke-width="0.3" stroke-miterlimit="10"/>
<path d="M1440.92 30.6413C1385.59 30.6757 1325.8 30.0061 1271.33 31.7778C1182.54 34.6641 1099.1 41.461 1011.04 44.9228C978.914 46.1895 948.286 46.9984 917.258 44.5826C891.857 42.6047 870.832 39.1755 850.856 35.8023C815.702 29.8686 777.769 21.8376 726.346 21.1445C692.99 20.6993 659.394 24.0218 630.915 26.7688C598.768 29.8722 567.96 33.4046 535.814 36.5117C506.835 39.3148 471.86 42.82 437.794 42.1052C408.166 41.4827 382.244 37.9087 360.49 34.4831C318.191 27.8256 271.904 16.6042 209.06 17.7352C134.933 19.0688 77.025 29.5628 1.9592 30.6341" stroke="url(#paint12_linear_0_5256)" stroke-width="0.3" stroke-miterlimit="10"/>
<path d="M1440.9 32.8493C1386.35 32.8783 1326.93 32.1961 1273.26 33.9532C1183.72 36.8848 1100.05 44.0382 1011.31 47.5941C979.623 48.8608 948.426 49.686 917.838 47.2539C892.226 45.218 871.491 41.6042 851.886 38.0882C817.291 31.8739 780.477 23.5208 727.975 22.8476C693.88 22.4097 660.194 25.7665 631.315 28.6384C598.489 31.8957 567.111 35.609 534.295 38.8699C504.946 41.787 469.821 45.3483 435.057 44.639C405.078 44.0273 379.597 40.3882 358.112 36.816C316.142 29.8399 272.064 18.3344 207.751 19.4546C133.434 20.7484 77.2749 31.8884 1.89937 32.8457" stroke="url(#paint13_linear_0_5256)" stroke-width="0.3" stroke-miterlimit="10"/>
<path d="M1440.89 35.0209C1386.54 35.0824 1327.31 34.3151 1273.87 36.1066C1184.93 39.0943 1102.33 46.4612 1014.3 50.1004C982.701 51.4051 951.524 52.1869 920.956 49.7837C894.974 47.737 873.83 44.0798 853.934 40.5203C818.699 34.2156 781.496 25.7557 728.305 24.9667C693.969 24.4582 660.484 27.7734 631.475 30.6905C598.598 33.9984 567.281 37.7842 534.415 41.0939C504.926 44.0653 469.981 47.5778 434.957 46.8177C404.778 46.1627 379.447 42.5163 357.922 38.9043C315.783 31.8305 272.544 20.477 207.721 21.532C133.194 22.7408 77.6146 34.1848 1.92929 35.0209" stroke="url(#paint14_linear_0_5256)" stroke-width="0.3" stroke-miterlimit="10"/>
<path d="M1440.88 37.1432C1386.3 37.2554 1327.25 36.2873 1273.62 38.2037C1186.26 41.3253 1105.52 48.8134 1019.09 52.5811C987.118 53.9763 956.76 54.7019 925.752 52.2825C899.301 50.2213 877.407 46.6021 856.782 43.0734C820.378 36.8374 781.606 28.2924 728.415 27.2157C694.289 26.5244 660.684 29.8487 631.924 32.764C599.448 36.0557 568.6 39.845 536.133 43.1403C506.705 46.128 471.76 49.6133 436.785 48.7103C406.697 47.934 380.995 44.2351 359.171 40.6629C316.812 33.7321 272.324 22.5921 208.28 23.6164C133.574 24.8125 77.8144 36.3217 1.9492 37.1432" stroke="url(#paint15_linear_0_5256)" stroke-width="0.3" stroke-miterlimit="10"/>
<path d="M1440.86 39.2301C1385.97 39.364 1327.08 38.1262 1273.12 40.1548C1187.54 43.3723 1108.91 50.9582 1024.3 54.8127C992.054 56.2857 962.405 56.9426 931.048 54.5539C904.188 52.5072 881.414 48.9821 860.019 45.4805C822.397 39.3278 781.836 30.8136 728.694 29.4763C694.879 28.624 661.533 31.8795 633.033 34.7821C601.106 38.0394 570.908 41.8052 539.001 45.0607C509.662 48.0538 475.047 51.4396 440.233 50.4081C410.114 49.5141 383.953 45.799 361.639 42.2648C318.72 35.4788 272.773 24.6175 209.219 25.6272C134.184 26.818 78.114 38.4013 1.91906 39.2192" stroke="url(#paint16_linear_0_5256)" stroke-width="0.3" stroke-miterlimit="10"/>
<path d="M1440.84 41.2767C1385.57 41.4051 1326.71 39.8398 1272.37 41.9715C1188.75 45.2488 1112.41 52.9125 1029.79 56.8339C997.41 58.3703 968.321 58.9475 936.704 56.6276C909.364 54.6225 885.741 51.1988 863.517 47.7605C824.325 41.7182 782.346 33.327 729.054 31.7436C695.638 30.7519 662.882 33.8663 634.662 36.749C603.435 39.9412 574.006 43.6744 542.799 46.8702C513.57 49.8651 479.624 53.0826 445.019 51.9371C414.761 50.9327 388.06 47.2321 365.077 43.7468C321.299 37.1109 273.713 26.5826 210.499 27.5869C135.003 28.7867 78.5039 40.4479 1.84927 41.2712" stroke="url(#paint17_linear_0_5256)" stroke-width="0.3" stroke-miterlimit="10"/>
<path d="M1440.83 43.2832C1385.11 43.3846 1326.27 41.4428 1271.44 43.6669C1189.92 46.973 1116 54.7055 1035.51 58.6487C1003.16 60.2375 974.467 60.7315 942.69 58.5129C914.86 56.5694 890.408 53.2651 867.274 49.9317C826.304 44.027 783.045 35.8367 729.554 34.0252C665 31.8374 599.768 43.2235 547.455 48.5908C518.336 51.5803 485.31 54.5752 451.005 53.3212C420.507 52.2046 393.247 48.5401 369.474 45.1073C324.586 38.6271 275.222 28.4752 212.168 29.4849C136.112 30.701 79.0736 42.4472 1.86935 43.2832" stroke="url(#paint18_linear_0_5256)" stroke-width="0.3" stroke-miterlimit="10"/>
<path d="M1440.81 45.2489C1384.6 45.305 1325.75 42.947 1270.35 45.2489C1191.02 48.5568 1119.65 56.3255 1041.4 60.2813C1009.15 61.91 980.742 62.3153 948.875 60.2252C920.536 58.3631 895.234 55.2054 871.191 51.977C828.442 46.2405 783.894 38.3235 730.133 36.2877C666.559 33.8845 604.134 44.9412 552.791 50.2217C524.402 53.137 491.306 56.0758 457.94 54.5738C426.962 53.1804 399.672 49.8019 374.55 46.3636C328.373 40.048 277.11 30.3069 214.056 31.3275C137.351 32.5671 79.703 44.402 1.84921 45.2615" stroke="url(#paint19_linear_0_5256)" stroke-width="0.3" stroke-miterlimit="10"/>
<path d="M1440.79 47.1758C1384.05 47.1758 1325.14 44.3654 1269.12 46.7523C1192.05 50.0368 1123.3 57.838 1047.35 61.7721C915.45 68.6106 846.639 43.3647 730.773 38.533C668.318 35.9254 609.051 46.584 558.637 51.7577C530.378 54.6531 498.561 57.2897 465.614 55.7027C434.247 54.1916 406.317 50.8873 380.186 47.5142C332.57 41.3615 279.319 32.0637 216.134 33.1006C138.72 34.3673 80.3925 46.2945 1.81922 47.1758" stroke="url(#paint20_linear_0_5256)" stroke-width="0.3" stroke-miterlimit="10"/>
<path d="M1440.77 49.0615C1383.48 48.9855 1324.47 45.7137 1267.79 48.1711C1193.01 51.4121 1126.89 59.2315 1053.31 63.1312C924.133 69.9752 845.46 45.9399 731.462 40.7626C670.087 37.9721 614.377 48.1585 564.883 53.2326C536.743 56.1171 506.315 58.4063 473.839 56.7469C442.051 55.1182 413.412 51.8971 386.232 48.5946C337.087 42.6229 281.807 33.772 218.353 34.8325C140.179 36.1372 81.1221 48.1512 1.78941 49.0615" stroke="url(#paint21_linear_0_5256)" stroke-width="0.3" stroke-miterlimit="10"/>
<path d="M1440.75 50.9072C1382.89 50.7533 1323.76 47.0038 1266.37 49.5228C1193.88 52.7041 1130.46 60.5325 1059.17 64.3797C932.727 71.2038 844.321 48.4823 732.172 42.9593C671.895 39.9916 619.973 49.6766 571.348 54.6512C543.308 57.5195 514.389 59.4413 482.412 57.7276C450.185 55.9922 420.807 52.8416 392.547 49.6205C341.824 43.8298 284.505 35.4404 220.731 36.5243C141.788 37.8689 81.9515 49.9734 1.82932 50.9144" stroke="url(#paint22_linear_0_5256)" stroke-width="0.3" stroke-miterlimit="10"/>
<path d="M1440.73 52.7135C1382.31 52.48 1323.02 48.251 1264.86 50.8224C1194.61 53.9313 1133.81 61.7633 1064.81 65.5454C941.061 72.3297 843.202 50.9726 732.891 45.1185C673.704 41.977 625.679 51.1463 577.883 56.0251C549.964 58.8752 522.453 60.4188 491.006 58.6436C458.33 56.7978 428.181 53.7268 398.863 50.5854C346.55 44.9756 287.213 37.0494 223.04 38.1605C143.267 39.5431 82.6909 51.7327 1.76938 52.7135" stroke="url(#paint23_linear_0_5256)" stroke-width="0.3" stroke-miterlimit="10"/>
<path d="M1440.71 54.4775C1381.75 54.1663 1322.26 49.4685 1263.43 52.0834C1195.34 55.1109 1137.11 62.9411 1070.31 66.649C949.005 73.3807 842.072 53.4135 733.551 47.2318C675.443 43.9202 631.325 52.5738 584.309 57.3656C556.509 60.1977 530.348 61.3631 499.5 59.5372C466.374 57.5792 435.466 54.5788 405.098 51.5242C351.247 46.1062 289.931 38.6271 225.318 39.7617C144.746 41.1823 83.4205 53.4714 1.70947 54.4739" stroke="url(#paint24_linear_0_5256)" stroke-width="0.3" stroke-miterlimit="10"/>
<path d="M1440.69 56.204C1381.14 55.8185 1321.51 50.6702 1261.96 53.3212C1195.92 56.2619 1140.15 64.0866 1075.42 67.7149C956.45 74.3851 840.963 55.804 734.26 49.2949C677.122 45.8095 636.951 53.9836 590.584 58.6795C562.874 61.4844 538.082 62.2987 507.754 60.4204C474.198 58.3502 442.541 55.4095 411.184 52.4436C355.854 47.212 292.649 40.1726 227.586 41.3362C146.255 42.7929 84.2097 55.1707 1.74926 56.204" stroke="url(#paint25_linear_0_5256)" stroke-width="0.3" stroke-miterlimit="10"/>
<path d="M1440.67 57.8888C1380.56 57.44 1320.76 51.8682 1260.54 54.5464C1196.39 57.3984 1142.93 65.2232 1080.14 68.7664C1019.23 72.2046 954.441 68.323 897.552 64.1754C842.692 60.1743 790.54 54.9265 734.86 51.2982C678.441 47.621 642.457 55.4096 596.44 59.9843C535.334 66.0556 472.749 58.3557 416.819 53.3629C360.15 48.3105 295.167 41.6909 229.675 42.8799C147.624 44.3674 84.8992 56.832 1.70932 57.8906" stroke="url(#paint26_linear_0_5256)" stroke-width="0.3" stroke-miterlimit="10"/>
<path d="M1440.65 59.5355C1379.98 59.0343 1320.17 53.077 1259.18 55.7751C1196.74 58.5402 1145.4 66.3596 1084.31 69.825C1023.96 73.2524 957.459 69.53 900.3 65.7316C844.331 62.0111 791.059 57.098 735.39 53.2326C679.72 49.3673 647.203 56.7741 601.776 61.2836C542.059 67.2101 476.866 58.9311 421.906 54.2895C364.048 49.4035 297.416 43.1857 231.563 44.3909C148.873 45.9055 85.5289 58.4534 1.72939 59.5355" stroke="url(#paint27_linear_0_5256)" stroke-width="0.3" stroke-miterlimit="10"/>
<path d="M1440.63 61.1405C1379.39 60.5976 1319.63 54.3074 1257.93 57.0218C1196.98 59.7018 1147.53 67.5175 1088.05 70.916C1028.17 74.3271 960.147 70.7567 902.729 67.2732C845.77 63.8151 791.429 59.1969 735.849 55.0945C709.628 53.1601 690.412 53.0804 665.06 55.5759C644.455 57.6045 627.028 60.5505 606.453 62.5936C579.002 65.3225 557.138 65.2465 528.389 63.2179C493.844 60.7767 460.188 57.97 426.293 55.2429C367.465 50.5235 299.384 44.6676 233.232 45.8836C149.972 47.4145 86.0984 60.0456 1.69932 61.1405" stroke="url(#paint28_linear_0_5256)" stroke-width="0.3" stroke-miterlimit="10"/>
<path d="M1440.61 62.708C1378.8 62.1651 1319.22 55.5745 1256.8 58.2979C1197.06 60.9056 1149.3 68.7503 1091.02 72.0619C1031.45 75.4476 962.176 72.0257 904.527 68.8046C846.879 65.5834 791.529 61.2042 736.129 56.8611C710.528 54.8542 691.811 54.5701 666.679 57.0529C646.754 59.0218 630.126 61.928 610.25 63.9114C582.95 66.6366 561.425 66.3471 533.176 64.2516C498.461 61.6765 464.285 58.8752 429.75 56.2241C370.183 51.653 300.773 46.1229 234.521 47.3425C150.802 48.8825 86.4982 61.5896 1.68943 62.6917" stroke="url(#paint29_linear_0_5256)" stroke-width="0.3" stroke-miterlimit="10"/>
<path d="M1440.59 64.2314C1378.21 63.7029 1318.96 56.8843 1255.84 59.615C1196.99 62.1648 1150.72 70.0692 1093.25 73.283C1033.75 76.6145 963.735 73.3482 905.727 70.3569C847.249 67.3439 791.419 63.1474 736.249 58.5655C711.167 56.4844 692.66 56.0465 667.718 58.5293C648.332 60.4565 632.374 63.3446 613.048 65.29C585.878 68.0243 564.373 67.5809 536.553 65.4058C501.788 62.6914 467.213 59.8828 432.149 57.2879C372.192 52.8489 301.623 47.6046 235.421 48.8153C151.371 50.3534 86.7581 63.1329 1.5896 64.2314" stroke="url(#paint30_linear_0_5256)" stroke-width="0.3" stroke-miterlimit="10"/>
<path d="M1440.57 65.717C1377.62 65.2375 1318.88 58.2542 1255.06 60.9921C1196.82 63.4912 1151.55 71.43 1094.77 74.6058C1035.46 77.9211 964.524 74.7253 906.366 71.9204C847.289 69.0702 791.209 64.9877 736.299 60.1579C711.627 57.9864 693.02 57.4616 668.208 59.9606C649.222 61.8734 633.763 64.7634 614.807 66.6942C587.736 69.4521 565.932 68.9309 538.442 66.6562C503.747 63.7862 468.912 60.9577 433.458 58.4062C373.321 54.0794 301.933 49.0704 236 50.2629C151.751 51.7848 86.9778 64.6331 1.60946 65.717" stroke="url(#paint31_linear_0_5256)" stroke-width="0.3" stroke-miterlimit="10"/>
<path d="M1440.54 67.1651C1377.27 66.7344 1318.94 59.6751 1254.73 62.4384C1196.69 64.9357 1151.69 72.8672 1095.09 76.025C1035.84 79.3294 964.584 76.0684 906.406 73.3232C847.119 70.5256 791.219 66.4739 736.239 61.6223C711.657 59.4508 692.79 58.9983 668.148 61.4811C649.292 63.3812 633.933 66.2459 615.076 68.1514C588.096 70.8767 565.892 70.37 538.662 68.0301C504.117 65.0624 469.242 62.2122 433.637 59.686C373.791 55.4388 301.473 50.4859 236.05 51.7237C151.921 53.3125 86.7279 65.9436 1.57944 67.1597" stroke="url(#paint32_linear_0_5256)" stroke-width="0.3" stroke-miterlimit="10"/>
<path d="M1440.52 68.5892C1377.11 68.1802 1318.95 61.0738 1254.59 63.8697C1196.64 66.3887 1151.41 74.2532 1094.77 77.3911C1035.52 80.6738 964.424 77.2699 906.336 74.5066C847.239 71.6944 791.579 67.65 736.219 63.0282C683.817 58.6544 657.846 65.3807 614.687 69.5754C587.706 72.1975 565.362 71.7198 538.382 69.3709C503.987 66.376 469.172 63.5331 433.577 61.0358C374.08 56.8629 300.823 51.8864 235.87 53.2292C152.101 54.9628 86.1084 67.0799 1.52944 68.562" stroke="url(#paint33_linear_0_5256)" stroke-width="0.3" stroke-miterlimit="10"/>
<path d="M1440.5 69.9916C1376.9 69.5971 1318.88 62.4383 1254.32 65.2577C1196.37 67.7911 1150.96 75.5725 1094.29 78.6814C1035.04 81.9387 964.154 78.4045 906.156 75.6322C847.289 72.8182 791.839 68.7919 736.159 64.4035C684.197 60.3066 657.296 66.9135 614.107 70.9182C587.127 73.4263 564.583 72.963 537.842 70.6105C503.607 67.5993 468.892 64.7781 433.308 62.3243C374.051 58.2364 300.064 53.3124 235.65 54.7456C152.301 56.5987 85.4989 68.1893 1.53952 69.9066" stroke="url(#paint34_linear_0_5256)" stroke-width="0.3" stroke-miterlimit="10"/>
<path d="M1440.48 71.3687C1376.66 70.9851 1318.73 63.7683 1253.94 66.6004C1196.05 69.1302 1150.37 76.8229 1093.66 79.8992C1034.41 83.1022 963.755 79.4794 905.866 76.7053C847.279 73.9003 791.949 69.9047 736.069 65.7589C684.476 61.9352 656.656 68.3955 613.358 72.2138C586.307 74.5971 563.594 74.1338 537.053 71.7831C503.007 68.7665 468.362 65.9779 432.838 63.5819C373.731 59.5917 299.294 54.789 235.321 56.2964C152.38 58.249 84.8092 69.2949 1.48941 71.2239" stroke="url(#paint35_linear_0_5256)" stroke-width="0.3" stroke-miterlimit="10"/>
<path d="M1440.46 72.7222C1376.37 72.3421 1318.55 65.0693 1253.43 67.9032C1195.59 70.4185 1149.63 78.0243 1092.87 81.0391C1033.64 84.1861 963.345 80.4818 905.477 77.7167C847.209 74.9299 792.049 70.9759 735.939 67.0798C684.736 63.5239 655.937 69.8141 612.438 73.4261C585.298 75.6809 562.405 75.2013 536.034 72.8579C502.254 69.8259 467.592 67.1281 432.199 64.7761C373.141 60.8963 298.495 56.271 234.891 57.8471C152.491 59.8793 84.09 70.3679 1.4996 72.4797" stroke="url(#paint36_linear_0_5256)" stroke-width="0.3" stroke-miterlimit="10"/>
<path d="M1440.43 74.0503C1376.05 73.6702 1318.25 66.3341 1252.81 69.1643C1195.02 71.6598 1148.75 79.1642 1091.92 82.1175C1032.71 85.1939 962.715 81.4317 904.957 78.6792C846.999 75.9214 791.989 72.0217 735.749 68.3789C684.926 65.0854 655.087 71.1893 611.329 74.5823C584.059 76.6977 560.995 76.191 534.774 73.8584C501.198 70.8466 466.662 68.1993 431.349 65.9305C372.262 62.172 297.625 57.7981 234.361 59.4159C152.49 61.5096 83.3102 71.4245 1.43936 73.701" stroke="url(#paint37_linear_0_5256)" stroke-width="0.3" stroke-miterlimit="10"/>
<path d="M1440.41 75.3495C1375.7 74.9677 1317.91 67.5682 1252.1 70.3767C1194.35 72.8414 1147.75 80.2373 1090.9 83.12C1031.73 86.1203 962.096 82.3129 904.388 79.584C846.859 76.8696 791.869 73.0314 735.569 69.6474C685.106 66.6127 654.168 72.5084 610.11 75.6716C582.69 77.6405 559.447 77.0958 533.335 74.7668C499.989 71.7837 465.608 69.196 430.41 67.0199C371.223 63.4006 296.816 59.3182 233.822 60.9739C152.52 63.1093 82.591 72.4397 1.45956 74.8555" stroke="url(#paint38_linear_0_5256)" stroke-width="0.3" stroke-miterlimit="10"/>
<path d="M1440.39 76.6238C1375.32 76.2329 1317.48 68.7628 1251.29 71.5569C1193.58 73.9781 1146.64 81.2564 1089.73 84.0613C1030.6 86.9748 961.346 83.1402 903.768 80.4421C846.639 77.7638 791.709 74.0125 735.39 70.8891C685.276 68.1114 653.179 73.7845 608.791 76.7052C581.201 78.5148 557.778 77.9285 531.747 75.6194C498.621 72.6717 464.383 70.1531 429.291 68.0824C369.914 64.6025 295.927 60.8657 233.162 62.5504C152.451 64.7219 81.8016 73.4461 1.42966 75.9868" stroke="url(#paint39_linear_0_5256)" stroke-width="0.3" stroke-miterlimit="10"/>
<path d="M1440.37 77.8689C1374.91 77.4671 1317.08 69.9247 1250.4 72.6807C1192.73 75.0658 1145.42 82.221 1088.45 84.939C1029.37 87.7566 960.547 83.9094 903.048 81.2456C846.319 78.6163 791.439 74.959 735.17 72.0998C685.396 69.5664 652.07 75.0079 607.332 77.6771C579.552 79.3329 555.949 78.6832 529.978 76.4103C497.084 73.5073 463.008 71.0656 428.051 69.1067C368.445 65.7861 295.057 62.4347 232.473 64.1393C152.361 66.3109 81.0421 74.436 1.42955 77.0817" stroke="url(#paint40_linear_0_5256)" stroke-width="0.3" stroke-miterlimit="10"/>
<path d="M1440.35 79.0831C1374.48 78.6669 1316.59 71.052 1249.49 73.7701C1191.79 76.0991 1144.11 83.1312 1087.08 85.7552C1028.05 88.4696 959.707 84.6241 902.209 82.0002C845.9 79.4269 791.059 75.8747 734.85 73.2815C685.416 70.9996 650.791 76.1877 605.683 78.5927C577.703 80.0838 553.931 79.3708 527.979 77.1088C495.325 74.2568 461.419 71.9004 426.612 70.064C366.776 66.9135 294.128 63.9746 231.683 65.6992C152.201 67.8834 80.2426 75.3752 1.38949 78.1113" stroke="url(#paint41_linear_0_5256)" stroke-width="0.3" stroke-miterlimit="10"/>
<path d="M1440.33 80.2612C1374.05 79.8324 1316.09 72.1451 1248.4 74.8179C1190.79 77.0944 1142.72 83.989 1085.62 86.5134C1026.66 89.1211 958.788 85.2847 901.42 82.7133C845.52 80.2015 790.72 76.7669 734.63 74.4379C685.506 72.3967 649.512 77.3333 604.054 79.4614C575.875 80.7842 551.912 80.0043 525.951 77.7585C493.543 74.9635 459.82 72.6991 425.184 70.9924C364.957 68.0246 293.209 65.5455 230.864 67.2664C152.001 69.4379 79.4732 76.3 1.3696 79.1139" stroke="url(#paint42_linear_0_5256)" stroke-width="0.3" stroke-miterlimit="10"/>
<path d="M1440.31 81.4193C1373.55 80.965 1315.48 73.2036 1247.31 75.8257C1189.71 78.0389 1141.22 84.796 1084.08 87.2154C1025.17 89.7073 957.809 85.8926 900.52 83.3646C845.04 80.9162 790.28 77.6118 734.34 75.5471C685.506 73.7374 648.093 78.4081 602.296 80.2521C573.906 81.4012 549.764 80.538 523.762 78.323C491.601 75.5907 458.064 73.4243 423.615 71.8536C363.019 69.0813 292.27 67.0781 230.005 68.8008C151.761 70.9633 78.7138 77.1703 1.3497 80.0494" stroke="url(#paint43_linear_0_5256)" stroke-width="0.3" stroke-miterlimit="10"/>
<path d="M1440.29 82.5392C1373.05 82.0615 1314.88 74.2258 1246.14 76.79C1188.59 78.9381 1139.71 85.5522 1082.47 87.8613C1023.64 90.2355 956.8 86.448 899.601 83.976C844.521 81.5964 789.83 78.4314 734.071 76.6308C685.486 75.0619 646.624 79.4502 600.477 81.0191C571.888 81.9909 547.575 81.0426 521.484 78.8476C489.573 76.1832 456.231 74.1214 421.986 72.6949C361.03 70.1325 291.36 68.6269 229.125 70.3424C151.491 72.4795 77.9843 78.0314 1.32968 80.9684" stroke="url(#paint44_linear_0_5256)" stroke-width="0.3" stroke-miterlimit="10"/>
<path d="M1440.27 83.6254C1372.56 83.1223 1314.24 75.2125 1244.97 77.7152C1187.41 79.7945 1138.12 86.262 1080.81 88.4571C1022.06 90.7064 955.75 86.9569 898.592 84.5429C843.901 82.232 789.291 79.219 733.711 77.6808C685.336 76.3435 644.995 80.4459 598.518 81.7253C569.719 82.5197 545.237 81.481 519.046 79.3185C487.383 76.7231 454.237 74.7677 420.207 73.488C358.841 71.1481 290.361 70.1565 228.146 71.8593C151.201 73.9693 77.2548 78.8517 1.30966 81.8375" stroke="url(#paint45_linear_0_5256)" stroke-width="0.3" stroke-miterlimit="10"/>
<path d="M1440.25 84.6765C1372.05 84.1463 1313.58 76.1713 1243.74 78.598C1186.18 80.6049 1136.48 86.9259 1079.1 89.0015C1020.43 91.1187 954.661 87.4163 897.573 85.0638C843.252 82.8253 788.741 79.9733 733.401 78.6957C685.196 77.5828 643.386 81.3939 596.61 82.3837C567.631 82.9972 542.959 81.8644 516.668 79.729C485.251 77.2074 452.305 75.364 418.509 74.2369C356.753 72.1323 289.482 71.6636 227.267 73.3538C150.882 75.4276 76.6454 79.6349 1.35974 82.6642" stroke="url(#paint46_linear_0_5256)" stroke-width="0.3" stroke-miterlimit="10"/>
<path d="M1440.23 85.6899C1371.53 85.1326 1312.89 77.0762 1242.49 79.4395C1184.94 81.374 1134.8 87.543 1077.35 89.4901C1018.78 91.4807 953.562 87.8198 896.483 85.5325C842.522 83.3609 788.132 80.6845 733.021 79.6657C684.906 78.7754 641.667 82.2897 594.531 82.9882C565.342 83.4207 540.57 82.1883 514.029 80.0819C482.855 77.6354 450.11 75.9064 416.56 74.9354C275.662 70.7208 137.591 77.8308 1.21985 83.4406" stroke="url(#paint47_linear_0_5256)" stroke-width="0.3" stroke-miterlimit="10"/>
<path d="M1440.21 86.6705C1371 86.0824 1312.19 77.9554 1241.21 80.2446C1183.67 82.1012 1133.09 88.1164 1075.57 89.9495C1017.11 91.8134 952.433 88.1978 895.474 85.9774C841.823 83.8801 787.592 81.3774 732.732 80.6228C684.626 79.955 640.029 83.1562 592.543 83.5724C563.184 83.8258 538.202 82.4867 511.511 80.411C480.694 77.9988 447.967 76.4607 414.741 75.6101C277.43 72.0941 134.214 78.6213 1.24985 84.1931" stroke="url(#paint48_linear_0_5256)" stroke-width="0.3" stroke-miterlimit="10"/>
<path d="M1440.19 87.6117C1370.47 86.9928 1311.48 78.7953 1239.93 81.0084C1182.37 82.7945 1131.37 88.6486 1073.79 90.3587C1015.42 92.0905 951.304 88.5237 894.405 86.3775C841.043 84.3598 787.002 82.0345 732.392 81.526C684.196 81.0772 638.34 83.9762 590.494 84.0974C560.965 84.1716 535.824 82.7276 508.923 80.6773C478.305 78.3447 445.799 76.9386 412.852 76.2401C350.088 74.91 286.444 76.0428 224.199 77.6697C149.513 79.6223 74.7166 81.7648 1.2297 84.9081" stroke="url(#paint49_linear_0_5256)" stroke-width="0.3" stroke-miterlimit="10"/>
<path d="M1440.17 88.5149C1370.54 87.8761 1311.63 79.6641 1240.14 81.6872C1182.82 83.3159 1131.72 88.942 1074.58 90.6484C1016.83 92.373 954.002 88.951 897.602 86.8844C843.082 84.8939 787.852 82.6698 732.042 82.3912C682.498 82.1432 634.223 84.883 584.788 84.5627C554.95 84.3691 530.078 82.6029 502.727 80.6413C474.318 78.6036 444.32 77.4364 413.981 76.8845C349.408 75.7101 285.364 77.4419 221.56 79.0759C147.914 80.9616 73.6073 82.4129 1.17959 85.5652" stroke="url(#paint50_linear_0_5256)" stroke-width="0.3" stroke-miterlimit="10"/>
<path d="M1440.16 89.3778C1370.05 88.7082 1310.9 80.4274 1238.89 82.3728C1181.55 83.9218 1130.04 89.3995 1072.82 90.9811C1015.18 92.5663 952.853 89.1932 896.533 87.1936C842.272 85.2645 787.252 83.2124 731.732 83.2124C681.898 83.2124 632.554 85.5884 582.71 84.9822C552.831 84.6203 527.75 82.7528 500.189 80.8328C471.97 78.8675 442.171 77.8234 412.093 77.4108C347.31 76.5223 284.375 78.8078 220.581 80.3967C147.414 82.2189 73.1179 82.9953 1.1998 86.1874" stroke="url(#paint51_linear_0_5256)" stroke-width="0.3" stroke-miterlimit="10"/>
<path d="M1440.14 90.1993C1369.5 89.499 1310.23 81.1512 1237.61 83.0206C1180.25 84.4972 1128.35 89.8211 1071.04 91.2797C1013.52 92.7472 951.683 89.3977 895.394 87.4632C841.433 85.6047 786.623 83.7372 731.392 84.0014C681.199 84.2421 630.885 86.2616 580.621 85.3731C550.703 84.8429 525.421 82.8758 497.681 80.9974C469.701 79.1028 440.043 78.1817 410.244 77.9084C345.291 77.3094 283.396 80.1379 219.622 81.6833C146.914 83.4458 72.728 83.5436 1.22958 86.7755" stroke="url(#paint52_linear_0_5256)" stroke-width="0.3" stroke-miterlimit="10"/>
<path d="M1440.12 90.9792C1368.99 90.2554 1309.47 81.837 1236.34 83.6286C1178.97 85.0346 1126.67 90.2137 1069.27 91.542C1011.87 92.8702 950.534 89.5659 894.395 87.6984C840.564 85.9069 786.013 84.2149 731.083 84.7451C680.449 85.2337 629.276 86.8913 578.593 85.7241C548.614 85.0346 523.153 82.9608 495.153 81.1259C467.153 79.2909 437.874 78.5019 408.356 78.3644C343.403 78.0586 282.327 81.4172 218.623 82.9192C146.335 84.6238 72.2084 84.0448 1.18968 87.3238" stroke="url(#paint53_linear_0_5256)" stroke-width="0.3" stroke-miterlimit="10"/>
<path d="M1440.11 91.7178C1368.49 90.9577 1308.77 82.4887 1235.11 84.197C1177.71 85.5343 1125.03 90.556 1067.55 91.772C1010.31 92.9827 949.355 89.7 893.316 87.8959C839.644 86.1695 785.393 84.6548 730.733 85.4456C679.6 86.1858 627.667 87.4833 576.534 86.0428C546.646 85.1995 520.885 83.0171 492.685 81.2238C465.005 79.4649 435.726 78.7881 406.527 78.7826C341.574 78.7682 281.278 82.6407 217.663 84.1029C145.715 85.7569 71.7688 84.5028 1.18979 87.8343" stroke="url(#paint54_linear_0_5256)" stroke-width="0.3" stroke-miterlimit="10"/>
<path d="M1440.1 92.4106C1368 91.6253 1308.1 83.0857 1233.91 84.7288C1176.48 85.9956 1123.42 90.8815 1065.87 91.9673C1008.69 93.0531 948.346 89.7958 892.296 88.0549C838.735 86.3973 784.754 85.0528 730.413 86.1005C678.73 87.0958 626.128 88.0332 574.526 86.3249C544.647 85.3387 518.666 83.0459 490.256 81.2942C462.706 79.5968 433.677 79.0412 404.748 79.1643C339.895 79.4375 280.228 83.8059 216.704 85.2337C145.166 86.8407 71.4089 84.9116 1.15966 88.3101" stroke="url(#paint55_linear_0_5256)" stroke-width="0.3" stroke-miterlimit="10"/>
<path d="M1440.08 93.0605C1367.53 92.248 1307.42 83.6506 1232.74 85.2213C1175.28 86.4319 1121.82 91.1605 1064.24 92.1431C1007.18 93.1166 947.326 89.8648 891.307 88.1891C837.846 86.5948 784.134 85.4185 730.103 86.7179C677.841 87.9737 624.59 88.5564 572.627 86.5857C542.779 85.4547 516.578 83.0534 487.918 81.3379C460.538 79.7092 431.659 79.2604 402.98 79.5084C338.296 80.0639 279.139 84.9064 215.725 86.3034C144.526 87.8724 70.9895 85.2738 1.07995 88.7392" stroke="url(#paint56_linear_0_5256)" stroke-width="0.3" stroke-miterlimit="10"/>
<path d="M1440.07 93.665C1367.12 92.8272 1306.79 84.1682 1231.63 85.6756C1174.14 86.8301 1120.38 91.4157 1062.67 92.2897C1005.71 93.1511 946.297 89.9047 890.368 88.2869C836.976 86.7396 783.535 85.7407 729.824 87.2862C676.952 88.8062 623.221 89.0415 570.808 86.8157C541.02 85.5489 514.569 83.039 485.72 81.3633C458.48 79.7817 429.76 79.4541 401.381 79.8197C336.927 80.6503 278.18 85.9398 214.886 87.3187C143.937 88.8587 70.6997 85.5942 1.09995 89.1428" stroke="url(#paint57_linear_0_5256)" stroke-width="0.3" stroke-miterlimit="10"/>
<path d="M1440.06 94.2202C1366.65 93.3625 1306.16 84.6455 1230.58 86.0932C1173.04 87.1935 1118.95 91.6433 1061.18 92.4106C1004.32 93.1652 945.358 89.9188 889.478 88.3516C836.137 86.8551 782.955 86.0227 729.544 87.8088C676.132 89.5948 621.872 89.4899 569.05 87.018C539.331 85.6264 512.621 83.0368 483.611 81.3683C456.631 79.8139 427.872 79.6184 399.842 80.1016C335.648 81.1874 277.231 86.9039 214.066 88.2648C143.427 89.7867 70.3999 85.8616 1.09994 89.5062" stroke="url(#paint58_linear_0_5256)" stroke-width="0.3" stroke-miterlimit="10"/>
<path d="M1440 94.7378C1366.19 93.8619 1305.57 85.0871 1229.54 86.4787C1172.02 87.5265 1117.61 91.8424 1059.78 92.5102C1003.04 93.1652 944.458 89.9079 888.639 88.386C835.327 86.9384 782.396 86.2634 729.294 88.2847C675.193 90.3422 620.612 89.9134 567.411 87.1989C537.752 85.6897 510.812 83.0024 481.633 81.3575C454.762 79.8429 426.153 79.756 398.413 80.3369C368.145 80.9721 338.636 82.427 309.577 84.0412C278.22 85.7802 245.953 88.4331 213.287 89.1352C142.887 90.6499 70.11 86.0734 1.08986 89.8265" stroke="url(#paint59_linear_0_5256)" stroke-width="0.3" stroke-miterlimit="10"/>
<path d="M1440 95.1904C1365.83 94.3001 1305.1 85.4692 1228.63 86.8137C1171.06 87.8271 1116.36 92.0236 1058.46 92.5918C1001.81 93.1546 943.649 89.8774 887.879 88.3935C834.568 86.9784 781.846 86.4627 729.054 88.712C674.363 91.0428 619.423 90.3027 565.832 87.353C536.303 85.7243 509.133 82.9556 479.804 81.3342C453.043 79.8558 424.564 79.8666 397.094 80.547C366.885 81.2926 337.547 82.8742 308.658 84.5915C277.53 86.4409 245.213 89.2314 212.557 89.9389C142.378 91.4572 69.83 86.2383 1.07969 90.1199" stroke="url(#paint60_linear_0_5256)" stroke-width="0.3" stroke-miterlimit="10"/>
<path d="M1440 95.6011C1365.49 94.6963 1304.6 85.8129 1227.8 87.1176C1170.2 88.0984 1115.24 92.1682 1057.28 92.655C1000.71 93.131 942.94 89.8157 887.21 88.3699C833.888 86.9891 781.356 86.6182 728.874 89.0937C673.554 91.6941 618.364 90.6626 564.393 87.4868C534.974 85.7568 507.604 82.903 478.125 81.2997C451.474 79.852 423.165 79.9533 395.895 80.7224C365.756 81.573 336.567 83.274 307.828 85.0854C276.911 87.0344 244.554 89.9478 211.898 90.6663C141.948 92.2044 69.5703 86.3503 1.04977 90.3713" stroke="url(#paint61_linear_0_5256)" stroke-width="0.3" stroke-miterlimit="10"/>
<path d="M1440 95.9614C1365.18 95.0566 1304.19 86.1117 1227.06 87.3857C1169.39 88.3393 1114.15 92.297 1056.13 92.7041C999.619 93.1022 942.21 89.7382 886.54 88.3212C833.199 86.9658 780.817 86.7324 728.654 89.4197C672.765 92.2988 617.435 90.9958 563.084 87.6101C533.765 85.7805 506.215 82.8526 476.616 81.2637C450.055 79.8396 421.846 80.0205 394.835 80.8711C364.737 81.8193 335.708 83.6289 307.099 85.5272C276.351 87.5702 243.974 90.5833 211.278 91.318C141.468 92.8887 69.2705 86.4139 1.04977 90.5941" stroke="url(#paint62_linear_0_5256)" stroke-width="0.3" stroke-miterlimit="10"/>
<path d="M1440 96.269C1364.89 95.3642 1303.84 86.3632 1226.41 87.6173C1168.73 88.551 1113.24 92.4037 1055.17 92.7475C998.719 93.0751 941.69 89.6513 886.021 88.2543C832.649 86.9152 780.367 86.8066 728.504 89.702C672.035 92.8561 616.675 91.3071 561.925 87.7114C532.736 85.7932 505.026 82.7983 475.317 81.2203C448.836 79.8124 420.767 80.0621 393.946 80.985C363.888 82.022 334.989 83.9293 306.499 85.9072C275.891 88.0335 243.545 91.1243 210.758 91.8789C141.099 93.4985 68.9907 86.4139 1.03976 90.7787" stroke="url(#paint63_linear_0_5256)" stroke-width="0.3" stroke-miterlimit="10"/>
<path d="M1440 96.5259C1365.26 95.6211 1304.41 86.6201 1227.43 87.7873C1166.61 88.7083 1107.81 92.8686 1046.43 92.7836C993.963 92.7112 941.311 89.5896 889.478 88.2469C834.408 86.8209 781.696 86.8607 728.364 89.9136C669.227 93.2903 613.817 91.5151 556.818 87.4995C531.267 85.7008 506.924 83.2469 481.183 81.5622C453.943 79.7797 424.034 79.9534 396.005 80.9433C364.198 82.0653 333.75 84.2006 303.751 86.3721C273.513 88.569 241.366 91.6616 208.76 92.3855C139.81 93.9074 68.1013 86.3939 1.04977 90.9251" stroke="url(#paint64_linear_0_5256)" stroke-width="0.3" stroke-miterlimit="10"/>
<path d="M1440 96.7285C1365.05 95.8364 1304.2 86.7756 1227.01 87.9446C1166.17 88.8676 1107.1 92.9301 1045.75 92.7944C993.313 92.6768 940.931 89.4683 889.128 88.1238C834.018 86.6942 781.316 86.8354 728.245 90.0872C668.508 93.7499 613.388 91.7666 555.919 87.5538C530.487 85.6899 506.075 83.2143 480.264 81.5278C453.083 79.7435 423.305 79.9534 395.435 80.9994C363.648 82.1919 333.32 84.4195 303.411 86.649C273.213 88.9001 241.076 92.0271 208.39 92.7872C139.57 94.376 67.7816 86.2997 1.03976 91.0499" stroke="url(#paint65_linear_0_5256)" stroke-width="0.3" stroke-miterlimit="10"/>
<path d="M1440 96.8735C1364.9 95.9959 1304.1 86.8808 1226.69 88.068C1165.84 89.0017 1106.64 92.9774 1045.21 92.7983C992.794 92.6463 940.661 89.3347 888.879 87.9793C833.738 86.5316 780.957 86.7614 728.225 90.2087C667.908 94.1501 613.228 92.0002 555.27 87.6101C529.898 85.6901 505.426 83.1892 479.594 81.4828C452.434 79.6894 422.915 79.9156 395.065 81.0105C330.722 83.5439 273.073 91.4755 208.11 93.0752C139.41 94.7671 67.4318 86.1461 1.03976 91.1353" stroke="url(#paint66_linear_0_5256)" stroke-width="0.3" stroke-miterlimit="10"/>
<path d="M1440 96.9653C1364.78 96.1058 1304 86.9365 1226.5 88.1525C1165.64 89.1098 1106.24 93.0077 1044.84 92.7996C992.414 92.6186 940.511 89.1912 888.749 87.8123C833.588 86.3429 780.627 86.6397 728.195 90.2734C667.349 94.4916 613.278 92.2169 554.77 87.6494C529.608 85.6896 505.076 83.0928 479.184 81.4533C451.684 79.7143 423.055 79.8554 394.905 80.9991C330.452 83.6194 273.123 91.5582 207.93 93.2737C139.32 95.0833 67.0321 85.9357 1.07969 91.189" stroke="url(#paint67_linear_0_5256)" stroke-width="0.3" stroke-miterlimit="10"/>
<path d="M1440 97C1364.7 96.1658 1304.03 86.9422 1226.45 88.2035C1165.59 89.1933 1106.11 93.0261 1044.59 92.8017C992.154 92.6099 940.451 89.0377 888.699 87.6262C833.539 86.1224 780.297 86.468 728.175 90.2845C666.859 94.7778 613.548 92.4217 554.48 87.6805C500.519 83.3519 456.061 78.4243 394.955 80.9614C330.332 83.6451 273.273 91.5169 207.85 93.3699C139.32 95.3116 66.6524 85.67 0.999838 91.1984" stroke="url(#paint68_linear_0_5256)" stroke-width="0.3" stroke-miterlimit="10"/>
<defs>
<linearGradient id="paint0_linear_0_5256" x1="-1.03463e+06" y1="-502.12" x2="-1.03463e+06" y2="-489.53" gradientUnits="userSpaceOnUse">
<stop stop-color="#592CB8"/>
<stop offset="1" stop-color="#2C66B8"/>
</linearGradient>
<linearGradient id="paint1_linear_0_5256" x1="-1.0346e+06" y1="-566.408" x2="-1.0346e+06" y2="-552.114" gradientUnits="userSpaceOnUse">
<stop stop-color="#592CB8"/>
<stop offset="1" stop-color="#2C66B8"/>
</linearGradient>
<linearGradient id="paint2_linear_0_5256" x1="-1.03463e+06" y1="-1046.7" x2="-1.03463e+06" y2="-1020.3" gradientUnits="userSpaceOnUse">
<stop stop-color="#592CB8"/>
<stop offset="1" stop-color="#2C66B8"/>
</linearGradient>
<linearGradient id="paint3_linear_0_5256" x1="-1.03463e+06" y1="-1756.6" x2="-1.03463e+06" y2="-1712.35" gradientUnits="userSpaceOnUse">
<stop stop-color="#592CB8"/>
<stop offset="1" stop-color="#2C66B8"/>
</linearGradient>
<linearGradient id="paint4_linear_0_5256" x1="-1.03463e+06" y1="-2928.87" x2="-1.03463e+06" y2="-2855.19" gradientUnits="userSpaceOnUse">
<stop stop-color="#592CB8"/>
<stop offset="1" stop-color="#2C66B8"/>
</linearGradient>
<linearGradient id="paint5_linear_0_5256" x1="-1.03463e+06" y1="-4216.35" x2="-1.03463e+06" y2="-4110.36" gradientUnits="userSpaceOnUse">
<stop stop-color="#592CB8"/>
<stop offset="1" stop-color="#2C66B8"/>
</linearGradient>
<linearGradient id="paint6_linear_0_5256" x1="-1.03463e+06" y1="-5781.34" x2="-1.03463e+06" y2="-5636.08" gradientUnits="userSpaceOnUse">
<stop stop-color="#592CB8"/>
<stop offset="1" stop-color="#2C66B8"/>
</linearGradient>
<linearGradient id="paint7_linear_0_5256" x1="-1.03461e+06" y1="-7426.07" x2="-1.03461e+06" y2="-7239.55" gradientUnits="userSpaceOnUse">
<stop stop-color="#592CB8"/>
<stop offset="1" stop-color="#2C66B8"/>
</linearGradient>
<linearGradient id="paint8_linear_0_5256" x1="-1.03463e+06" y1="-9075.44" x2="-1.03463e+06" y2="-8847.55" gradientUnits="userSpaceOnUse">
<stop stop-color="#592CB8"/>
<stop offset="1" stop-color="#2C66B8"/>
</linearGradient>
<linearGradient id="paint9_linear_0_5256" x1="-1.0346e+06" y1="-10643.6" x2="-1.0346e+06" y2="-10376.3" gradientUnits="userSpaceOnUse">
<stop stop-color="#592CB8"/>
<stop offset="1" stop-color="#2C66B8"/>
</linearGradient>
<linearGradient id="paint10_linear_0_5256" x1="-1.03463e+06" y1="-12199.6" x2="-1.03463e+06" y2="-11893.3" gradientUnits="userSpaceOnUse">
<stop stop-color="#592CB8"/>
<stop offset="1" stop-color="#2C66B8"/>
</linearGradient>
<linearGradient id="paint11_linear_0_5256" x1="-1.03463e+06" y1="-13396" x2="-1.03463e+06" y2="-13059.8" gradientUnits="userSpaceOnUse">
<stop stop-color="#592CB8"/>
<stop offset="1" stop-color="#2C66B8"/>
</linearGradient>
<linearGradient id="paint12_linear_0_5256" x1="-1.03463e+06" y1="-14284.4" x2="-1.03463e+06" y2="-13925.8" gradientUnits="userSpaceOnUse">
<stop stop-color="#592CB8"/>
<stop offset="1" stop-color="#2C66B8"/>
</linearGradient>
<linearGradient id="paint13_linear_0_5256" x1="-1.03465e+06" y1="-14762.2" x2="-1.03465e+06" y2="-14391.6" gradientUnits="userSpaceOnUse">
<stop stop-color="#592CB8"/>
<stop offset="1" stop-color="#2C66B8"/>
</linearGradient>
<linearGradient id="paint14_linear_0_5256" x1="-1.03463e+06" y1="-14979.1" x2="-1.03463e+06" y2="-14603" gradientUnits="userSpaceOnUse">
<stop stop-color="#592CB8"/>
<stop offset="1" stop-color="#2C66B8"/>
</linearGradient>
<linearGradient id="paint15_linear_0_5256" x1="-1.0346e+06" y1="-15198.9" x2="-1.0346e+06" y2="-14817.2" gradientUnits="userSpaceOnUse">
<stop stop-color="#592CB8"/>
<stop offset="1" stop-color="#2C66B8"/>
</linearGradient>
<linearGradient id="paint16_linear_0_5256" x1="-1.03461e+06" y1="-15326.1" x2="-1.03461e+06" y2="-14941.2" gradientUnits="userSpaceOnUse">
<stop stop-color="#592CB8"/>
<stop offset="1" stop-color="#2C66B8"/>
</linearGradient>
<linearGradient id="paint17_linear_0_5256" x1="-1.03465e+06" y1="-15367.6" x2="-1.03465e+06" y2="-14981.6" gradientUnits="userSpaceOnUse">
<stop stop-color="#592CB8"/>
<stop offset="1" stop-color="#2C66B8"/>
</linearGradient>
<linearGradient id="paint18_linear_0_5256" x1="-1.03463e+06" y1="-15333.8" x2="-1.03463e+06" y2="-14948.6" gradientUnits="userSpaceOnUse">
<stop stop-color="#592CB8"/>
<stop offset="1" stop-color="#2C66B8"/>
</linearGradient>
<linearGradient id="paint19_linear_0_5256" x1="-1.03463e+06" y1="-15232" x2="-1.03463e+06" y2="-14849.3" gradientUnits="userSpaceOnUse">
<stop stop-color="#592CB8"/>
<stop offset="1" stop-color="#2C66B8"/>
</linearGradient>
<linearGradient id="paint20_linear_0_5256" x1="-1.03463e+06" y1="-14989.5" x2="-1.03463e+06" y2="-14612.8" gradientUnits="userSpaceOnUse">
<stop stop-color="#592CB8"/>
<stop offset="1" stop-color="#2C66B8"/>
</linearGradient>
<linearGradient id="paint21_linear_0_5256" x1="-1.03464e+06" y1="-14829.2" x2="-1.03464e+06" y2="-14456.5" gradientUnits="userSpaceOnUse">
<stop stop-color="#592CB8"/>
<stop offset="1" stop-color="#2C66B8"/>
</linearGradient>
<linearGradient id="paint22_linear_0_5256" x1="-1.0346e+06" y1="-14634" x2="-1.0346e+06" y2="-14266.2" gradientUnits="userSpaceOnUse">
<stop stop-color="#592CB8"/>
<stop offset="1" stop-color="#2C66B8"/>
</linearGradient>
<linearGradient id="paint23_linear_0_5256" x1="-1.03463e+06" y1="-14426.3" x2="-1.03463e+06" y2="-14063.6" gradientUnits="userSpaceOnUse">
<stop stop-color="#592CB8"/>
<stop offset="1" stop-color="#2C66B8"/>
</linearGradient>
<linearGradient id="paint24_linear_0_5256" x1="-1.03465e+06" y1="-14206.1" x2="-1.03465e+06" y2="-13848.9" gradientUnits="userSpaceOnUse">
<stop stop-color="#592CB8"/>
<stop offset="1" stop-color="#2C66B8"/>
</linearGradient>
<linearGradient id="paint25_linear_0_5256" x1="-1.03461e+06" y1="-13982.8" x2="-1.03461e+06" y2="-13631.2" gradientUnits="userSpaceOnUse">
<stop stop-color="#592CB8"/>
<stop offset="1" stop-color="#2C66B8"/>
</linearGradient>
<linearGradient id="paint26_linear_0_5256" x1="-1.03463e+06" y1="-13690.1" x2="-1.03463e+06" y2="-13345.8" gradientUnits="userSpaceOnUse">
<stop stop-color="#592CB8"/>
<stop offset="1" stop-color="#2C66B8"/>
</linearGradient>
<linearGradient id="paint27_linear_0_5256" x1="-1.0346e+06" y1="-13482.2" x2="-1.0346e+06" y2="-13143.1" gradientUnits="userSpaceOnUse">
<stop stop-color="#592CB8"/>
<stop offset="1" stop-color="#2C66B8"/>
</linearGradient>
<linearGradient id="paint28_linear_0_5256" x1="-1.0346e+06" y1="-13297.5" x2="-1.0346e+06" y2="-12962.9" gradientUnits="userSpaceOnUse">
<stop stop-color="#592CB8"/>
<stop offset="1" stop-color="#2C66B8"/>
</linearGradient>
<linearGradient id="paint29_linear_0_5256" x1="-1.0346e+06" y1="-13153.5" x2="-1.0346e+06" y2="-12822.5" gradientUnits="userSpaceOnUse">
<stop stop-color="#592CB8"/>
<stop offset="1" stop-color="#2C66B8"/>
</linearGradient>
<linearGradient id="paint30_linear_0_5256" x1="-1.03465e+06" y1="-13030.1" x2="-1.03465e+06" y2="-12702.2" gradientUnits="userSpaceOnUse">
<stop stop-color="#592CB8"/>
<stop offset="1" stop-color="#2C66B8"/>
</linearGradient>
<linearGradient id="paint31_linear_0_5256" x1="-1.03463e+06" y1="-12971.8" x2="-1.03463e+06" y2="-12645.3" gradientUnits="userSpaceOnUse">
<stop stop-color="#592CB8"/>
<stop offset="1" stop-color="#2C66B8"/>
</linearGradient>
<linearGradient id="paint32_linear_0_5256" x1="-1.03463e+06" y1="-12946.8" x2="-1.03463e+06" y2="-12620.9" gradientUnits="userSpaceOnUse">
<stop stop-color="#592CB8"/>
<stop offset="1" stop-color="#2C66B8"/>
</linearGradient>
<linearGradient id="paint33_linear_0_5256" x1="-1.03465e+06" y1="-12868.1" x2="-1.03465e+06" y2="-12544.1" gradientUnits="userSpaceOnUse">
<stop stop-color="#592CB8"/>
<stop offset="1" stop-color="#2C66B8"/>
</linearGradient>
<linearGradient id="paint34_linear_0_5256" x1="-1.03463e+06" y1="-12746.8" x2="-1.03463e+06" y2="-12425.8" gradientUnits="userSpaceOnUse">
<stop stop-color="#592CB8"/>
<stop offset="1" stop-color="#2C66B8"/>
</linearGradient>
<linearGradient id="paint35_linear_0_5256" x1="-1.03465e+06" y1="-12567.3" x2="-1.03465e+06" y2="-12250.8" gradientUnits="userSpaceOnUse">
<stop stop-color="#592CB8"/>
<stop offset="1" stop-color="#2C66B8"/>
</linearGradient>
<linearGradient id="paint36_linear_0_5256" x1="-1.03463e+06" y1="-12351.1" x2="-1.03463e+06" y2="-12040" gradientUnits="userSpaceOnUse">
<stop stop-color="#592CB8"/>
<stop offset="1" stop-color="#2C66B8"/>
</linearGradient>
<linearGradient id="paint37_linear_0_5256" x1="-1.03465e+06" y1="-12091.6" x2="-1.03465e+06" y2="-11786.9" gradientUnits="userSpaceOnUse">
<stop stop-color="#592CB8"/>
<stop offset="1" stop-color="#2C66B8"/>
</linearGradient>
<linearGradient id="paint38_linear_0_5256" x1="-1.03462e+06" y1="-11801.4" x2="-1.03462e+06" y2="-11504" gradientUnits="userSpaceOnUse">
<stop stop-color="#592CB8"/>
<stop offset="1" stop-color="#2C66B8"/>
</linearGradient>
<linearGradient id="paint39_linear_0_5256" x1="-1.03463e+06" y1="-11472.1" x2="-1.03463e+06" y2="-11182.9" gradientUnits="userSpaceOnUse">
<stop stop-color="#592CB8"/>
<stop offset="1" stop-color="#2C66B8"/>
</linearGradient>
<linearGradient id="paint40_linear_0_5256" x1="-1.03461e+06" y1="-11106" x2="-1.03461e+06" y2="-10826" gradientUnits="userSpaceOnUse">
<stop stop-color="#592CB8"/>
<stop offset="1" stop-color="#2C66B8"/>
</linearGradient>
<linearGradient id="paint41_linear_0_5256" x1="-1.03463e+06" y1="-10728.1" x2="-1.03463e+06" y2="-10457.5" gradientUnits="userSpaceOnUse">
<stop stop-color="#592CB8"/>
<stop offset="1" stop-color="#2C66B8"/>
</linearGradient>
<linearGradient id="paint42_linear_0_5256" x1="-1.03463e+06" y1="-10319.1" x2="-1.03463e+06" y2="-10058.7" gradientUnits="userSpaceOnUse">
<stop stop-color="#592CB8"/>
<stop offset="1" stop-color="#2C66B8"/>
</linearGradient>
<linearGradient id="paint43_linear_0_5256" x1="-1.03463e+06" y1="-9906.8" x2="-1.03463e+06" y2="-9656.69" gradientUnits="userSpaceOnUse">
<stop stop-color="#592CB8"/>
<stop offset="1" stop-color="#2C66B8"/>
</linearGradient>
<linearGradient id="paint44_linear_0_5256" x1="-1.03463e+06" y1="-9472.55" x2="-1.03463e+06" y2="-9233.29" gradientUnits="userSpaceOnUse">
<stop stop-color="#592CB8"/>
<stop offset="1" stop-color="#2C66B8"/>
</linearGradient>
<linearGradient id="paint45_linear_0_5256" x1="-1.03463e+06" y1="-9040.07" x2="-1.03463e+06" y2="-8811.62" gradientUnits="userSpaceOnUse">
<stop stop-color="#592CB8"/>
<stop offset="1" stop-color="#2C66B8"/>
</linearGradient>
<linearGradient id="paint46_linear_0_5256" x1="-1.03458e+06" y1="-8616.53" x2="-1.03458e+06" y2="-8398.67" gradientUnits="userSpaceOnUse">
<stop stop-color="#592CB8"/>
<stop offset="1" stop-color="#2C66B8"/>
</linearGradient>
<linearGradient id="paint47_linear_0_5256" x1="-1.03466e+06" y1="-8162.56" x2="-1.03466e+06" y2="-7956.05" gradientUnits="userSpaceOnUse">
<stop stop-color="#592CB8"/>
<stop offset="1" stop-color="#2C66B8"/>
</linearGradient>
<linearGradient id="paint48_linear_0_5256" x1="-1.03463e+06" y1="-7883.22" x2="-1.03463e+06" y2="-7683.69" gradientUnits="userSpaceOnUse">
<stop stop-color="#592CB8"/>
<stop offset="1" stop-color="#2C66B8"/>
</linearGradient>
<linearGradient id="paint49_linear_0_5256" x1="-1.03463e+06" y1="-7538.42" x2="-1.03463e+06" y2="-7347.51" gradientUnits="userSpaceOnUse">
<stop stop-color="#592CB8"/>
<stop offset="1" stop-color="#2C66B8"/>
</linearGradient>
<linearGradient id="paint50_linear_0_5256" x1="-1.03465e+06" y1="-7264.42" x2="-1.03465e+06" y2="-7080.36" gradientUnits="userSpaceOnUse">
<stop stop-color="#592CB8"/>
<stop offset="1" stop-color="#2C66B8"/>
</linearGradient>
<linearGradient id="paint51_linear_0_5256" x1="-1.03463e+06" y1="-7042.9" x2="-1.03463e+06" y2="-6864.37" gradientUnits="userSpaceOnUse">
<stop stop-color="#592CB8"/>
<stop offset="1" stop-color="#2C66B8"/>
</linearGradient>
<linearGradient id="paint52_linear_0_5256" x1="-1.03459e+06" y1="-6858.8" x2="-1.03459e+06" y2="-6684.87" gradientUnits="userSpaceOnUse">
<stop stop-color="#592CB8"/>
<stop offset="1" stop-color="#2C66B8"/>
</linearGradient>
<linearGradient id="paint53_linear_0_5256" x1="-1.0346e+06" y1="-6702.19" x2="-1.0346e+06" y2="-6532.18" gradientUnits="userSpaceOnUse">
<stop stop-color="#592CB8"/>
<stop offset="1" stop-color="#2C66B8"/>
</linearGradient>
<linearGradient id="paint54_linear_0_5256" x1="-1.0346e+06" y1="-6574.86" x2="-1.0346e+06" y2="-6408.02" gradientUnits="userSpaceOnUse">
<stop stop-color="#592CB8"/>
<stop offset="1" stop-color="#2C66B8"/>
</linearGradient>
<linearGradient id="paint55_linear_0_5256" x1="-1.03461e+06" y1="-6580.36" x2="-1.03461e+06" y2="-6413.38" gradientUnits="userSpaceOnUse">
<stop stop-color="#592CB8"/>
<stop offset="1" stop-color="#2C66B8"/>
</linearGradient>
<linearGradient id="paint56_linear_0_5256" x1="-1.03465e+06" y1="-6757.35" x2="-1.03465e+06" y2="-6585.93" gradientUnits="userSpaceOnUse">
<stop stop-color="#592CB8"/>
<stop offset="1" stop-color="#2C66B8"/>
</linearGradient>
<linearGradient id="paint57_linear_0_5256" x1="-1.03463e+06" y1="-6940.47" x2="-1.03463e+06" y2="-6764.45" gradientUnits="userSpaceOnUse">
<stop stop-color="#592CB8"/>
<stop offset="1" stop-color="#2C66B8"/>
</linearGradient>
<linearGradient id="paint58_linear_0_5256" x1="-1.03463e+06" y1="-7126.58" x2="-1.03463e+06" y2="-6945.89" gradientUnits="userSpaceOnUse">
<stop stop-color="#592CB8"/>
<stop offset="1" stop-color="#2C66B8"/>
</linearGradient>
<linearGradient id="paint59_linear_0_5256" x1="-1.03459e+06" y1="-7317.82" x2="-1.03459e+06" y2="-7132.33" gradientUnits="userSpaceOnUse">
<stop stop-color="#592CB8"/>
<stop offset="1" stop-color="#2C66B8"/>
</linearGradient>
<linearGradient id="paint60_linear_0_5256" x1="-1.0346e+06" y1="-7494.97" x2="-1.0346e+06" y2="-7305.03" gradientUnits="userSpaceOnUse">
<stop stop-color="#592CB8"/>
<stop offset="1" stop-color="#2C66B8"/>
</linearGradient>
<linearGradient id="paint61_linear_0_5256" x1="-1.03462e+06" y1="-7668.05" x2="-1.03462e+06" y2="-7473.78" gradientUnits="userSpaceOnUse">
<stop stop-color="#592CB8"/>
<stop offset="1" stop-color="#2C66B8"/>
</linearGradient>
<linearGradient id="paint62_linear_0_5256" x1="-1.03462e+06" y1="-7827.62" x2="-1.03462e+06" y2="-7629.34" gradientUnits="userSpaceOnUse">
<stop stop-color="#592CB8"/>
<stop offset="1" stop-color="#2C66B8"/>
</linearGradient>
<linearGradient id="paint63_linear_0_5256" x1="-1.03463e+06" y1="-7973.99" x2="-1.03463e+06" y2="-7772.04" gradientUnits="userSpaceOnUse">
<stop stop-color="#592CB8"/>
<stop offset="1" stop-color="#2C66B8"/>
</linearGradient>
<linearGradient id="paint64_linear_0_5256" x1="-1.03462e+06" y1="-8114.16" x2="-1.03462e+06" y2="-7908.7" gradientUnits="userSpaceOnUse">
<stop stop-color="#592CB8"/>
<stop offset="1" stop-color="#2C66B8"/>
</linearGradient>
<linearGradient id="paint65_linear_0_5256" x1="-1.03463e+06" y1="-8219.69" x2="-1.03463e+06" y2="-8011.58" gradientUnits="userSpaceOnUse">
<stop stop-color="#592CB8"/>
<stop offset="1" stop-color="#2C66B8"/>
</linearGradient>
<linearGradient id="paint66_linear_0_5256" x1="-1.03463e+06" y1="-8311.24" x2="-1.03463e+06" y2="-8100.84" gradientUnits="userSpaceOnUse">
<stop stop-color="#592CB8"/>
<stop offset="1" stop-color="#2C66B8"/>
</linearGradient>
<linearGradient id="paint67_linear_0_5256" x1="-1.0346e+06" y1="-8367.19" x2="-1.0346e+06" y2="-8155.39" gradientUnits="userSpaceOnUse">
<stop stop-color="#592CB8"/>
<stop offset="1" stop-color="#2C66B8"/>
</linearGradient>
<linearGradient id="paint68_linear_0_5256" x1="-1.03465e+06" y1="-8321.02" x2="-1.03465e+06" y2="-8110.37" gradientUnits="userSpaceOnUse">
<stop stop-color="#592CB8"/>
<stop offset="1" stop-color="#2C66B8"/>
</linearGradient>
</defs>
</svg>
