<svg id="linkedin" xmlns="http://www.w3.org/2000/svg" width="15.249" height="15.249" viewBox="0 0 15.249 15.249">
  <path id="Path_2044" data-name="Path 2044" d="M18.341,18.011h0V12.417c0-2.736-.589-4.843-3.787-4.843a3.32,3.32,0,0,0-2.991,1.644h-.044V7.829H8.489V18.01h3.158V12.969c0-1.327.252-2.611,1.9-2.611,1.62,0,1.644,1.515,1.644,2.7v4.957Z" transform="translate(-3.095 -2.762)" fill="#3c424f"/>
  <path id="Path_2045" data-name="Path 2045" d="M.4,7.977H3.558V18.158H.4Z" transform="translate(-0.144 -2.909)" fill="#3c424f"/>
  <path id="Path_2046" data-name="Path 2046" d="M1.831,0A1.84,1.84,0,1,0,3.662,1.831,1.832,1.832,0,0,0,1.831,0Z" fill="#3c424f"/>
</svg>
