<svg width="32" height="32" viewBox="0 0 32 32" fill="none" xmlns="http://www.w3.org/2000/svg">
<path d="M20.4 7.39983C19.3866 7.39966 18.4137 7.79732 17.6905 8.50725C16.9674 9.21718 16.5518 10.1826 16.5333 11.1958L16.496 13.2958C16.4938 13.4086 16.4678 13.5196 16.4197 13.6216C16.3716 13.7236 16.3025 13.8143 16.2168 13.8877C16.1312 13.9611 16.0311 14.0155 15.9229 14.0475C15.8148 14.0795 15.7011 14.0882 15.5893 14.0732L13.508 13.7905C10.7693 13.4172 8.14532 12.1558 5.62799 10.0585C4.83065 14.4718 6.38799 17.5292 10.1387 19.8878L12.468 21.3518C12.5787 21.4214 12.6706 21.517 12.7358 21.6303C12.801 21.7436 12.8374 21.8712 12.8418 22.0018C12.8463 22.1324 12.8187 22.2622 12.7614 22.3797C12.7042 22.4972 12.619 22.5989 12.5133 22.6758L10.3907 24.2265C11.6533 24.3052 12.852 24.2492 13.8467 24.0518C20.1373 22.7958 24.32 18.0625 24.32 10.2545C24.32 9.61716 22.9707 7.39983 20.4 7.39983ZM13.8667 11.1465C13.8899 9.86123 14.2918 8.61139 15.0221 7.55346C15.7523 6.49553 16.7784 5.67652 17.9719 5.19898C19.1654 4.72145 20.4732 4.6066 21.7316 4.86882C22.9901 5.13105 24.1432 5.75869 25.0467 6.67316C25.9947 6.66649 26.8013 6.90649 28.6053 5.81316C28.1587 7.99983 27.9387 8.94916 26.9867 10.2545C26.9867 20.4438 20.724 25.3985 14.3693 26.6665C10.012 27.5358 3.67599 26.1078 1.85999 24.2118C2.78532 24.1398 6.54532 23.7358 8.71865 22.1452C6.87999 20.9332 -0.438681 16.6265 4.37065 5.04783C6.62799 7.68383 8.91732 9.47849 11.2373 10.4305C12.7813 11.0638 13.16 11.0505 13.868 11.1478L13.8667 11.1465Z" fill="#E3E6FF"/>
</svg>
